<svg width="117" height="117" viewBox="0 0 117 117" fill="none" xmlns="http://www.w3.org/2000/svg">
<circle opacity="0.7" cx="58.0744" cy="58.5" r="58.0744" fill="#EC681D"/>
<path d="M73.1543 59.9927C80.5245 59.4673 86.287 53.1637 86.287 45.6184C86.287 39.06 81.8298 33.2498 75.7331 31.642C74.4278 23.7943 67.6784 18 59.5759 18C53.7021 18 48.258 21.1837 45.3608 26.2139C44.8037 26.1024 44.2147 26.0547 43.6416 26.0547C38.691 26.0547 34.6637 30.082 34.6637 35.0327C34.6637 35.6694 34.7274 36.2902 34.8547 36.8951C31.6551 39.2192 29.7131 42.9759 29.7131 46.9555C29.7131 53.6731 35.1094 59.6584 41.4927 60.0086C41.5245 60.0086 41.5563 60.0086 41.5882 60.0086H73.0588C73.0747 60.0086 73.1225 60.0086 73.1543 59.9927ZM41.62 56.8567C36.8604 56.5702 32.8649 52.0494 32.8649 46.9555C32.8649 43.6604 34.6318 40.5882 37.4812 38.9327C38.1498 38.5506 38.4363 37.7388 38.1657 37.0224C37.927 36.4016 37.8155 35.7331 37.8155 35.0327C37.8155 31.8171 40.4261 29.2065 43.6416 29.2065C44.3261 29.2065 44.9947 29.318 45.6314 29.5567C46.3955 29.8433 47.2551 29.4931 47.6053 28.7449C49.7702 24.1286 54.4821 21.1518 59.5919 21.1518C66.4527 21.1518 72.1196 26.2935 72.7723 33.1065C72.8359 33.8229 73.3772 34.3959 74.0776 34.5073C79.251 35.3988 83.151 40.1743 83.151 45.6184C83.151 51.3967 78.5984 56.4269 72.9951 56.8567H41.62Z" fill="white"/>
<path d="M58 65.3252C57.1245 65.3252 56.4241 66.0256 56.4241 66.9011V85.3664C54.2433 86.035 52.6196 88.0566 52.5719 90.4285C52.54 91.877 53.0653 93.2619 54.0682 94.3125C55.071 95.3632 56.4241 95.9681 57.8727 95.9999H58C60.929 95.9999 63.3645 93.6121 63.4282 90.6991C63.46 89.2505 62.9347 87.8656 61.9319 86.815C61.2792 86.1305 60.4674 85.637 59.5759 85.3664V66.9011C59.5759 66.0256 58.8755 65.3252 58 65.3252ZM59.6555 88.9958C60.0694 89.4415 60.3082 90.0146 60.2923 90.6195C60.2604 91.8452 59.2417 92.8481 58.0159 92.8481H57.9523C57.3474 92.8321 56.7743 92.5774 56.3604 92.1476C55.9466 91.7019 55.7078 91.1289 55.7237 90.524C55.7555 89.2983 56.7743 88.2954 58 88.2954H58.0637C58.6686 88.2954 59.2257 88.5501 59.6555 88.9958Z" fill="white"/>
<path d="M47.8759 66.9011V75.7358C47.8759 77.264 46.6343 78.4897 45.1221 78.4897H40.4739C39.7894 76.2611 37.72 74.6215 35.2686 74.6215C32.276 74.6215 29.8245 77.057 29.8245 80.0656C29.8245 83.0742 32.26 85.5097 35.2686 85.5097C37.72 85.5097 39.7894 83.886 40.4739 81.6415H45.1221C48.3853 81.6415 51.0278 78.9832 51.0278 75.7358V66.9011C51.0278 66.0256 50.3274 65.3252 49.4519 65.3252C48.5923 65.3252 47.8759 66.0256 47.8759 66.9011ZM35.2686 82.3578C34.0111 82.3578 32.9764 81.3391 32.9764 80.0656C32.9764 78.7921 33.9951 77.7734 35.2686 77.7734C36.5262 77.7734 37.5608 78.7921 37.5608 80.0656C37.5608 81.3391 36.5421 82.3578 35.2686 82.3578Z" fill="white"/>
<path d="M70.8779 81.6576H75.5261C76.2106 83.8862 78.28 85.5258 80.7314 85.5258C83.7241 85.5258 86.1755 83.0903 86.1755 80.0817C86.1755 77.0731 83.74 74.6376 80.7314 74.6376C78.28 74.6376 76.2106 76.2613 75.5261 78.5058H70.8779C69.3498 78.5058 68.1241 77.2642 68.1241 75.7519V66.9172C68.1241 66.0417 67.4237 65.3413 66.5482 65.3413C65.6726 65.3413 64.9722 66.0417 64.9722 66.9172V75.7519C64.9722 78.9993 67.6147 81.6576 70.8779 81.6576ZM80.7314 77.7895C81.989 77.7895 83.0237 78.8082 83.0237 80.0817C83.0237 81.3552 82.0049 82.374 80.7314 82.374C79.4579 82.374 78.4392 81.3552 78.4392 80.0817C78.4392 78.8082 79.4579 77.7895 80.7314 77.7895Z" fill="white"/>
</svg>
