<svg width="116" height="117" viewBox="0 0 116 117" fill="none" xmlns="http://www.w3.org/2000/svg">
<ellipse opacity="0.7" cx="58" cy="58.5" rx="58" ry="58.5" fill="#EC681D"/>
<g clip-path="url(#clip0)">
<path d="M78.2709 70.1225C76.8971 67.2584 71.9825 63.2829 67.2343 59.4417C64.5859 57.3008 62.0834 55.2767 60.488 53.6813C60.0884 53.2788 59.4905 53.1504 58.9627 53.34C57.9798 53.6959 57.373 53.97 56.8948 54.1829C56.1657 54.5095 55.9207 54.6204 54.9377 54.7195C54.503 54.7633 54.1123 54.9967 53.8702 55.3583C51.808 58.4411 49.673 58.1786 48.2468 57.7004C47.7918 57.5488 47.7102 57.3533 47.6664 57.1667C47.3602 55.8863 48.8973 52.9054 50.8893 50.9133C55.6289 46.1708 58.073 44.9836 63.2355 47.2908C69.0921 49.9099 74.9605 51.9604 75.0189 51.9808C75.786 52.2461 76.6114 51.8436 76.8768 51.0824C77.1393 50.3211 76.7396 49.4899 75.9784 49.2245C75.92 49.2042 70.1684 47.1945 64.4284 44.6249C57.7405 41.6353 54.0713 43.604 48.83 48.8483C46.835 50.8433 44.1254 54.8799 44.8254 57.8404C45.1258 59.1004 46.0125 60.0338 47.3308 60.4683C50.6354 61.5592 53.6511 60.5149 55.897 57.5342C56.8245 57.3913 57.3291 57.1813 58.0874 56.84C58.3615 56.7175 58.6824 56.5747 59.1083 56.4025C60.7766 57.9688 63.0283 59.7917 65.3995 61.7079C69.687 65.1758 74.5491 69.1075 75.6429 71.3825C76.1825 72.5054 75.602 73.2375 75.2083 73.5729C74.6308 74.0688 73.8404 74.2263 73.4116 73.9258C72.9391 73.602 72.3238 73.5817 71.8366 73.8733C71.3466 74.1649 71.0725 74.7161 71.1338 75.282C71.2329 76.2095 70.3841 76.7404 70.0166 76.9242C69.0833 77.3967 68.1091 77.315 67.7445 76.9767C67.3361 76.5975 66.7499 76.4867 66.2308 76.6792C65.7116 76.8745 65.3499 77.3529 65.2974 77.907C65.2099 78.8636 64.5011 79.7824 63.5765 80.1411C63.1302 80.3103 62.4827 80.4124 61.9024 79.8815C61.5408 79.5549 61.039 79.4294 60.5695 79.5431C60.0941 79.6598 59.712 80.004 59.5458 80.4619C59.4904 80.6078 59.3649 80.9578 57.9999 80.9578C57.0286 80.9578 55.2815 80.3015 54.427 79.7356C53.4033 79.0619 46.9836 74.2728 41.4391 69.6294C40.6604 68.9731 39.3129 67.5673 38.1229 66.3248C37.067 65.2223 36.1016 64.2219 35.6058 63.8019C34.9845 63.2769 34.0658 63.3556 33.5495 63.974C33.0304 64.5894 33.1061 65.5111 33.7216 66.0303C34.1738 66.4124 35.0488 67.3369 36.0141 68.3431C37.315 69.7023 38.6595 71.1081 39.5638 71.8665C44.9946 76.4136 51.5221 81.3224 52.8229 82.1769C53.8963 82.8828 56.2091 83.8744 58 83.8744C59.4379 83.8744 60.5434 83.5448 61.3104 82.9003C62.337 83.2999 63.5038 83.3028 64.6266 82.8653C65.9538 82.3519 67.0445 81.3165 67.6629 80.0624C68.812 80.3074 70.1275 80.1353 71.3233 79.5345C72.4929 78.9454 73.3386 78.0442 73.7586 76.9911C74.9195 77.0524 76.1152 76.6411 77.104 75.7924C78.7784 74.3604 79.2391 72.1322 78.2709 70.1225Z" fill="white"/>
<path d="M52.1666 45.9578H39.0416C38.2366 45.9578 37.5832 46.6111 37.5832 47.4161C37.5832 48.2211 38.2366 48.8745 39.0416 48.8745H52.1666C52.9716 48.8745 53.625 48.2211 53.625 47.4161C53.625 46.6111 52.9716 45.9578 52.1666 45.9578Z" fill="white"/>
<path d="M82.5437 67.019C82.0916 66.3511 81.1875 66.1674 80.5196 66.6224L76.2555 69.4865C75.5876 69.9356 75.4096 70.8428 75.8589 71.5106C76.1417 71.9277 76.6026 72.1552 77.0723 72.1552C77.3494 72.1552 77.6323 72.0765 77.8831 71.9074L82.1472 69.0433C82.815 68.594 82.9929 67.687 82.5437 67.019Z" fill="white"/>
<path d="M73.4904 73.9784C72.4462 73.1559 67.7766 68.3755 64.8891 65.3655C64.332 64.7822 63.4075 64.7618 62.827 65.3218C62.2436 65.8789 62.2261 66.8034 62.7832 67.3839C63.5329 68.1655 70.1449 75.0577 71.682 76.271C71.9474 76.481 72.2682 76.5832 72.5832 76.5832C73.012 76.5832 73.4407 76.3907 73.7324 76.026C74.2312 75.3959 74.1234 74.4772 73.4904 73.9784Z" fill="white"/>
<path d="M67.6629 76.9038C65.9158 75.5067 61.5263 70.8429 60.5345 69.7638C59.9861 69.1688 59.0674 69.1338 58.4724 69.6763C57.8802 70.2217 57.8395 71.1463 58.3849 71.7384C58.4374 71.7938 63.6758 77.4493 65.8399 79.1818C66.1083 79.3947 66.432 79.4997 66.7499 79.4997C67.1758 79.4997 67.6015 79.31 67.8903 78.9543C68.3921 78.3242 68.29 77.4054 67.6629 76.9038Z" fill="white"/>
<path d="M61.8588 79.841C59.7791 78.0881 55.5238 73.5584 54.6925 72.6688C54.1413 72.0797 53.2166 72.0476 52.6304 72.5988C52.0413 73.1501 52.012 74.0717 52.5604 74.6609C53.7563 75.9413 57.8279 80.2581 59.9775 82.0722C60.2516 82.3026 60.5841 82.4163 60.9166 82.4163C61.3307 82.4163 61.745 82.2385 62.0338 81.8972C62.5529 81.2788 62.4741 80.3601 61.8588 79.841Z" fill="white"/>
<path d="M40.045 43.4409C37.5454 41.0725 27.55 40.3053 24.5459 40.1275C24.1318 40.1071 23.7496 40.2441 23.458 40.5212C23.1662 40.7953 23 41.1803 23 41.5828V67.8328C23 68.6378 23.6534 69.2912 24.4584 69.2912H33.2084C33.8384 69.2912 34.3984 68.8859 34.5938 68.285C34.8066 67.6316 39.8321 52.2084 40.4941 44.625C40.5321 44.1816 40.3687 43.7441 40.045 43.4409ZM32.1437 66.3746H25.9166V43.1462C30.6038 43.5166 35.6612 44.3216 37.4987 45.2141C36.7259 51.6016 33.2287 62.9503 32.1437 66.3746Z" fill="white"/>
<path d="M91.5416 43.0413C80.0908 43.0413 73.7383 45.9725 73.4729 46.095C73.0938 46.2729 72.8108 46.6025 72.6941 47.0021C72.5775 47.4018 72.6358 47.8305 72.8545 48.1863C74.657 51.0884 80.3008 67.2059 81.3858 71.1375C81.5608 71.7704 82.1354 72.2079 82.7916 72.2079H91.5416C92.3466 72.2079 93 71.5545 93 70.7495V44.4995C93 43.6916 92.3466 43.0413 91.5416 43.0413ZM90.0834 69.2912H83.8825C82.5 64.7879 78.4166 53.0454 76.1388 48.1921C78.3641 47.4368 83.1446 46.1388 90.0834 45.9755V69.2912Z" fill="white"/>
</g>
<defs>
<clipPath id="clip0">
<rect width="70" height="70" fill="white" transform="translate(23 27)"/>
</clipPath>
</defs>
</svg>
