<svg width="73" height="127" viewBox="0 0 73 127" fill="none" xmlns="http://www.w3.org/2000/svg">
<path d="M36.3847 0C18.5423 0 4.0722 14.166 4.0722 31.6335C4.0722 49.1009 29.4685 88.6458 36.3847 88.6338C43.0802 88.6218 68.6971 49.1009 68.6971 31.6335C68.6849 14.166 54.227 0 36.3847 0Z" fill="white"/>
<path d="M36.3848 1.5542C19.2886 1.5542 5.42365 15.137 5.42365 31.8854C5.42365 48.6337 29.7578 86.5506 36.3848 86.5391C42.8003 86.5275 67.346 48.6337 67.346 31.8854C67.3343 15.137 53.481 1.5542 36.3848 1.5542Z" fill="#200F32"/>
<path d="M60.4907 30.4797C60.4907 43.429 44.6235 66.3242 36.3846 66.3242C28.6872 66.3242 12.2784 43.429 12.2784 30.4797C12.2784 17.5303 23.064 7.03418 36.3846 7.03418C49.7052 7.03418 60.4907 17.5303 60.4907 30.4797Z" fill="white"/>
<path fill-rule="evenodd" clip-rule="evenodd" d="M19.2718 47.2827C20.1204 48.1206 21.5034 48.0394 22.283 47.1369C22.5767 46.8146 22.8587 46.4808 23.1407 46.147C23.5402 45.698 24.0337 45.4678 24.5272 45.4333H24.5625H24.5977C25.103 45.4563 25.5965 45.698 25.9842 46.147C26.0665 46.2448 26.1516 46.3426 26.2368 46.4405C26.322 46.5383 26.4072 46.6362 26.4895 46.734C26.7597 47.0448 27.077 47.3326 27.4177 47.5743C28.4635 48.311 29.521 47.6894 30.2612 46.8836C31.5973 45.4361 32.9067 43.9559 34.2145 42.4775C34.6435 41.9926 35.0722 41.5079 35.5017 41.0246C35.6166 40.897 35.7663 40.7283 35.9417 40.5307C37.1109 39.213 39.4205 36.61 40.1664 36.3397C41.1064 36.0059 42.0934 36.3743 42.7632 37.0534C43.6074 37.9111 47.9983 42.8291 51.203 46.4185C52.0126 47.3254 53.4133 47.4084 54.2395 46.5166C58.1238 42.3241 60.4907 36.7578 60.4907 30.6499C60.4907 17.6073 49.698 7.03418 36.3846 7.03418C23.0711 7.03418 12.2784 17.6073 12.2784 30.6499C12.2784 37.1377 14.9489 43.0144 19.2718 47.2827Z" fill="url(#paint0_linear)"/>
<path d="M36.3844 66.8267C44.6496 65.8218 60.4905 46.2259 63.2917 21.1682C63.2682 19.5106 63.1507 17.8761 62.8922 16.2876C65.677 20.8459 67.2867 26.1754 67.2867 31.8733C67.2867 48.6216 42.9525 86.5384 36.3255 86.5269C30.8148 86.5153 11.9326 58.5555 6.71558 40.0575C14.3061 57.036 26.8787 67.3217 36.3844 66.8267Z" fill="url(#paint1_linear)"/>
<path d="M36.3848 66.3241C27.6658 65.8216 9.71439 40.1963 9.41864 21.1682C9.46564 19.5106 9.55964 17.8761 9.81814 16.2876C7.03339 20.8574 5.42365 26.1869 5.42365 31.8847C5.42365 48.633 29.7579 86.5496 36.3848 86.5381C40.3916 86.5266 51.4718 71.7352 59.2268 56.5524C62.1291 50.8546 51.7453 67.2092 36.3848 66.3241Z" fill="url(#paint2_linear)"/>
<path d="M7.73732 99.2444C4.89875 103.375 2.02425 108.772 0.515142 112.89C-0.359185 115.26 0.0240798 115.847 0.59898 116.657C1.09004 117.361 1.76076 117.947 2.52729 118.358C3.35371 118.769 4.26397 118.804 5.68924 118.546C7.79721 118.182 10.6358 116.891 12.3006 115.108C13.9295 113.371 13.9534 111.201 13.1749 110.051C12.7198 109.382 12.097 108.854 11.3544 108.49C13.654 107.516 15.6781 106.003 17.2471 104.102C18.5287 102.483 19.2473 100.406 18.5646 97.9303C17.8819 95.4194 16.0374 94.8327 14.0972 94.9383C11.57 95.0791 8.15652 96.8978 5.52156 97.1207C5.06643 97.1559 4.95864 97.3437 5.15027 97.7426C5.41377 98.3527 6.22821 99.1623 7.73732 99.2444ZM6.00064 107.469C7.10254 105.592 8.19245 103.856 8.95899 102.495C9.90518 100.793 10.1567 99.6786 10.0968 98.8807C12.7078 98.0711 16.4447 96.3698 17.1872 98.2941C18.1095 100.805 13.4863 105.768 6.00064 107.469ZM8.88712 109.312C12.3245 109.488 12.3245 111.154 10.9352 112.855C9.30632 114.814 6.06053 116.328 3.64116 116.61C2.44345 116.75 2.01227 116.305 2.44345 115.014C3.00637 113.172 3.95256 111.212 4.97061 109.288C5.50958 109.546 6.25216 109.652 7.30615 109.546C7.83314 109.511 8.37211 109.429 8.88712 109.312ZM19.1635 111.799C21.8104 113.899 24.3376 112.949 26.194 110.731C27.787 108.854 28.0744 106.601 27.3917 105.721C26.7929 104.912 26.1102 104.348 25.164 103.797C23.2836 102.729 19.415 104.642 16.9717 109.394C14.5164 114.146 16.1812 118.78 20.984 118.698C23.8944 118.663 26.7929 116.962 28.3858 114.721C29.0685 113.77 29.1763 112.714 29.0326 112.433C28.8888 112.104 28.5774 112.104 28.3858 112.397C26.7569 114.85 24.0022 117.795 20.8642 117.63C18.876 117.525 17.9657 115.19 19.1635 111.799ZM19.5228 110.989C19.6066 110.813 19.7144 110.59 19.8342 110.368C21.6068 106.871 24.7328 104.642 25.5472 105.275C26.0862 105.674 25.2358 107.599 24.0381 109.159C22.9123 110.544 21.3553 112.116 19.5228 110.989ZM38.219 98.7399C34.6977 103.938 30.6255 111.94 29.7632 114.979C29.2721 116.762 29.7272 117.853 30.2542 118.334C30.5177 118.593 30.7094 118.593 30.8531 118.229C33.8114 111.47 37.0213 106.296 39.273 102.272C40.291 100.476 40.5545 99.2444 40.5186 98.3644C42.7104 98.0007 45.0938 97.6135 46.9503 97.813C47.4413 97.8482 47.5132 97.5549 47.4054 97.2615C46.8425 95.8301 45.4052 95.4194 43.8123 95.3842C41.6564 95.3021 35.3924 96.6749 32.0268 96.4167C31.6556 96.3815 31.4879 96.5575 31.6076 96.8978C32.0268 98.2706 33.6557 99.0802 35.9074 98.998C36.6859 98.9394 37.4525 98.8572 38.219 98.7399ZM43.5847 106.437C44.5309 104.114 44.8303 101.967 43.6686 102.013C42.2672 102.049 38.9736 106.402 41.1414 107.775C39.7401 109.734 37.2129 113.195 36.3386 114.826C35.3205 116.704 35.3205 118.405 36.4224 119.519C36.7578 119.848 36.9854 119.66 37.0692 119.343C37.7878 115.988 41.4169 110.755 42.8541 108.162C43.9919 108.162 45.6088 107.833 47.2737 106.765C45.7646 108.467 43.5727 111.095 42.7463 113.524C41.8001 116.293 42.8901 118.722 45.6208 118.839C47.621 118.921 49.8128 117.361 50.6871 115.225C51.1063 114.24 51.0584 113.348 50.8788 112.937C50.735 112.632 50.5075 112.679 50.3398 112.972C49.1421 115.624 47.3216 117.924 45.8484 117.842C44.7465 117.806 44.3033 116.363 44.9022 114.451C45.5011 112.526 47.3575 110.203 49.0583 108.326C50.1601 107.117 49.2499 105.475 48.5193 104.712C48.2558 104.407 47.9564 104.489 47.5012 104.794C46.076 105.709 44.7944 106.296 43.5847 106.437ZM58.58 101.157C58.089 100.171 56.9871 99.7255 56.3882 100.347C55.7894 100.969 55.5977 102.084 56.1966 103.081C56.7595 104.032 57.8255 104.149 58.3046 103.633C58.8076 103.128 59.0831 102.107 58.58 101.157ZM52.4238 118.651C54.5318 118.651 56.9152 117.091 58.053 114.814C58.5082 113.888 58.616 113.113 58.3165 112.526C58.1728 112.221 57.8973 112.198 57.7177 112.526C56.5799 115.073 54.5078 117.501 52.8191 117.584C51.6213 117.666 51.5375 116.211 52.4478 114.087C53.2383 112.245 54.8312 109.746 55.6097 108.103C56.52 106.261 56.2086 104.665 55.6456 104.079C55.3342 103.75 55.0827 103.856 54.7354 104.301C53.3341 106.226 50.8428 110.567 49.8966 113.277C48.8427 116.281 49.5493 118.651 52.4238 118.651ZM64.9279 117.959C66.3532 117.114 67.7665 115.331 68.8923 112.902C70.2936 109.875 71.12 106.589 69.3115 104.712C67.6826 103.058 65.4669 104.09 63.7901 105.475C63.826 104.912 63.7661 104.348 63.5625 103.82C63.3709 103.375 63.0235 103.292 62.6522 103.785C60.2688 106.883 53.9209 118.581 52.7831 122.159C52.0645 124.401 52.2442 125.433 52.8191 126.219C53.0466 126.548 53.3101 126.477 53.4658 126.137C55.2863 122.03 57.2027 118.276 58.9873 115.096C59.0951 116.046 59.5502 116.938 60.2688 117.56C61.5863 118.733 63.1792 119.074 65.5986 118.933C68.3294 118.745 70.8925 117.537 72.3177 114.99C72.9645 113.841 72.8807 112.89 72.8088 112.562C72.725 112.198 72.3177 112.034 72.0902 112.562C70.9044 115.073 68.6288 117.736 64.9279 117.959ZM61.1072 111.435C61.5623 110.661 61.9815 110.004 62.3887 109.335C64.1614 106.484 66.5089 104.642 67.4191 105.088C68.3653 105.533 67.9581 108.584 66.4729 111.541C64.7003 115.084 62.233 117.771 61.0353 116.821C59.9933 115.964 60.173 113.758 61.1072 111.435Z" fill="url(#paint3_linear)"/>
<defs>
<linearGradient id="paint0_linear" x1="11.5878" y1="31.0115" x2="61.1987" y2="31.0115" gradientUnits="userSpaceOnUse">
<stop stop-color="#FDC635"/>
<stop offset="1" stop-color="#FFA901"/>
</linearGradient>
<linearGradient id="paint1_linear" x1="59.213" y1="-16.0006" x2="39.1665" y2="35.672" gradientUnits="userSpaceOnUse">
<stop stop-color="#3A1B5A"/>
<stop offset="0.3726" stop-color="#200F32"/>
</linearGradient>
<linearGradient id="paint2_linear" x1="38.9996" y1="60.7509" x2="-3.86696" y2="-2.88253" gradientUnits="userSpaceOnUse">
<stop stop-color="#3A1B5A"/>
<stop offset="0.6775" stop-color="#200F32"/>
</linearGradient>
<linearGradient id="paint3_linear" x1="0.00229487" y1="110.686" x2="72.8708" y2="110.686" gradientUnits="userSpaceOnUse">
<stop stop-color="#3A1B5A"/>
<stop offset="1" stop-color="#200F32"/>
</linearGradient>
</defs>
</svg>
