<svg width="956" height="625" viewBox="0 0 956 625" fill="none" xmlns="http://www.w3.org/2000/svg">
<g opacity="0.3">
<path opacity="0.23" d="M-78.3202 187.543C-43.6244 103.597 56.4876 63.5979 144.736 98.4228C232.985 133.248 276.593 229.962 241.897 313.908C207.201 397.854 107.089 437.853 18.84 403.028C-69.4087 368.204 -113.016 271.49 -78.3202 187.543ZM-92.6082 154.706C-137.961 264.436 -81.3475 389.994 34.0062 435.515C149.36 481.036 279.33 429.108 324.682 319.378C370.035 209.648 313.422 84.0896 198.068 38.5685C82.9621 -7.5523 -47.2558 44.9758 -92.6082 154.706ZM-106.896 121.868C-50.8872 -13.6453 109.819 -77.8542 252.278 -21.6368C394.736 34.5806 464.738 189.832 408.729 325.345C352.72 460.859 192.014 525.068 49.5548 468.85C-92.6561 412.033 -162.657 256.782 -106.896 121.868ZM-120.936 88.431C-187.602 249.728 -103.965 434.072 64.9688 500.737C233.902 567.402 425.344 490.913 491.762 330.216C558.18 169.518 474.79 -15.426 305.857 -82.0908C136.293 -149.004 -54.5185 -72.2665 -120.936 88.431ZM-135.855 55.3447C-58.7803 -131.136 162.768 -220.155 359.437 -142.545C555.475 -65.1837 652.5 148.854 575.178 335.934C498.104 522.415 276.556 611.434 79.8871 533.824C-116.151 456.463 -212.929 241.826 -135.855 55.3447ZM-150.143 22.5071C-237.874 234.772 -128.09 478.253 95.0532 566.31C318.197 654.368 570.233 553.669 657.964 341.404C745.695 129.139 635.911 -114.342 412.768 -202.399C189.625 -290.457 -62.4116 -189.757 -150.143 22.5071Z" fill="#EC681D"/>
</g>
</svg>
