<svg width="432" height="500" viewBox="0 0 432 500" fill="none" xmlns="http://www.w3.org/2000/svg">
<path d="M-18.0439 461H309.044C317.853 461 325 453.87 325 445.08V256.92C325 248.13 317.853 241 309.044 241H-18.0439C-26.8535 241 -34 248.13 -34 256.92V445.068C-34 453.87 -26.8535 461 -18.0439 461Z" fill="#192533"/>
<path d="M-9.22101 451H300.221C308.377 451 315 444.395 315 436.236V265.764C315 257.617 308.389 251 300.221 251H-9.22101C-17.3766 251 -24 257.605 -24 265.764V436.236C-23.9879 444.395 -17.3766 451 -9.22101 451Z" fill="#292929"/>
<path d="M83 461H154V491H83V461Z" fill="#192533"/>
<path opacity="0.18" d="M83 461H154V468H83V461Z" fill="#020202"/>
<path d="M68.4176 488H168.522C171.311 488 173.906 489.337 175.373 491.539L181 500H56L61.5539 491.562C63.0091 489.36 65.6163 488 68.4176 488Z" fill="#141D26"/>
<path d="M409.198 347.072C413.776 346.399 417.364 344.475 418.794 343.636C418.931 344.268 419 344.887 419 345.395C419.027 346.619 418.78 347.402 418.78 347.402C418.78 347.402 414.807 350.109 409.294 350.934C389.139 353.93 356.213 347.058 356.213 347.058C356.213 347.058 355.045 345.973 354.275 343.361C362.826 344.997 390.885 349.793 409.198 347.072Z" fill="#FFFDFE"/>
<path d="M395.34 350.92C399.918 350.247 403.506 348.323 404.936 347.484C405.073 348.117 405.142 348.735 405.142 349.244C405.17 350.467 404.922 351.25 404.922 351.25C404.922 351.25 400.949 353.958 395.436 354.782C375.282 357.778 342.355 350.907 342.355 350.907C342.355 350.907 341.187 349.821 340.417 347.21C348.968 348.845 377.028 353.641 395.34 350.92Z" fill="#FFFDFE"/>
<path d="M366.538 334.401C366.826 335.047 367.789 335.253 368.669 334.841L376.698 331.102C375.831 330.635 375.007 330.14 374.209 329.673C374.127 329.632 374.058 329.563 373.975 329.536L367.583 332.518C366.703 332.917 366.235 333.769 366.538 334.401Z" fill="#FFFDFE"/>
<path d="M371.295 336.586C371.583 337.232 372.532 337.438 373.425 337.026L381.179 333.411C380.437 333.081 379.722 332.71 379.007 332.339C378.746 332.202 378.498 332.078 378.251 331.941L372.312 334.703C371.446 335.102 370.965 335.954 371.295 336.586Z" fill="#FFFDFE"/>
<path d="M317.703 58.6902C317.167 57.7281 316.494 56.3401 315.655 54.3473C314.459 51.475 314.266 48.2865 315.091 45.2905C316.067 41.786 317.552 37.0033 319.216 33.6637C319.216 33.6637 320.879 24.5244 317.717 15.179C317.717 15.179 297.398 -10.1086 273.215 9.54427C273.215 9.54427 249.706 28.0152 267.936 56.8486L269.957 58.8963L258.257 57.8518L254.573 66.2902L279.979 90.7944L286.894 74.9759C286.894 74.9759 300.491 81.9025 303.213 78.0269C303.213 78.0269 304.739 76.3503 303.516 73.7665C303.516 73.7665 303.557 73.3267 303.625 72.6121C304.189 72.0211 304.712 71.3752 305.179 70.7018C306.925 68.1593 309.578 64.3799 310.28 63.8439C310.981 63.3079 312.108 62.8269 314.459 62.126C316.15 61.6037 318.556 60.2157 317.703 58.6902Z" fill="#EFD4B7"/>
<path d="M317.648 32.6742C318.267 33.9249 319.986 34.0623 320.783 32.9216C322.116 31.025 325.114 25.4315 321.732 12.2517C320.838 8.78843 316.686 4.55551 312.424 2.8376C308.382 1.20215 301.989 -0.694415 295.652 0.25387C294.442 0.432532 293.26 0.776115 292.118 1.22964C290.799 1.73814 287.925 2.56274 283.498 2.2329C279.209 1.9168 274.906 2.57648 270.96 4.28064C265.007 6.85063 259.151 12.5541 256.456 20.0029C256.456 20.0029 251.864 34.4608 253.913 39.6695C253.968 39.807 253.995 39.9444 254.009 40.0818C254.133 42.1845 261.007 53.5365 254.641 65.6305C254.435 66.0291 254.806 66.5101 255.178 66.7712C256.745 67.8707 261.199 70.2895 266.341 66.8674C266.341 66.8674 269.228 65.177 271.648 59.5835C272.995 56.4913 273.504 53.1104 273.27 49.7433C273.105 47.352 273.435 43.9299 275.855 40.9889C275.882 40.9614 275.91 40.9202 275.937 40.8927C276.514 40.3155 282.179 34.7357 284.695 39.6695C284.722 39.7245 284.75 39.7795 284.791 39.8344C285.134 40.3155 287.059 42.858 289.768 44.1498C291.678 45.0706 293.988 44.411 295.17 42.6656C296.243 41.0851 300.505 35.6153 301.151 33.4576C301.302 32.9628 301.22 31.987 301.288 30.8464C301.673 24.2359 310.128 21.6521 314.143 26.9295C315.27 28.3726 316.452 30.2554 317.648 32.6742Z" fill="#192533"/>
<path d="M388.492 311.484C388.492 311.484 389.495 325.364 393.592 332.181L368.035 332.854C368.035 332.854 371.045 324.856 365.67 314.37L388.492 311.484Z" fill="#CCA992"/>
<path d="M388.835 323.55C390.609 323.179 392.094 322.506 393.056 321.722C393.895 322.341 394.926 323.056 396.08 323.825C396.122 323.866 396.177 323.894 396.232 323.935C397.015 324.457 397.881 325.007 398.789 325.584C398.816 325.612 398.844 325.612 398.885 325.639C399.229 325.859 399.586 326.079 399.957 326.299C400.026 326.326 400.109 326.395 400.191 326.436C400.989 326.917 401.813 327.398 402.68 327.866C402.858 327.962 403.051 328.072 403.229 328.168C403.559 328.347 403.889 328.525 404.233 328.704C404.48 328.841 404.728 328.979 404.989 329.103C405.69 329.474 406.419 329.845 407.161 330.175C407.519 330.367 407.89 330.532 408.261 330.711C411.107 332.044 414.145 333.226 417.294 334.105C417.843 334.27 418.393 334.421 418.957 334.559C429.914 337.239 431.578 342.942 431.633 345.966C431.66 347.189 431.413 347.972 431.413 347.972C431.413 347.972 427.467 350.679 421.968 351.504C401.813 354.514 368.887 347.642 368.887 347.642C368.887 347.642 366.289 345.237 366.261 338.929C366.261 338.627 366.261 338.338 366.275 338.022C366.289 337.596 367.691 325.474 368.378 321.997C371.1 322.561 375.404 323.33 383.089 323.894C383.776 323.949 384.408 323.976 384.972 323.976C385.357 323.976 385.728 323.963 386.058 323.963C386.732 323.935 387.337 323.866 387.845 323.756L387.9 323.743L388.107 323.715C388.134 323.701 388.148 323.688 388.175 323.688L388.835 323.55Z" fill="#1E4C56"/>
<path d="M388.45 329.144C388.739 329.776 389.701 329.982 390.581 329.57L399.297 325.529C398.376 324.952 397.524 324.402 396.74 323.88L389.509 327.233C388.629 327.646 388.148 328.484 388.45 329.144Z" fill="#FFFDFE"/>
<path d="M393.015 331.123C393.303 331.769 394.266 331.975 395.146 331.563L403.174 327.824C402.308 327.357 401.483 326.862 400.686 326.395C400.604 326.354 400.535 326.285 400.452 326.258L394.06 329.24C393.18 329.639 392.712 330.491 393.015 331.123Z" fill="#FFFDFE"/>
<path d="M397.771 333.308C398.06 333.954 399.009 334.16 399.902 333.748L407.656 330.133C406.914 329.803 406.199 329.432 405.484 329.061C405.223 328.924 404.975 328.8 404.728 328.663L398.789 331.425C397.923 331.824 397.442 332.676 397.771 333.308Z" fill="#FFFDFE"/>
<path d="M379.968 320.266L391.392 319.235C391.392 319.235 386.264 204.176 361.106 206.348C344.182 207.818 359.827 259.988 359.827 259.988L379.968 320.266Z" fill="#EFA543"/>
<path d="M370.427 190.708H283.773C282.605 190.708 281.656 191.656 281.656 192.824V199.311C281.656 200.479 282.605 201.428 283.773 201.428H370.427C371.595 201.428 372.544 200.479 372.544 199.311V192.824C372.544 191.656 371.595 190.708 370.427 190.708Z" fill="#F4F4F4"/>
<path d="M412.908 121.057L365.78 194.941C365.299 195.683 365.519 196.686 366.275 197.167L367.65 198.047C368.392 198.528 369.396 198.308 369.877 197.552L417.005 123.668C417.486 122.926 417.266 121.923 416.51 121.442L415.135 120.562C414.379 120.081 413.389 120.301 412.908 121.057Z" fill="#F4F4F4"/>
<path d="M374.634 315.332C374.634 315.332 375.637 329.213 379.734 336.029L354.177 336.703C354.177 336.703 357.188 328.704 351.812 318.218L374.634 315.332Z" fill="#DBB89C"/>
<path d="M374.977 327.398C376.751 327.027 378.236 326.354 379.198 325.57C380.037 326.189 381.068 326.904 382.223 327.673C382.264 327.714 382.319 327.742 382.374 327.783C383.157 328.305 384.023 328.855 384.931 329.432C384.958 329.46 384.986 329.46 385.027 329.487C385.371 329.707 385.728 329.927 386.099 330.147C386.168 330.174 386.251 330.243 386.333 330.284C387.131 330.765 387.955 331.246 388.822 331.714C389 331.81 389.193 331.92 389.371 332.016C389.701 332.195 390.031 332.373 390.375 332.552C390.623 332.689 390.87 332.827 391.131 332.951C391.832 333.322 392.561 333.693 393.303 334.023C393.661 334.215 394.032 334.38 394.403 334.559C397.249 335.892 400.287 337.074 403.436 337.953C403.986 338.118 404.535 338.269 405.099 338.407C416.056 341.087 417.72 346.79 417.775 349.814C417.802 351.037 417.555 351.82 417.555 351.82C417.555 351.82 413.609 354.527 408.11 355.352C387.955 358.362 355.029 351.49 355.029 351.49C355.029 351.49 352.431 349.085 352.403 342.777C352.403 342.475 352.403 342.186 352.417 341.87C352.431 341.444 353.833 329.322 354.52 325.845C357.242 326.409 361.546 327.178 369.231 327.742C369.918 327.797 370.55 327.824 371.114 327.824C371.499 327.824 371.87 327.811 372.2 327.811C372.874 327.783 373.479 327.714 373.987 327.604L374.042 327.591L374.249 327.563C374.276 327.55 374.29 327.536 374.317 327.536L374.977 327.398Z" fill="#174652"/>
<path d="M374.592 332.992C374.881 333.624 375.843 333.83 376.723 333.418L385.44 329.377C384.518 328.8 383.666 328.25 382.882 327.728L375.651 331.082C374.771 331.494 374.29 332.332 374.592 332.992Z" fill="#FFFDFE"/>
<path d="M371.719 229.065C369.574 214.827 366.55 202.541 353.462 201.936C334.82 201.07 323.45 201.208 302.649 201.551C300.587 201.593 285.932 202.706 280.433 200.356C250.063 214.937 232.329 219.624 223.021 221.039C223.324 222.991 223.681 224.901 224.107 226.757C225.881 234.535 237.924 243.331 246.063 243.812C259.935 244.637 277.518 243.812 291.294 243.812C307.447 243.881 327.547 243.812 337.184 243.427C337.184 246.547 337.184 248.911 337.184 251.261C337.157 272.975 344.498 321.241 344.897 323.495C362.508 324.457 366.935 322.19 381.494 321.805C383.831 321.736 379.445 287.378 379.184 285.633C376.38 266.392 375.472 248.952 371.719 229.065Z" fill="#E69621"/>
<path d="M337.102 170.038L343.962 177.047L353.654 167.743L346.45 160.143L337.102 170.038Z" fill="#EFD4B7"/>
<path d="M352.169 166.259L343.893 176.786C343.893 176.786 345.392 186.654 347.578 188.963C347.578 188.963 351.18 196.26 357.352 196.906C357.352 196.906 363.017 198.006 362.315 194.982C362.315 194.982 369.629 194.446 367.086 189.554C367.086 189.554 374.977 188.921 370.935 182.613C370.935 182.613 376.476 180.95 371.472 176.607C371.472 176.607 370.276 175.645 368.557 171.852C368.557 171.852 366.385 167.592 360.968 168.128C360.968 168.128 357.256 169.475 352.169 166.259Z" fill="#EFD4B7"/>
<path d="M233.69 114.9C237.993 100.085 239.546 97.3637 247.933 78.7278C252.373 69.8497 251.012 71.8562 255.948 62.9506C261.254 67.4034 265.64 71.4027 272.72 77.5459C282.096 86.6577 282.096 86.6577 283.512 88.3618C291.83 98.4631 293.191 110.488 297.439 121.002C301.508 125.991 309.111 132.382 309.111 132.382L353.242 164.802L339.205 185.431L288.365 151.375C288.365 151.375 286.454 150.179 284.323 147.98L279.168 199.641C279.498 199.916 279.938 200.163 280.433 200.369C250.063 214.951 232.329 219.637 223.021 221.053C222.403 217.136 221.976 213.082 221.701 209C221.275 202.912 221.138 196.796 221.028 191.175C220.547 164.953 226.376 140.064 233.69 114.9Z" fill="#EC681D"/>
<path d="M347.248 160.528L333.555 179.603C332.606 180.923 332.909 182.764 334.228 183.713L338.545 186.805C339.865 187.753 341.707 187.451 342.656 186.131L356.349 167.056C357.297 165.736 356.995 163.895 355.675 162.947L351.358 159.854C350.039 158.906 348.196 159.208 347.248 160.528Z" fill="white"/>
<path d="M253 426.877C253 436.32 248.63 444.825 241.557 451H-3.37265C-13.329 446.051 -20 437.152 -20 426.877C-20 416.173 -12.7764 406.897 -2.1369 402.141C-0.097414 388.205 14.2393 377.432 31.6402 377.432C40.8029 377.432 49.1216 380.436 55.24 385.306C55.5816 371.274 64.6036 359.002 77.9657 352.301L95.3868 258H119.027L137.603 361.595C143.933 368.304 147.74 376.845 147.74 386.121C147.74 387.023 147.69 387.925 147.62 388.81C153.487 382.889 162.399 379.122 172.375 379.122C185.185 379.122 196.216 385.341 201.34 394.319C205.208 393.216 209.337 392.576 213.627 392.576C235.378 392.585 253 407.922 253 426.877Z" fill="white"/>
<path opacity="0.4" d="M125 433.412C125 439.659 127.629 445.455 132.144 450.288C132.364 450.529 132.595 450.759 132.826 451H202.164C207.09 446.037 210 439.96 210 433.412C210 416.617 190.967 403 167.5 403C159.243 403 151.537 404.685 145.016 407.602C137.401 411.002 131.421 416.075 128.04 422.102C126.084 425.591 125 429.412 125 433.412Z" fill="#EC681D"/>
<path opacity="0.4" d="M5 437.993C5 442.731 6.80512 447.175 9.96664 451H74.0334C77.1949 447.175 79 442.731 79 437.993C79 426.153 67.7307 416.17 52.3208 413.025C49.0471 412.355 45.5899 412 42.0102 412C21.5725 412 5 423.637 5 437.993Z" fill="#EC681D"/>
<path opacity="0.36" d="M107 451H202C200.692 442.486 193.909 435.788 185.369 434.577C184.206 428.255 179.458 423.18 173.317 421.533C171.936 421.158 170.483 420.964 168.981 420.964C166.267 420.964 163.7 421.618 161.435 422.769C159.133 419.922 156.19 417.633 152.822 416.095C149.843 414.751 146.536 414 143.072 414C131.928 414 122.589 421.727 120.118 432.106C116.739 432.518 114.098 435.34 114.013 438.816C110.319 441.795 107.751 446.095 107 451Z" fill="white"/>
<path opacity="0.4" d="M108.001 261.729L114.358 261.428L117.606 329.954L111.25 330.255L108.001 261.729Z" fill="#EC681D"/>
<path opacity="0.4" d="M99.9564 330.925L93.5996 330.624L96.8481 262.098L103.205 262.399L99.9564 330.925Z" fill="#EC681D"/>
<path opacity="0.4" d="M52 416.929C52 430.342 57.5692 442.445 66.5019 451H130.498C130.748 450.768 130.997 450.526 131.237 450.285C137.604 443.906 142.156 435.693 144.042 426.482C144.671 423.399 145 420.204 145 416.939C145 413.674 144.671 410.48 144.042 407.396C139.67 386.053 120.947 370 98.5 370C74.0373 370 53.9862 389.076 52.1497 413.291C52.0399 414.491 52 415.7 52 416.929Z" fill="#EC681D"/>
<path d="M113.057 250.276V228.635C106.671 228.635 102.221 233.481 102.221 239.456C102.221 245.43 107.725 250.276 113.057 250.276Z" fill="#B3B2B3"/>
<path d="M79.9382 116.312H104.479H128.998C139.736 146.098 138.113 186.04 138.113 186.04C136.898 248.643 118.764 255.155 118.764 255.155H104.479H90.1822C90.1822 255.155 72.0483 248.632 70.8337 186.04C70.8229 186.029 69.1998 146.098 79.9382 116.312Z" fill="#71CCAD"/>
<path d="M137.962 191.52C137.962 191.52 171.199 215.902 146.422 271.058C146.422 271.058 139.521 251.63 120.473 253.887C120.484 253.876 136.092 244.012 137.962 191.52Z" fill="#EC681D"/>
<path d="M71.0378 191.52C71.0378 191.52 37.8012 215.902 62.5781 271.058C62.5781 271.058 69.3716 251.609 88.4193 253.855C88.4193 253.855 72.9189 244.012 71.0378 191.52Z" fill="#EC681D"/>
<path d="M70.8121 184.868C71.844 249.062 90.2789 254.962 90.2789 254.962L104.479 254.8L104.382 116.301H79.7017C69.2212 145.572 70.8121 184.868 70.8121 184.868Z" fill="#51A888"/>
<path d="M104.371 84.2472C104.371 84.2472 104.479 84.2579 104.522 84.2579C104.608 84.2579 104.758 84.0538 104.758 84.0538C106.951 84.4943 120.258 88.1156 126.665 111.519H104.769H104.468H103.468V84.5481C104.006 84.4406 104.178 84.2902 104.371 84.2472Z" fill="#EC681D"/>
<path d="M104.651 84L104.468 111.519H82.5717C88.4086 90.2432 101.243 85.0853 104.651 84Z" fill="#EC681D"/>
<path d="M103.64 170.448C108.359 170.448 112.197 174.284 112.197 179.001C112.197 183.719 108.359 187.555 103.64 187.555C98.9213 187.555 95.0838 183.719 95.0838 179.001C95.0731 174.284 98.9213 170.448 103.64 170.448ZM97.9216 182.107C98.0184 182.289 98.1259 182.472 98.2441 182.644C98.2979 182.73 98.3624 182.816 98.4269 182.902C98.5558 183.074 98.6848 183.224 98.8246 183.386C99.1793 183.772 99.5663 184.116 100.007 184.406C100.265 184.578 100.544 184.739 100.824 184.879C101.673 185.287 102.63 185.524 103.64 185.524C104.651 185.524 105.607 185.298 106.457 184.879C106.736 184.739 107.015 184.589 107.273 184.406C107.531 184.234 107.779 184.041 108.015 183.826C108.166 183.686 108.316 183.536 108.456 183.386C108.596 183.235 108.725 183.074 108.854 182.902C108.918 182.816 108.972 182.73 109.036 182.644C109.155 182.472 109.262 182.289 109.359 182.107C109.864 181.183 110.143 180.13 110.143 179.012C110.143 177.669 109.735 176.412 109.036 175.38C108.983 175.294 108.918 175.208 108.854 175.122C108.725 174.95 108.596 174.8 108.456 174.639C108.316 174.488 108.166 174.338 108.015 174.198C107.789 173.983 107.542 173.79 107.273 173.618C107.015 173.446 106.736 173.285 106.457 173.145C106.263 173.059 106.07 172.973 105.876 172.898C105.672 172.823 105.468 172.758 105.263 172.704C104.747 172.575 104.199 172.5 103.64 172.5C103.081 172.5 102.533 172.575 102.017 172.704C101.813 172.758 101.609 172.823 101.404 172.898C101.2 172.973 101.007 173.048 100.824 173.145C100.544 173.285 100.265 173.435 100.007 173.618C99.577 173.908 99.1793 174.252 98.8246 174.639C98.6848 174.789 98.5558 174.95 98.4269 175.122C98.3624 175.208 98.3086 175.294 98.2441 175.38C97.5454 176.422 97.137 177.669 97.137 179.012C97.1262 180.13 97.4164 181.183 97.9216 182.107Z" fill="#F6F4F4"/>
<path d="M103.715 138.931C107.381 138.931 110.369 141.908 110.369 145.583C110.369 149.247 107.392 152.234 103.715 152.234C100.05 152.234 97.0616 149.258 97.0616 145.583C97.0724 141.908 100.05 138.931 103.715 138.931ZM99.276 147.979C99.3512 148.119 99.4372 148.258 99.534 148.398C99.577 148.463 99.6307 148.527 99.6737 148.592C99.7704 148.72 99.8779 148.849 99.9854 148.968C100.254 149.268 100.566 149.537 100.899 149.763C101.103 149.902 101.308 150.021 101.533 150.128C102.2 150.45 102.941 150.622 103.726 150.622C104.511 150.622 105.253 150.44 105.919 150.128C106.145 150.021 106.349 149.902 106.553 149.763C106.757 149.623 106.951 149.473 107.123 149.311C107.241 149.204 107.359 149.086 107.467 148.968C107.574 148.849 107.682 148.72 107.779 148.592C107.832 148.527 107.875 148.463 107.918 148.398C108.004 148.258 108.09 148.129 108.176 147.979C108.563 147.259 108.789 146.442 108.789 145.572C108.789 144.53 108.467 143.552 107.929 142.746C107.886 142.681 107.832 142.617 107.789 142.553C107.693 142.424 107.585 142.295 107.478 142.176C107.37 142.058 107.252 141.94 107.134 141.833C106.951 141.671 106.768 141.521 106.564 141.381C106.36 141.242 106.156 141.123 105.93 141.016C105.779 140.941 105.629 140.876 105.478 140.822C105.328 140.769 105.167 140.715 105.005 140.672C104.597 140.565 104.178 140.511 103.748 140.511C103.307 140.511 102.888 140.565 102.49 140.672C102.329 140.715 102.168 140.758 102.017 140.822C101.867 140.876 101.716 140.941 101.566 141.016C101.34 141.123 101.136 141.242 100.931 141.381C100.598 141.607 100.286 141.876 100.018 142.176C99.9102 142.295 99.8027 142.424 99.7059 142.553C99.6522 142.617 99.6092 142.681 99.5662 142.746C99.018 143.552 98.7063 144.519 98.7063 145.572C98.6633 146.442 98.889 147.27 99.276 147.979Z" fill="#F6F4F4"/>
<path d="M104.307 255.155H118.711C118.711 255.155 116.786 265.621 104.307 267.974C91.8268 265.621 90.0424 255.155 90.0424 255.155H104.307Z" fill="#73BCC4"/>
<path d="M90.0531 255.155H104.317H104.543V267.77C104.543 267.77 104.414 267.878 104.393 267.878C91.9128 265.524 90.0531 255.155 90.0531 255.155Z" fill="#5E9BA3"/>
</svg>
