<svg width="73" height="73" viewBox="0 0 73 73" fill="none" xmlns="http://www.w3.org/2000/svg">
<path d="M68.7227 50.7578H64.1602V13.288H64.6298C65.1484 13.288 65.626 13.0064 65.8772 12.5529C66.1284 12.0993 66.1135 11.5451 65.8383 11.1056L61.0913 3.5251C60.8307 3.10892 60.3741 2.85612 59.883 2.85612C59.3918 2.85612 58.9352 3.10892 58.6746 3.5251L53.9276 11.1056C53.6523 11.5451 53.6375 12.0993 53.8887 12.5529C54.1399 13.0064 54.6175 13.288 55.1361 13.288H55.6055V40.9199C55.6055 41.7072 56.2438 42.3457 57.0312 42.3457C57.8187 42.3457 58.457 41.7072 58.457 40.9199V11.8622C58.457 11.2883 58.1178 10.7934 57.6289 10.5673L59.8828 6.96822L62.1367 10.5673C61.6478 10.7934 61.3086 11.2883 61.3086 11.8622V50.7578H51.043C48.6844 50.7578 46.7656 52.6766 46.7656 55.0352V55.5655C46.3194 55.4073 45.8397 55.3203 45.3398 55.3203H38.9328V39.6145C38.9328 35.6836 35.7348 32.4856 31.8039 32.4856H30.1181V30.7483C30.7177 31.017 31.3813 31.1679 32.0798 31.1679H39.4769C41.8056 31.1679 43.7002 29.2734 43.7002 26.9447C43.7002 24.616 41.8056 22.7214 39.4769 22.7214H35.8109V21.1171C35.8109 16.8047 32.8939 13.163 28.9301 12.0551C29.8338 10.9221 30.3758 9.48843 30.3758 7.92977V6.62903C30.376 2.97361 27.4022 0 23.7471 0C20.092 0 17.1182 2.97361 17.1182 6.62888V7.92963C17.1182 9.46063 17.6413 10.8709 18.5163 11.9944C14.4403 13.0265 11.4151 16.7247 11.4151 21.1171V28.5054C11.4151 31.9456 13.8689 34.8233 17.1182 35.4809V43.5576C17.1182 44.3449 17.7565 44.9834 18.544 44.9834C19.3315 44.9834 19.9698 44.3449 19.9698 43.5576V35.3371H28.6923H31.8039C34.1624 35.3371 36.0812 37.2559 36.0812 39.6145V55.3203H32.6594V41.3358C32.6594 40.5485 32.021 39.91 31.2336 39.91H24.8086C24.0211 39.91 23.3828 40.5485 23.3828 41.3358V59.5977V62.1641H21.957H19.9698V55.1777C19.9698 54.3904 19.3315 53.752 18.544 53.752C17.7565 53.752 17.1182 54.3904 17.1182 55.1777V62.1641H4.27734C1.91882 62.1641 0 64.0829 0 66.4414V71.5742C0 72.3615 0.638322 73 1.42578 73H71.5742C72.3617 73 73 72.3615 73 71.5742V55.0352C73 52.6766 71.0812 50.7578 68.7227 50.7578ZM19.9698 6.62888C19.9698 4.5461 21.6643 2.85156 23.7471 2.85156C25.8299 2.85156 27.5244 4.5461 27.5244 6.62888V7.92963C27.5244 10.0123 25.8299 11.7068 23.7471 11.7068C21.6643 11.7068 19.9698 10.0123 19.9698 7.92963V6.62888ZM28.6923 21.1391C27.9048 21.1391 27.2665 21.7775 27.2665 22.5648V32.4856H19.9698V22.5648C19.9698 21.7774 19.3315 21.1391 18.544 21.1391C17.7565 21.1391 17.1182 21.7775 17.1182 22.5648V32.5289C15.4593 31.9442 14.2667 30.3619 14.2667 28.5054V21.1171C14.2667 17.5008 17.2089 14.5585 20.8252 14.5585H26.4008C30.0173 14.5585 32.9594 17.5008 32.9594 21.1171V24.1472C32.9594 24.9345 33.5977 25.573 34.3851 25.573H39.4769C40.2333 25.573 40.8486 26.1883 40.8486 26.9447C40.8486 27.7011 40.2333 28.3163 39.4769 28.3163H32.0798C30.9982 28.3163 30.1181 27.4363 30.1181 26.3547V22.5648C30.1181 21.7775 29.4797 21.1391 28.6923 21.1391ZM23.3828 70.1484H2.85156V66.4414C2.85156 65.6552 3.49117 65.0156 4.27734 65.0156H21.957C22.7432 65.0156 23.3828 65.6552 23.3828 66.4414V70.1484ZM26.2344 42.7616H29.8078V55.3203H27.6602C27.1603 55.3203 26.6806 55.4073 26.2344 55.5655V42.7616ZM46.7656 70.1484H26.2344V59.5977C26.2344 58.8115 26.874 58.1719 27.6602 58.1719H45.3398C46.126 58.1719 46.7656 58.8115 46.7656 59.5977V70.1484ZM70.1484 70.1484H49.6172V59.5977V55.0352C49.6172 54.249 50.2568 53.6094 51.043 53.6094H68.7227C69.5088 53.6094 70.1484 54.249 70.1484 55.0352V70.1484Z" fill="#EC681D"/>
<path d="M19.5517 48.0943C19.2865 47.8292 18.9187 47.6765 18.5437 47.6765C18.1687 47.6765 17.8023 47.8291 17.5357 48.0943C17.2705 48.3595 17.1179 48.7273 17.1179 49.1023C17.1179 49.4773 17.2705 49.8451 17.5357 50.1103C17.8009 50.3754 18.1687 50.5281 18.5437 50.5281C18.9187 50.5281 19.2865 50.3755 19.5517 50.1103C19.8169 49.8451 19.9695 49.4773 19.9695 49.1023C19.9695 48.7273 19.8169 48.3595 19.5517 48.0943Z" fill="#EC681D"/>
<path d="M58.0393 45.3299C57.7741 45.0647 57.4062 44.9121 57.0312 44.9121C56.6563 44.9121 56.2884 45.0645 56.0232 45.3299C55.758 45.5951 55.6055 45.9629 55.6055 46.3379C55.6055 46.7129 55.758 47.0807 56.0232 47.3458C56.2884 47.611 56.6563 47.7637 57.0312 47.7637C57.4062 47.7637 57.7741 47.6111 58.0393 47.3458C58.3045 47.0807 58.457 46.7129 58.457 46.3379C58.457 45.9629 58.3045 45.5951 58.0393 45.3299Z" fill="#EC681D"/>
</svg>
