<svg width="613" height="641" viewBox="0 0 613 641" fill="none" xmlns="http://www.w3.org/2000/svg">
<path d="M298.282 417.67H367.281L396.964 484.705V640.901H255.25V612.612C255.25 612.612 198.981 572.765 194.925 540.843C194.925 540.843 213.513 538.256 265.783 537.541C318.053 536.825 322.39 508.977 351.284 493.401L341.259 460.764C341.315 460.764 299.803 461.865 298.282 417.67Z" fill="#E2C59D"/>
<path d="M206.866 375.18C203.092 381.4 192.785 382.17 183.773 376.997L160.003 363.237C150.991 358.009 146.767 348.763 150.541 342.598L152.794 338.856C156.568 332.637 166.875 331.866 175.887 337.04L199.657 350.799C208.669 356.028 212.893 365.219 209.119 371.438L206.866 375.18Z" fill="#F9D5A5"/>
<path opacity="0.2" d="M195.432 543.54C196.221 547.117 197.572 550.805 199.431 554.547H347.905L353.875 525.708H314.448L310.392 526.038C300.141 532.532 286.905 537.211 265.895 537.486C229.115 537.981 209.007 539.412 200.332 540.238L195.432 543.54Z" fill="black"/>
<path opacity="0.1" d="M199.657 350.799L191.658 346.176V379.969C198.136 381.29 204.219 379.584 206.866 375.181L209.119 371.438C212.893 365.274 208.612 356.028 199.657 350.799Z" fill="black"/>
<path fill-rule="evenodd" clip-rule="evenodd" d="M369.984 539.412C369.984 544.971 365.366 549.484 359.677 549.484H205.176C199.488 549.484 194.869 544.971 194.869 539.412V261.804C194.869 256.245 199.488 251.732 205.176 251.732H359.677C365.366 251.732 369.984 256.245 369.984 261.804V539.412Z" fill="#0B2E44"/>
<path opacity="0.8" d="M353.819 287.011H210.978V490.594H353.819V287.011Z" fill="#39C3DE"/>
<path opacity="0.1" fill-rule="evenodd" clip-rule="evenodd" d="M353.819 287.011H351.172L210.978 482.393V490.594H353.819V287.011Z" fill="black"/>
<path d="M353.819 287.011H210.978V490.594H353.819V287.011Z" fill="#EFEFEF"/>
<path d="M353.819 287.011H210.978V315.795H353.819V287.011Z" fill="#4DABCF"/>
<path d="M353.819 341.333H210.978V393.288H353.819V341.333Z" fill="#FFC11D"/>
<path d="M235.029 406.222H219.708V421.192H235.029V406.222Z" fill="#EC681D"/>
<path d="M235.029 434.841H219.708V449.811H235.029V434.841Z" fill="#EC681D"/>
<path d="M235.029 463.956H219.708V478.926H235.029V463.956Z" fill="#EC681D"/>
<path d="M317.377 406.222H246.012V407.818H317.377V406.222Z" fill="#0093A2"/>
<path d="M317.377 410.185H246.012V412.111H317.377V410.185Z" fill="#0093A2"/>
<path d="M317.377 415.138H246.012V416.734H317.377V415.138Z" fill="#0093A2"/>
<path d="M317.377 419.541H246.012V421.137H317.377V419.541Z" fill="#0093A2"/>
<path d="M317.377 434.841H246.012V436.437H317.377V434.841Z" fill="#0093A2"/>
<path d="M317.377 438.804H246.012V440.73H317.377V438.804Z" fill="#0093A2"/>
<path d="M317.377 443.757H246.012V445.354H317.377V443.757Z" fill="#0093A2"/>
<path d="M317.377 448.161H246.012V449.756H317.377V448.161Z" fill="#0093A2"/>
<path d="M317.377 463.956H246.012V465.552H317.377V463.956Z" fill="#0093A2"/>
<path d="M317.377 467.919H246.012V469.845H317.377V467.919Z" fill="#0093A2"/>
<path d="M317.377 472.927H246.012V474.523H317.377V472.927Z" fill="#0093A2"/>
<path d="M317.377 477.33H246.012V478.927H317.377V477.33Z" fill="#0093A2"/>
<path d="M411.496 484.705L381.813 417.67H312.871C314.335 461.865 355.903 460.764 355.903 460.764L365.929 493.401C336.978 508.977 331.796 550.309 331.796 550.309C331.796 550.309 321.826 606.668 358.776 640.901H411.496V484.705Z" fill="#F9D5A5"/>
<path d="M206.866 421.962C203.092 428.181 194.925 430.218 188.56 426.53L171.832 416.844C165.467 413.156 163.383 405.176 167.157 398.957L169.41 395.214C173.184 388.995 181.351 386.959 187.716 390.646L204.444 400.333C210.809 404.02 212.893 412.001 209.119 418.22L206.866 421.962Z" fill="#F9D5A5"/>
<path opacity="0.5" d="M202.585 402.369L200.952 401.434L188.11 423.008L189.574 423.834C194.756 426.861 201.459 425.154 204.557 420.091L206.416 417.009C209.513 411.891 207.767 405.341 202.585 402.369Z" fill="white"/>
<path d="M206.866 465.057C203.092 471.276 194.925 473.312 188.56 469.625L171.832 459.938C165.467 456.251 163.383 448.27 167.157 442.051L169.41 438.309C173.184 432.089 181.351 430.053 187.716 433.74L204.444 443.427C210.809 447.115 212.893 455.095 209.119 461.314L206.866 465.057Z" fill="#F9D5A5"/>
<path opacity="0.5" d="M202.585 445.463L200.952 444.528L188.11 466.102L189.574 466.928C194.756 469.955 201.459 468.249 204.557 463.185L206.416 460.103C209.513 455.04 207.767 448.49 202.585 445.463Z" fill="white"/>
<path d="M203.543 504.738C200.445 509.857 193.742 511.508 188.504 508.481L174.704 500.5C169.466 497.473 167.776 490.924 170.874 485.806L172.733 482.724C175.831 477.605 182.534 475.954 187.772 478.981L201.572 486.961C206.81 489.988 208.5 496.538 205.402 501.656L203.543 504.738Z" fill="#F9D5A5"/>
<path opacity="0.5" d="M199.995 488.613L198.643 487.842L188.054 505.564L189.236 506.28C193.517 508.756 199.037 507.38 201.572 503.198L203.092 500.666C205.74 496.483 204.275 491.089 199.995 488.613Z" fill="white"/>
<path opacity="0.5" d="M342.723 418.495C342.723 418.22 342.723 417.945 342.667 417.67H316.644C316.588 417.945 316.588 418.22 316.588 418.495C316.588 423.779 322.446 428.072 329.655 428.072C336.865 428.072 342.723 423.779 342.723 418.495Z" fill="white"/>
<path d="M258.46 360.486V376.116C258.46 381.95 263.304 386.683 269.275 386.683H295.522C301.493 386.683 306.337 381.95 306.337 376.116V360.486H258.46Z" fill="#EC681D"/>
<path opacity="0.7" d="M263.811 379.694C263.811 380.299 263.304 380.794 262.685 380.794C262.065 380.794 261.558 380.299 261.558 379.694V364.889C261.558 364.283 262.065 363.788 262.685 363.788C263.304 363.788 263.811 364.283 263.811 364.889V379.694Z" fill="white"/>
<path d="M266.064 379.694C266.064 380.299 265.557 380.794 264.938 380.794C264.318 380.794 263.811 380.299 263.811 379.694V364.889C263.811 364.283 264.318 363.788 264.938 363.788C265.557 363.788 266.064 364.283 266.064 364.889V379.694Z" fill="#CD530E"/>
<path d="M274.851 379.694C274.851 380.299 274.344 380.794 273.724 380.794C273.105 380.794 272.598 380.299 272.598 379.694V364.889C272.598 364.283 273.105 363.788 273.724 363.788C274.344 363.788 274.851 364.283 274.851 364.889V379.694Z" fill="#CD530E"/>
<path d="M283.638 379.694C283.638 380.299 283.131 380.794 282.511 380.794C281.892 380.794 281.385 380.299 281.385 379.694V364.889C281.385 364.283 281.892 363.788 282.511 363.788C283.131 363.788 283.638 364.283 283.638 364.889V379.694Z" fill="#CD530E"/>
<path d="M293.044 379.694C293.044 380.299 292.537 380.794 291.918 380.794C291.298 380.794 290.791 380.299 290.791 379.694V364.889C290.791 364.283 291.298 363.788 291.918 363.788C292.537 363.788 293.044 364.283 293.044 364.889V379.694Z" fill="#CD530E"/>
<path d="M302.225 379.694C302.225 380.299 301.718 380.794 301.099 380.794C300.479 380.794 299.972 380.299 299.972 379.694V364.889C299.972 364.283 300.479 363.788 301.099 363.788C301.718 363.788 302.225 364.283 302.225 364.889V379.694Z" fill="#CD530E"/>
<path opacity="0.7" d="M272.598 379.694C272.598 380.299 272.091 380.794 271.471 380.794C270.852 380.794 270.345 380.299 270.345 379.694V364.889C270.345 364.283 270.852 363.788 271.471 363.788C272.091 363.788 272.598 364.283 272.598 364.889V379.694Z" fill="white"/>
<path opacity="0.7" d="M281.385 379.694C281.385 380.299 280.878 380.794 280.258 380.794C279.639 380.794 279.132 380.299 279.132 379.694V364.889C279.132 364.283 279.639 363.788 280.258 363.788C280.878 363.788 281.385 364.283 281.385 364.889V379.694Z" fill="white"/>
<path opacity="0.7" d="M290.791 379.694C290.791 380.299 290.284 380.794 289.664 380.794C289.045 380.794 288.538 380.299 288.538 379.694V364.889C288.538 364.283 289.045 363.788 289.664 363.788C290.284 363.788 290.791 364.283 290.791 364.889V379.694Z" fill="white"/>
<path opacity="0.7" d="M299.972 379.694C299.972 380.299 299.465 380.794 298.845 380.794C298.226 380.794 297.719 380.299 297.719 379.694V364.889C297.719 364.283 298.226 363.788 298.845 363.788C299.465 363.788 299.972 364.283 299.972 364.889V379.694Z" fill="white"/>
<path d="M310.223 358.064C310.223 359.55 308.984 360.761 307.463 360.761H257.277C255.757 360.761 254.517 359.55 254.517 358.064C254.517 356.578 255.757 355.367 257.277 355.367H307.463C308.984 355.367 310.223 356.578 310.223 358.064Z" fill="#CD530E"/>
<path d="M302.338 349.478C302.563 350.524 301.831 351.57 300.761 351.79L264.769 358.89C263.698 359.11 262.628 358.394 262.403 357.349C262.178 356.303 262.91 355.257 263.98 355.037L299.972 347.937C301.099 347.772 302.112 348.432 302.338 349.478Z" fill="#CD530E"/>
<path d="M612.521 281.947L475.763 362.577L390.712 199.501L532.652 128.833L612.521 281.947Z" fill="#953E0D"/>
<path d="M522.617 154.269L380.691 224.932L465.742 388.034L607.668 317.371L522.617 154.269Z" fill="#EC681D"/>
<path d="M534.004 131.365L508.32 154.041L522.626 154.316L598.834 300.44L612.521 281.947L534.004 131.365Z" fill="#CD530E"/>
<path d="M390.712 199.502C390.712 199.502 395.106 210.564 380.686 224.984L405.976 212.38L405.413 202.419L390.712 199.502Z" fill="#CD530E"/>
<path d="M405.47 202.418L380.686 224.984L405.976 212.38L405.47 202.418Z" fill="#953E0D"/>
<path d="M508.32 154.041L511.417 159.875L522.626 154.316L508.32 154.041Z" fill="#953E0D"/>
<path opacity="0.4" d="M437.8 225.369C437.8 227.791 435.773 229.772 433.294 229.772C430.816 229.772 428.788 227.791 428.788 225.369C428.788 222.947 430.816 220.966 433.294 220.966C435.773 220.966 437.8 222.947 437.8 225.369Z" fill="black"/>
<path opacity="0.4" d="M498.688 193.777C498.688 196.199 496.66 198.18 494.182 198.18C491.704 198.18 489.676 196.199 489.676 193.777C489.676 191.356 491.704 189.375 494.182 189.375C496.66 189.375 498.688 191.356 498.688 193.777Z" fill="black"/>
<path d="M496.041 194.988C496.041 193.998 495.196 193.227 494.238 193.227C493.224 193.227 492.38 194.053 492.38 194.988C492.38 195.099 492.38 195.154 492.38 195.209C492.436 216.288 487.479 229.442 477.679 234.285C461.626 242.265 437.181 225.864 434.59 224.103C434.252 223.773 433.801 223.553 433.294 223.553C432.28 223.553 431.492 224.378 431.492 225.314C431.492 226.029 431.886 226.58 432.506 226.91C434.759 228.506 451.713 239.954 467.653 239.954C471.708 239.954 475.707 239.238 479.368 237.422C490.464 231.918 496.097 217.719 496.097 195.209C495.984 195.154 496.041 195.043 496.041 194.988Z" fill="#EFEFEF"/>
<path d="M17.1623 175.56L1.44753 231.148C-4.41031 251.897 8.03759 273.362 29.2723 279.086L122.547 304.238C143.782 309.961 165.749 297.798 171.606 277.049L187.321 221.461L17.1623 175.56Z" fill="#EC681D"/>
<path opacity="0.7" d="M16.8244 248.925C16.2048 251.071 13.9518 252.337 11.6988 251.732C9.50209 251.126 8.20662 248.925 8.8262 246.723L23.7524 193.998C24.372 191.851 26.625 190.585 28.878 191.191C31.0747 191.796 32.3702 193.998 31.7506 196.199L16.8244 248.925Z" fill="white"/>
<path opacity="0.7" d="M24.8226 251.071C24.203 253.218 21.95 254.484 19.697 253.878C17.5003 253.273 16.2048 251.071 16.8244 248.87L31.7506 196.144C32.3702 193.998 34.6232 192.732 36.8762 193.337C39.0729 193.943 40.3684 196.144 39.8052 198.346L24.8226 251.071Z" fill="#CD530E"/>
<path opacity="0.7" d="M56.0832 259.492C55.4636 261.638 53.2106 262.904 50.9576 262.299C48.7609 261.694 47.4654 259.492 48.085 257.291L63.0112 204.565C63.6308 202.418 65.8838 201.152 68.1368 201.758C70.3335 202.363 71.629 204.565 71.0094 206.766L56.0832 259.492Z" fill="#CD530E"/>
<path opacity="0.7" d="M87.2874 267.968C86.6678 270.114 84.4148 271.38 82.1618 270.775C79.9651 270.169 78.6696 267.968 79.2892 265.767L94.2154 213.041C94.835 210.894 97.088 209.628 99.341 210.234C101.538 210.839 102.833 213.041 102.214 215.242L87.2874 267.968Z" fill="#CD530E"/>
<path opacity="0.7" d="M120.688 276.939C120.069 279.086 117.816 280.351 115.563 279.746C113.366 279.141 112.07 276.939 112.69 274.738L127.616 222.012C128.236 219.865 130.489 218.599 132.742 219.205C134.939 219.81 136.234 222.012 135.615 224.213L120.688 276.939Z" fill="#CD530E"/>
<path opacity="0.7" d="M153.526 285.8C152.906 287.947 150.653 289.212 148.4 288.607C146.204 288.002 144.908 285.8 145.528 283.599L160.454 230.873C161.074 228.726 163.327 227.461 165.58 228.066C167.776 228.671 169.072 230.873 168.452 233.074L153.526 285.8Z" fill="#CD530E"/>
<path opacity="0.7" d="M48.0286 257.346C47.409 259.492 45.0997 260.758 42.903 260.152C40.7063 259.547 39.4108 257.346 40.0304 255.144L54.9566 202.418C55.5762 200.272 57.8292 199.006 60.0822 199.611C62.2789 200.217 63.5744 202.418 62.9548 204.62L48.0286 257.346Z" fill="white"/>
<path opacity="0.7" d="M79.2891 265.766C78.6696 267.913 76.3602 269.179 74.1636 268.573C71.9669 267.968 70.6714 265.766 71.291 263.565L86.2171 210.839C86.8367 208.693 89.0897 207.427 91.3427 208.032C93.5394 208.638 94.8349 210.839 94.2153 213.041L79.2891 265.766Z" fill="white"/>
<path opacity="0.7" d="M112.69 274.793C112.071 276.939 109.761 278.205 107.565 277.6C105.368 276.994 104.072 274.793 104.692 272.591L119.618 219.866C120.238 217.719 122.491 216.453 124.744 217.059C126.941 217.664 128.236 219.866 127.616 222.067L112.69 274.793Z" fill="white"/>
<path opacity="0.7" d="M145.528 283.654C144.908 285.8 142.655 287.066 140.402 286.461C138.206 285.855 136.91 283.654 137.53 281.452L152.456 228.727C153.076 226.58 155.329 225.314 157.582 225.92C159.778 226.525 161.074 228.727 160.454 230.928L145.528 283.654Z" fill="white"/>
<path d="M203.599 216.508C202.135 221.736 196.559 224.819 191.208 223.388L12.8253 175.23C7.47438 173.799 4.32016 168.35 5.78462 163.122C7.24908 157.893 12.8253 154.811 18.1762 156.242L196.559 204.4C201.966 205.831 205.12 211.279 203.599 216.508Z" fill="#CD530E"/>
<path d="M184.223 178.587C183.942 182.55 180.393 185.522 176.338 185.247L41.3259 175.89C37.2705 175.615 34.2289 172.148 34.5106 168.185C34.7922 164.222 38.3407 161.25 42.3961 161.526L177.408 170.882C181.464 171.157 184.505 174.625 184.223 178.587Z" fill="#CD530E"/>
<path d="M340.076 303.742C340.076 305.944 338.217 307.76 335.964 307.76H227.65C225.397 307.76 223.538 305.944 223.538 303.742V301.651C223.538 299.449 225.397 297.633 227.65 297.633H335.964C338.217 297.633 340.076 299.449 340.076 301.651V303.742Z" fill="#EAE8E8"/>
<path d="M335.964 297.633H315.968V307.76H335.964C338.217 307.76 340.076 305.944 340.076 303.742V301.651C340.076 299.449 338.217 297.633 335.964 297.633Z" fill="#0898AF"/>
<path d="M230.466 301.376C230.41 301.486 230.297 301.596 230.185 301.706C230.072 301.816 229.96 301.926 229.847 302.036C229.734 302.146 229.622 302.256 229.509 302.366C229.396 302.476 229.284 302.586 229.171 302.697C229.284 302.752 229.396 302.862 229.565 302.972C229.678 303.082 229.847 303.192 229.96 303.357C230.072 303.467 230.185 303.632 230.297 303.742C230.41 303.907 230.523 304.017 230.579 304.128H230.128C230.072 304.017 229.96 303.852 229.847 303.742C229.734 303.632 229.622 303.522 229.509 303.357C229.396 303.247 229.284 303.137 229.171 303.027C229.058 302.917 228.946 302.862 228.833 302.752V304.073H228.382V301.266H228.777V302.476C228.889 302.366 229.002 302.311 229.115 302.201C229.227 302.091 229.34 301.981 229.453 301.871C229.565 301.761 229.678 301.651 229.791 301.541C229.903 301.431 229.96 301.321 230.016 301.266H230.466V301.376Z" fill="#3F3F3F"/>
<path d="M230.973 304.183V301.376H232.719V301.706H231.368V302.532H232.551V302.862H231.368V303.853H232.832V304.183H230.973Z" fill="#3F3F3F"/>
<path d="M233.959 304.183V303.082C233.79 302.807 233.621 302.532 233.452 302.257C233.283 301.982 233.114 301.706 233.001 301.431H233.452C233.564 301.651 233.677 301.871 233.79 302.092C233.902 302.312 234.071 302.532 234.184 302.752C234.297 302.532 234.466 302.312 234.578 302.092C234.691 301.871 234.803 301.651 234.916 301.431H235.367C235.198 301.706 235.085 301.982 234.916 302.257C234.747 302.532 234.578 302.807 234.409 303.082V304.183H233.959Z" fill="#3F3F3F"/>
<path d="M238.296 302.311C238.183 302.697 238.07 303.027 237.958 303.302C237.845 303.632 237.732 303.908 237.62 304.183H237.226C237.057 303.797 236.944 303.357 236.831 302.862C236.719 302.421 236.606 301.926 236.493 301.376H236.888C236.944 301.596 236.944 301.816 237 301.981C237.057 302.201 237.057 302.366 237.113 302.587C237.169 302.807 237.226 302.972 237.226 303.137C237.282 303.302 237.338 303.467 237.338 303.632C237.451 303.357 237.563 303.027 237.676 302.697C237.789 302.366 237.901 302.036 238.014 301.651H238.352C238.465 302.036 238.577 302.366 238.69 302.697C238.803 303.027 238.915 303.357 239.028 303.632C239.084 303.467 239.141 303.302 239.141 303.137C239.197 302.972 239.253 302.752 239.253 302.587C239.31 302.366 239.31 302.201 239.366 301.981C239.422 301.761 239.422 301.541 239.479 301.376H239.873C239.76 301.926 239.647 302.421 239.535 302.862C239.422 303.302 239.31 303.742 239.141 304.183H238.746C238.634 303.908 238.521 303.577 238.408 303.302C238.521 302.972 238.408 302.642 238.296 302.311Z" fill="#3F3F3F"/>
<path d="M240.323 302.807C240.323 302.586 240.38 302.366 240.436 302.201C240.492 302.036 240.605 301.871 240.718 301.761C240.83 301.651 240.999 301.541 241.168 301.486C241.337 301.431 241.506 301.376 241.675 301.376C241.844 301.376 242.013 301.431 242.182 301.486C242.351 301.541 242.464 301.651 242.633 301.761C242.745 301.871 242.858 302.036 242.914 302.201C242.971 302.366 243.027 302.586 243.027 302.807C243.027 303.027 242.971 303.247 242.914 303.412C242.858 303.577 242.745 303.742 242.633 303.852C242.52 303.962 242.351 304.072 242.182 304.128C242.013 304.183 241.844 304.238 241.675 304.238C241.506 304.238 241.337 304.183 241.168 304.128C240.999 304.072 240.83 303.962 240.718 303.852C240.605 303.742 240.492 303.577 240.436 303.412C240.38 303.247 240.323 303.027 240.323 302.807ZM240.774 302.807C240.774 302.972 240.774 303.137 240.83 303.247C240.887 303.412 240.943 303.522 240.999 303.577C241.056 303.687 241.168 303.742 241.281 303.797C241.394 303.852 241.506 303.852 241.675 303.852C241.844 303.852 241.957 303.852 242.069 303.797C242.182 303.742 242.295 303.687 242.351 303.577C242.407 303.467 242.52 303.357 242.52 303.247C242.576 303.137 242.576 302.972 242.576 302.807C242.576 302.642 242.576 302.476 242.52 302.366C242.464 302.256 242.407 302.091 242.351 302.036C242.295 301.926 242.182 301.871 242.069 301.816C241.957 301.761 241.844 301.761 241.675 301.761C241.506 301.761 241.394 301.761 241.281 301.816C241.168 301.871 241.056 301.926 240.999 302.036C240.943 302.146 240.83 302.256 240.83 302.366C240.774 302.476 240.774 302.642 240.774 302.807Z" fill="#3F3F3F"/>
<path d="M245.055 303.027C245.111 303.082 245.167 303.137 245.224 303.247C245.28 303.357 245.336 303.412 245.449 303.522C245.505 303.632 245.618 303.742 245.674 303.853C245.731 303.963 245.787 304.073 245.843 304.183H245.393C245.336 304.073 245.28 303.963 245.224 303.853C245.167 303.742 245.111 303.632 245.055 303.577C244.998 303.467 244.942 303.412 244.886 303.302C244.829 303.247 244.773 303.137 244.717 303.082C244.661 303.082 244.661 303.082 244.604 303.082C244.548 303.082 244.548 303.082 244.492 303.082H244.154V304.183H243.759V301.431C243.872 301.431 243.985 301.376 244.154 301.376C244.266 301.376 244.435 301.376 244.548 301.376C244.942 301.376 245.28 301.431 245.449 301.596C245.618 301.761 245.787 301.981 245.787 302.256C245.787 302.421 245.731 302.587 245.618 302.752C245.393 302.862 245.224 302.972 245.055 303.027ZM244.435 301.706C244.266 301.706 244.154 301.706 244.041 301.706V302.752H244.323C244.435 302.752 244.604 302.752 244.717 302.752C244.829 302.752 244.942 302.697 244.998 302.697C245.055 302.642 245.111 302.587 245.167 302.532C245.224 302.477 245.224 302.366 245.224 302.256C245.224 302.146 245.224 302.036 245.167 301.981C245.111 301.926 245.055 301.871 244.998 301.816C244.942 301.761 244.829 301.761 244.773 301.706C244.661 301.706 244.548 301.706 244.435 301.706Z" fill="#3F3F3F"/>
<path d="M248.603 302.807C248.603 303.027 248.547 303.247 248.491 303.412C248.434 303.578 248.322 303.743 248.153 303.853C248.04 303.963 247.871 304.073 247.646 304.128C247.477 304.183 247.251 304.238 247.026 304.238C246.913 304.238 246.801 304.238 246.632 304.238C246.519 304.238 246.35 304.183 246.238 304.183V301.486C246.35 301.486 246.463 301.431 246.632 301.431C246.744 301.431 246.913 301.431 247.026 301.431C247.251 301.431 247.477 301.431 247.646 301.541C247.815 301.596 247.984 301.706 248.153 301.816C248.265 301.926 248.378 302.092 248.491 302.257C248.547 302.367 248.603 302.532 248.603 302.807ZM247.026 303.853C247.42 303.853 247.702 303.743 247.871 303.578C248.04 303.413 248.153 303.137 248.153 302.807C248.153 302.477 248.04 302.202 247.871 302.037C247.702 301.871 247.42 301.761 247.026 301.761C246.913 301.761 246.801 301.761 246.744 301.761C246.688 301.761 246.632 301.761 246.632 301.761V303.908C246.632 303.908 246.688 303.908 246.744 303.908C246.857 303.853 246.913 303.853 247.026 303.853Z" fill="#3F3F3F"/>
<path d="M249.448 303.962C249.448 304.017 249.448 304.073 249.392 304.128C249.335 304.183 249.279 304.183 249.167 304.183C249.11 304.183 248.998 304.128 248.941 304.128C248.885 304.073 248.885 304.017 248.885 303.962C248.885 303.907 248.885 303.852 248.941 303.797C248.998 303.742 249.054 303.742 249.167 303.742C249.223 303.742 249.335 303.742 249.392 303.797C249.448 303.852 249.448 303.907 249.448 303.962Z" fill="#3F3F3F"/>
<path d="M250.462 303.962C250.462 304.017 250.462 304.073 250.406 304.128C250.349 304.183 250.293 304.183 250.18 304.183C250.124 304.183 250.011 304.128 249.955 304.128C249.899 304.073 249.899 304.017 249.899 303.962C249.899 303.907 249.899 303.852 249.955 303.797C250.011 303.742 250.068 303.742 250.18 303.742C250.293 303.742 250.349 303.742 250.406 303.797C250.462 303.852 250.462 303.907 250.462 303.962Z" fill="#3F3F3F"/>
<path d="M251.476 303.962C251.476 304.017 251.476 304.073 251.42 304.128C251.363 304.183 251.307 304.183 251.194 304.183C251.138 304.183 251.025 304.128 250.969 304.128C250.913 304.073 250.913 304.017 250.913 303.962C250.913 303.907 250.913 303.852 250.969 303.797C251.025 303.742 251.082 303.742 251.194 303.742C251.251 303.742 251.363 303.742 251.42 303.797C251.476 303.852 251.476 303.907 251.476 303.962Z" fill="#3F3F3F"/>
<path d="M320.08 301.211V301.541H319.179V303.962H318.785V301.541H317.883V301.211H320.08Z" fill="#E0E0E0"/>
<path d="M321.319 304.018V302.917C321.15 302.642 320.981 302.367 320.812 302.091C320.643 301.816 320.474 301.541 320.362 301.266H320.812C320.925 301.486 321.038 301.706 321.15 301.926C321.263 302.146 321.432 302.367 321.545 302.587C321.657 302.367 321.826 302.146 321.939 301.926C322.051 301.706 322.164 301.486 322.277 301.266H322.727C322.558 301.541 322.446 301.816 322.277 302.091C322.108 302.367 321.939 302.642 321.77 302.917V304.018H321.319Z" fill="#E0E0E0"/>
<path d="M323.854 301.211C324.248 301.211 324.586 301.266 324.755 301.431C324.98 301.596 325.093 301.816 325.093 302.091C325.093 302.256 325.037 302.366 324.98 302.476C324.924 302.586 324.811 302.697 324.755 302.752C324.642 302.807 324.53 302.862 324.361 302.917C324.192 302.972 324.023 302.972 323.798 302.972H323.46V304.017H323.065V301.266C323.178 301.211 323.291 301.211 323.46 301.211C323.629 301.211 323.741 301.211 323.854 301.211ZM323.854 301.541C323.685 301.541 323.572 301.541 323.46 301.541V302.641H323.741C323.854 302.641 324.023 302.641 324.136 302.641C324.248 302.641 324.361 302.586 324.417 302.531C324.474 302.476 324.53 302.421 324.586 302.366C324.642 302.311 324.643 302.201 324.643 302.091C324.643 301.981 324.642 301.871 324.586 301.816C324.53 301.761 324.474 301.706 324.417 301.651C324.361 301.596 324.248 301.596 324.192 301.541C324.079 301.541 323.967 301.541 323.854 301.541Z" fill="#E0E0E0"/>
<path d="M325.6 304.017V301.211H327.346V301.541H325.994V302.366H327.177V302.697H325.994V303.687H327.459V304.017H325.6Z" fill="#E0E0E0"/>
<path d="M330.782 301.211V301.541H329.881V303.962H329.487V301.541H328.585V301.211H330.782Z" fill="#E0E0E0"/>
<path d="M331.233 304.017V301.211H332.979V301.541H331.627V302.366H332.81V302.697H331.627V303.687H333.091V304.017H331.233Z" fill="#E0E0E0"/>
<path d="M335.288 304.017C335.232 303.962 335.175 303.852 335.119 303.742C335.063 303.632 335.006 303.522 334.95 303.412C334.894 303.302 334.837 303.192 334.725 303.082C334.668 302.972 334.556 302.862 334.499 302.807C334.443 302.917 334.33 303.027 334.274 303.082C334.218 303.192 334.105 303.302 334.049 303.412C333.992 303.522 333.936 303.632 333.88 303.742C333.823 303.852 333.767 303.907 333.711 304.017H333.26C333.373 303.797 333.542 303.522 333.711 303.302C333.88 303.082 334.049 302.807 334.218 302.531L333.317 301.211H333.767L334.443 302.256L335.119 301.211H335.57L334.668 302.531C334.837 302.807 335.006 303.027 335.175 303.302C335.344 303.522 335.513 303.797 335.626 304.017H335.288Z" fill="#E0E0E0"/>
<path d="M338.104 301.211V301.541H337.203V303.962H336.809V301.541H335.908V301.211H338.104Z" fill="#E0E0E0"/>
<path opacity="0.2" d="M337.485 299.559C337.485 299.89 337.203 300.165 336.865 300.165H317.884C317.546 300.165 317.264 299.89 317.264 299.559C317.264 299.229 317.546 298.954 317.884 298.954H336.865C337.203 298.954 337.485 299.229 337.485 299.559Z" fill="white"/>
<path d="M259.812 271.875C258.404 268.738 256.433 266.097 253.898 263.895C251.307 261.694 248.209 259.767 244.604 258.116C240.943 256.465 236.831 254.759 232.213 253.053C228.72 251.842 225.679 250.686 223.201 249.585C220.666 248.485 218.582 247.274 216.892 246.008C215.202 244.742 213.963 243.311 213.118 241.715C212.273 240.119 211.879 238.303 211.879 236.211C211.879 232.138 213.682 229.222 217.343 227.295C221.004 225.369 225.228 224.433 230.129 224.433C235.761 224.433 240.605 224.984 244.604 225.974C248.603 227.02 251.589 228.011 253.447 229.001L256.658 214.306C255.644 213.921 254.236 213.536 252.433 213.041C250.631 212.545 248.491 212.105 246.125 211.665C243.759 211.224 241.168 210.894 238.408 210.564C236.775 210.399 235.198 210.289 233.564 210.179V194.823H221.229V210.674C214.301 211.665 208.556 213.976 203.937 217.499C197.516 222.452 194.362 229.166 194.362 237.642C194.362 241.935 195.094 245.568 196.615 248.485C198.136 251.402 200.107 253.933 202.642 256.025C205.12 258.116 208.105 259.932 211.597 261.473C215.033 263.014 218.638 264.5 222.412 265.986C230.185 269.069 235.761 271.82 239.141 274.242C242.52 276.719 244.21 280.021 244.21 284.149C244.21 288.222 242.464 291.139 239.028 292.955C235.592 294.771 230.298 295.707 223.144 295.707C215.878 295.707 210.02 294.991 205.627 293.505C201.234 292.019 198.023 290.918 196.052 290.203L192.841 304.898C194.587 305.613 197.91 306.714 202.811 308.09C207.542 309.466 214.019 310.127 222.243 310.182V325.922H234.578V309.411C241.619 308.42 247.364 306.384 251.87 303.357C258.573 298.844 261.952 292.129 261.952 283.323C261.896 278.81 261.22 274.958 259.812 271.875Z" fill="#FFC11D"/>
<path d="M351.341 192.952C350.44 190.861 349.088 189.099 347.398 187.613C345.652 186.127 343.624 184.862 341.202 183.761C338.78 182.66 336.02 181.504 332.922 180.404C330.557 179.578 328.585 178.807 326.896 178.092C325.206 177.377 323.798 176.551 322.671 175.67C321.545 174.79 320.7 173.854 320.137 172.808C319.573 171.763 319.348 170.497 319.348 169.121C319.348 166.424 320.587 164.443 323.009 163.177C325.431 161.911 328.304 161.251 331.571 161.251C335.344 161.251 338.555 161.581 341.259 162.296C343.962 163.012 345.934 163.672 347.173 164.333L349.313 154.481C348.637 154.261 347.68 153.931 346.497 153.6C345.258 153.27 343.849 152.94 342.272 152.665C340.695 152.39 338.949 152.114 337.147 151.949C336.077 151.839 335.006 151.729 333.88 151.729V141.492H325.656V152.114C321.038 152.775 317.151 154.316 314.11 156.682C309.829 159.985 307.689 164.498 307.689 170.112C307.689 172.974 308.196 175.395 309.209 177.377C310.223 179.358 311.575 181.009 313.208 182.44C314.898 183.816 316.87 185.027 319.179 186.072C321.488 187.118 323.91 188.109 326.389 189.099C331.571 191.136 335.288 193.007 337.597 194.603C339.85 196.254 340.977 198.456 340.977 201.263C340.977 203.96 339.85 205.941 337.541 207.152C335.232 208.363 331.683 208.968 326.896 208.968C322.052 208.968 318.165 208.473 315.18 207.482C312.251 206.491 310.111 205.776 308.759 205.28L306.618 215.132C307.801 215.627 309.998 216.343 313.265 217.279C316.419 218.159 320.756 218.655 326.22 218.71V229.222H334.443V218.214C339.118 217.554 343.005 216.178 345.99 214.196C350.496 211.169 352.693 206.711 352.693 200.822C352.749 197.63 352.298 195.044 351.341 192.952Z" fill="#FFC11D"/>
<path d="M240.83 93.7194C240.098 92.0683 239.028 90.6373 237.676 89.4815C236.324 88.3258 234.635 87.2801 232.719 86.3995C230.804 85.5189 228.551 84.6383 226.129 83.7026C224.271 83.0422 222.637 82.4368 221.342 81.8314C219.99 81.226 218.863 80.6206 217.962 79.9051C217.061 79.2446 216.385 78.4741 215.935 77.5935C215.484 76.7679 215.259 75.7773 215.259 74.6765C215.259 72.5301 216.216 70.934 218.188 69.9433C220.103 68.9526 222.412 68.4023 225.003 68.4023C227.988 68.4023 230.579 68.6775 232.719 69.2278C234.86 69.7782 236.437 70.3286 237.451 70.8239L239.141 63.0086C238.577 62.7885 237.845 62.5683 236.888 62.3482C235.93 62.073 234.803 61.8528 233.508 61.6327C232.213 61.4125 230.861 61.1924 229.396 61.0273C228.551 60.9172 227.65 60.8622 226.805 60.8071V52.6616H220.272V61.1374C216.554 61.6877 213.512 62.8986 211.09 64.7698C207.711 67.4116 205.965 70.989 205.965 75.5021C205.965 77.7586 206.359 79.6849 207.148 81.281C207.936 82.822 209.006 84.198 210.358 85.2987C211.71 86.3995 213.287 87.3901 215.146 88.1607C217.005 88.9862 218.92 89.7567 220.891 90.5823C225.003 92.2334 227.988 93.6644 229.791 94.9853C231.593 96.3062 232.494 98.0674 232.494 100.269C232.494 102.415 231.593 104.011 229.734 104.947C227.875 105.938 225.059 106.433 221.285 106.433C217.399 106.433 214.301 106.048 211.992 105.277C209.626 104.507 207.936 103.901 206.866 103.516L205.176 111.331C206.134 111.717 207.88 112.322 210.471 113.038C213.006 113.753 216.441 114.138 220.835 114.138V122.504H227.369V113.698C231.086 113.148 234.184 112.102 236.55 110.506C240.098 108.084 241.901 104.507 241.901 99.8286C241.901 97.4069 241.563 95.3705 240.83 93.7194Z" fill="#FFC11D"/>
<path d="M312.026 26.5742C311.575 25.5285 310.899 24.6479 310.054 23.8774C309.209 23.1619 308.139 22.5014 306.9 21.951C305.661 21.4007 304.309 20.8503 302.732 20.2449C301.549 19.8596 300.535 19.4193 299.69 19.0891C298.845 18.7038 298.17 18.3186 297.55 17.8783C296.987 17.438 296.536 16.9426 296.311 16.4473C296.029 15.8969 295.917 15.2915 295.917 14.576C295.917 13.2001 296.536 12.2094 297.719 11.604C298.958 10.9435 300.366 10.6683 302 10.6683C303.915 10.6683 305.492 10.8335 306.844 11.2187C308.195 11.5489 309.153 11.8792 309.829 12.2094L310.899 7.25601C310.561 7.14594 310.111 6.98082 309.491 6.81571C308.871 6.6506 308.196 6.48548 307.351 6.37541C306.562 6.2103 305.661 6.10022 304.76 5.99015C304.196 5.93511 303.689 5.88007 303.126 5.88007V0.706543H299.014V6.04519C296.705 6.37541 294.734 7.14594 293.213 8.35676C291.073 10.0079 290.002 12.2644 290.002 15.1264C290.002 16.5574 290.228 17.7682 290.735 18.7589C291.242 19.7495 291.917 20.5751 292.762 21.2906C293.607 22.0061 294.621 22.6115 295.748 23.1068C296.93 23.6022 298.113 24.0975 299.352 24.5929C301.943 25.6386 303.858 26.5192 304.985 27.3447C306.111 28.1703 306.675 29.2711 306.675 30.702C306.675 32.078 306.111 33.0686 304.929 33.6741C303.746 34.2795 302 34.6097 299.578 34.6097C297.156 34.6097 295.184 34.3895 293.72 33.8942C292.255 33.3989 291.185 33.0136 290.509 32.7934L289.439 37.7468C290.002 37.967 291.129 38.3522 292.762 38.8476C294.339 39.2879 296.536 39.508 299.296 39.5631V44.8467H303.408V39.1778C305.774 38.8476 307.689 38.1871 309.209 37.1414C311.462 35.6004 312.589 33.3989 312.589 30.4268C312.702 28.8858 312.476 27.6199 312.026 26.5742Z" fill="#FFC11D"/>
</svg>
