<svg width="117" height="117" viewBox="0 0 117 117" fill="none" xmlns="http://www.w3.org/2000/svg">
<circle opacity="0.7" cx="58.0744" cy="58.5" r="58.0744" fill="#EC681D"/>
<g clip-path="url(#clip0)">
<path d="M55.8307 92.8514H61.0586C61.7804 92.8514 62.3656 92.2662 62.3656 91.5444C62.3656 90.8226 61.7804 90.2374 61.0586 90.2374H55.8307C55.1089 90.2374 54.5237 90.8226 54.5237 91.5444C54.5237 92.2662 55.1089 92.8514 55.8307 92.8514Z" fill="white"/>
<path d="M36.2259 39.2651C36.9477 39.2651 37.5329 38.6799 37.5329 37.9582V30.1163H79.3563V40.5721C79.3563 41.2939 79.9416 41.8791 80.6633 41.8791C81.3851 41.8791 81.9703 41.2939 81.9703 40.5721V24.8883C81.9703 22.5358 78.9538 19.6604 75.4354 19.6604H41.4539C37.8466 19.6646 34.9232 22.588 34.9189 26.1953V37.9582C34.9189 38.6799 35.5041 39.2651 36.2259 39.2651ZM37.5329 26.1953C37.5329 24.0298 39.2884 22.2744 41.4539 22.2744H75.4354C77.7004 22.2744 79.3563 24.1041 79.3563 24.8883V27.5023H37.5329V26.1953Z" fill="white"/>
<path d="M80.6633 77.1676C79.9416 77.1676 79.3563 77.7528 79.3563 78.4746V85.0095H37.5329V79.7816C37.5329 79.0598 36.9477 78.4746 36.2259 78.4746C35.5041 78.4746 34.9189 79.0598 34.9189 79.7816V91.5444C34.9232 95.1517 37.8466 98.0751 41.4539 98.0793H75.4354C79.0427 98.0751 81.9661 95.1517 81.9703 91.5444V78.4746C81.9703 77.7528 81.3851 77.1676 80.6633 77.1676ZM79.3563 91.5444C79.3563 93.7099 77.6009 95.4654 75.4354 95.4654H41.4539C39.2884 95.4654 37.5329 93.7099 37.5329 91.5444V87.6235H79.3563V91.5444Z" fill="white"/>
<path d="M55.8307 23.5813H53.2167C52.4949 23.5813 51.9097 24.1665 51.9097 24.8883C51.9097 25.6101 52.4949 26.1953 53.2167 26.1953H55.8307C56.5525 26.1953 57.1377 25.6101 57.1377 24.8883C57.1377 24.1665 56.5525 23.5813 55.8307 23.5813Z" fill="white"/>
<path d="M63.6726 23.5813H61.0586C60.3368 23.5813 59.7516 24.1665 59.7516 24.8883C59.7516 25.6101 60.3368 26.1953 61.0586 26.1953H63.6726C64.3943 26.1953 64.9795 25.6101 64.9795 24.8883C64.9795 24.1665 64.3943 23.5813 63.6726 23.5813Z" fill="white"/>
<path d="M97.3535 44.9648C97.105 44.6657 96.7361 44.4927 96.3471 44.493H62.0415L61.3749 39.9983C61.0807 38.0806 59.4358 36.6614 57.4958 36.6511H51.9097V39.2651H57.4958C58.1442 39.2646 58.6949 39.7397 58.7897 40.3813L63.3563 71.2065C63.6505 73.1241 65.2954 74.5433 67.2354 74.5536H70.448C71.1562 76.5863 73.3781 77.66 75.4106 76.952C76.5341 76.5605 77.4175 75.6773 77.8089 74.5536H83.5178C84.2396 76.5953 86.4799 77.6652 88.5214 76.9433C90.5629 76.2213 91.633 73.9812 90.9111 71.9397C90.1893 69.898 87.949 68.8281 85.9075 69.55C84.7908 69.9447 83.9125 70.8232 83.5178 71.9397H77.8089C77.1007 69.907 74.8788 68.8333 72.8463 69.5414C71.7228 69.9328 70.8394 70.816 70.448 71.9397H67.2354C66.5885 71.9362 66.0398 71.4631 65.9415 70.8235L65.5259 68.0187H92.4262C93.0544 68.0182 93.5935 67.5709 93.7097 66.9535L97.6306 46.0418C97.7031 45.6595 97.6015 45.2646 97.3535 44.9648ZM87.1983 71.9397C87.92 71.9397 88.5052 72.5249 88.5052 73.2467C88.5052 73.9684 87.92 74.5536 87.1983 74.5536C86.4765 74.5536 85.8913 73.9684 85.8913 73.2467C85.8913 72.5249 86.4765 71.9397 87.1983 71.9397ZM74.1284 71.9397C74.8502 71.9397 75.4354 72.5249 75.4354 73.2467C75.4354 73.9684 74.8502 74.5536 74.1284 74.5536C73.4067 74.5536 72.8215 73.9684 72.8215 73.2467C72.8215 72.5249 73.4067 71.9397 74.1284 71.9397ZM91.3414 65.4048H65.139L62.4296 47.107H94.7788L91.3414 65.4048Z" fill="white"/>
<path d="M53.2167 58.8699C53.2167 49.4861 45.6098 41.8792 36.2259 41.8792C26.8421 41.8792 19.2352 49.4861 19.2352 58.8699C19.2352 68.2537 26.8421 75.8607 36.2259 75.8607C45.6052 75.8499 53.2059 68.2492 53.2167 58.8699ZM21.8491 58.8699C21.8491 50.9298 28.2859 44.4931 36.2259 44.4931C44.166 44.4931 50.6028 50.9298 50.6028 58.8699C50.6028 66.81 44.166 73.2467 36.2259 73.2467C28.2898 73.2374 21.8584 66.8061 21.8491 58.8699Z" fill="white"/>
<path d="M37.5329 69.3258V67.8332C40.3235 67.115 42.0034 64.2705 41.2852 61.4799C40.6912 59.1721 38.609 57.56 36.2259 57.5629C34.7822 57.5629 33.612 56.3927 33.612 54.949C33.612 53.5052 34.7822 52.335 36.2259 52.335C37.6696 52.335 38.8399 53.5052 38.8399 54.949C38.8399 55.6707 39.4251 56.2559 40.1469 56.2559C40.8686 56.2559 41.4538 55.6707 41.4538 54.949C41.4449 52.5724 39.8342 50.5008 37.5329 49.9066V48.414C37.5329 47.6923 36.9477 47.1071 36.2259 47.1071C35.5041 47.1071 34.9189 47.6923 34.9189 48.414V49.9066C32.1284 50.6248 30.4484 53.4693 31.1666 56.2599C31.7606 58.5677 33.8428 60.1798 36.2259 60.1769C37.6696 60.1769 38.8399 61.3471 38.8399 62.7908C38.8399 64.2346 37.6696 65.4048 36.2259 65.4048C34.7822 65.4048 33.612 64.2346 33.612 62.7908C33.612 62.0691 33.0267 61.4839 32.305 61.4839C31.5832 61.4839 30.998 62.0691 30.998 62.7908C31.007 65.1674 32.6177 67.239 34.9189 67.8332V69.3258C34.9189 70.0475 35.5041 70.6327 36.2259 70.6327C36.9477 70.6327 37.5329 70.0475 37.5329 69.3258Z" fill="white"/>
<path d="M66.2865 51.028H84.5843C85.3061 51.028 85.8913 50.4428 85.8913 49.721C85.8913 48.9993 85.3061 48.4141 84.5843 48.4141H66.2865C65.5648 48.4141 64.9796 48.9993 64.9796 49.721C64.9796 50.4428 65.5648 51.028 66.2865 51.028Z" fill="white"/>
<path d="M88.5052 51.028H91.1192C91.841 51.028 92.4262 50.4428 92.4262 49.721C92.4262 48.9993 91.841 48.4141 91.1192 48.4141H88.5052C87.7834 48.4141 87.1982 48.9993 87.1982 49.721C87.1982 50.4428 87.7834 51.028 88.5052 51.028Z" fill="white"/>
</g>
<defs>
<clipPath id="clip0">
<rect width="78.419" height="78.419" fill="white" transform="translate(19.2349 19.6604)"/>
</clipPath>
</defs>
</svg>
