<svg width="116" height="117" viewBox="0 0 116 117" fill="none" xmlns="http://www.w3.org/2000/svg">
<ellipse opacity="0.7" cx="58" cy="58.5" rx="58" ry="58.5" fill="#EC681D"/>
<path d="M90 52.1153C90 54.1057 89.6785 56.0694 89.0546 57.957C86.1238 71.4105 60.7804 87.6853 59.7021 88.3778C59.3652 88.5901 58.9872 88.701 58.6019 88.701C58.2173 88.701 57.8341 88.6027 57.4972 88.3778C57.2073 88.1865 50.067 83.6151 42.8276 77.3318C41.9607 76.5738 41.8697 75.2662 42.5971 74.3905C43.3421 73.5223 44.6295 73.4165 45.4978 74.1545C50.8942 78.8316 56.3478 82.6128 58.6121 84.1364C66.2237 79.1019 83.027 66.2933 85.0866 56.8468C85.6246 55.178 85.8676 53.6604 85.8676 52.1198C85.8676 46.7569 82.9896 41.8132 78.3552 39.2233C72.437 35.8918 64.5149 37.428 60.1851 42.7231C59.4071 43.6793 57.807 43.6793 57.0142 42.7231C52.6712 37.4243 44.755 35.9 38.8449 39.2174C34.1958 41.8132 31.3178 46.7539 31.3178 52.1116C31.3178 53.6418 31.5732 55.1661 32.0488 56.6383C32.3542 58.0158 32.9384 59.3629 33.682 60.7606H45.6872L49.8101 51.148C50.1631 50.3252 51.0065 49.8077 51.8741 49.9C52.7578 49.9782 53.4947 50.623 53.6914 51.4987L56.7265 64.5166L60.6526 57.9853C61.0226 57.365 61.6883 56.986 62.4076 56.986H69.8584C70.9925 56.986 71.9143 57.9176 71.9143 59.0732C71.9143 60.223 70.9925 61.1597 69.8584 61.1597H63.5622L57.6477 71.0158C57.2704 71.6443 56.6054 72.0196 55.8986 72.0196C55.7863 72.0196 55.6776 72.0106 55.5771 71.995C54.7484 71.8602 54.0959 71.2407 53.897 70.4179L51.1232 58.5602L48.9315 63.6781C48.6041 64.4473 47.862 64.9328 47.0436 64.9328H23.0567C21.9307 64.9321 21 63.9983 21 62.8463C21 61.6966 21.9307 60.7598 23.0567 60.7598H29.0879C28.66 59.7241 28.3143 58.7188 28.0999 57.7463C27.526 56.0574 27.2155 54.0908 27.2155 52.1108C27.2155 45.2289 30.9045 38.8927 36.8653 35.5612C43.7693 31.6868 52.9053 32.9051 58.6107 38.3439C64.3006 32.9043 73.43 31.6868 80.3458 35.5612C86.2992 38.8882 90 45.2289 90 52.1153Z" fill="white"/>
</svg>
