<svg width="66" height="66" viewBox="0 0 66 66" fill="none" xmlns="http://www.w3.org/2000/svg">
<path d="M59.1686 7.1593C59.0337 7.15382 58.8987 7.15291 58.7637 7.15671H53.6745V2.78317C53.6747 1.03376 52.0047 0 50.2553 0H45.5638C43.8144 0 42.5421 1.03376 42.5421 2.78317V7.15656H23.4578V2.78317C23.4578 1.03376 22.1855 0 20.4361 0H15.7444C13.9952 0 12.3252 1.03376 12.3252 2.78317V7.15656H7.23618C3.98757 7.066 1.28065 9.62619 1.19009 12.8747C1.18628 13.0095 1.18719 13.1447 1.19267 13.2795V59.2408C1.19267 62.7397 3.73719 65.9998 7.23602 65.9998H58.7639C62.2627 65.9998 64.8072 62.7397 64.8072 59.2408V13.2795C64.9402 10.0324 62.4156 7.29232 59.1686 7.1593ZM45.5638 3.18073H50.4939V11.9276H45.5638V3.18073ZM15.7446 3.18073H20.2772V11.9276H15.7446V3.18073ZM61.6265 59.2408C61.6265 60.9903 60.5133 62.8191 58.7639 62.8191H7.23618C5.48676 62.8191 4.37355 60.9903 4.37355 59.2408V25.4458H61.6265V59.2408ZM61.6265 13.2795V22.2651H4.3734V13.2795C4.2387 11.7925 5.33501 10.4778 6.82203 10.3431C6.95962 10.3306 7.09813 10.3288 7.23602 10.3374H12.3252V12.0869C12.3252 13.8363 13.995 15.1085 15.7444 15.1085H20.4361C22.0604 15.1531 23.4132 13.8723 23.4578 12.248C23.4593 12.1943 23.4593 12.1406 23.4578 12.0869V10.3373H42.5421V12.0867C42.4975 13.711 43.7783 15.0638 45.4026 15.1084C45.4563 15.1099 45.5101 15.1099 45.5638 15.1084H50.2554C52.0048 15.1084 53.6747 13.8361 53.6747 12.0867V10.3373H58.7639C60.2541 10.2434 61.5382 11.3753 61.6321 12.8655C61.6408 13.0034 61.639 13.1419 61.6265 13.2795Z" fill="#EC681D"/>
<path d="M24.1734 47.1541L22.7421 55.106C22.6855 55.447 22.7415 55.7974 22.9018 56.1038C23.3089 56.882 24.2699 57.1829 25.0481 56.7758L32.2047 53.0384L39.3612 56.7758L40.0769 56.9348C40.4219 56.9409 40.7588 56.8286 41.031 56.6167C41.5064 56.2695 41.751 55.6884 41.6673 55.1058L40.2359 47.154L46.0408 41.5878C46.4562 41.1389 46.6068 40.5058 46.4383 39.918C46.2242 39.3746 45.7417 38.9827 45.1661 38.8842L37.2143 37.6914L33.636 30.4553C33.48 30.1332 33.22 29.8731 32.898 29.7172C32.1074 29.3344 31.1563 29.6649 30.7734 30.4553L27.1951 37.6914L19.2433 38.8842C18.6676 38.9825 18.1852 39.3746 17.971 39.918C17.8025 40.5058 17.9534 41.1389 18.3686 41.5878L24.1734 47.1541ZM28.5469 40.7132C29.0463 40.6385 29.4694 40.3061 29.6602 39.8385L32.2047 34.7493L34.7492 39.8385C34.9401 40.3061 35.363 40.6385 35.8624 40.7132L41.5082 41.5083L37.4528 45.4047C37.075 45.7787 36.8978 46.3102 36.9756 46.836L37.9298 52.4818L32.9202 49.7783L32.2045 49.6192L31.4889 49.7783L26.4793 52.4818L27.4334 46.836C27.5114 46.3102 27.334 45.7787 26.9563 45.4047L22.9008 41.5083L28.5469 40.7132Z" fill="#EC681D"/>
</svg>
