<svg width="85" height="86" viewBox="0 0 85 86" fill="none" xmlns="http://www.w3.org/2000/svg">
<g clip-path="url(#clip0)">
<path d="M39.2219 58.3298C39.871 57.673 39.871 56.6101 39.2219 55.9533C38.5721 55.2985 37.5195 55.2985 36.8691 55.9533C36.2206 56.6101 36.2206 57.673 36.8691 58.3298C37.5195 58.9846 38.5721 58.9846 39.2219 58.3298Z" fill="#EC681D"/>
<path d="M31.3467 18.4713C31.3467 28.6564 39.5527 36.9433 49.639 36.9433C59.7253 36.9433 67.9313 28.6564 67.9313 18.4713C67.9313 8.28624 59.7253 0 49.639 0C39.5527 0 31.3467 8.28624 31.3467 18.4713ZM64.6057 18.4713C64.6057 26.8048 57.8917 33.5846 49.639 33.5846C41.3863 33.5846 34.6723 26.8048 34.6723 18.4713C34.6723 10.1385 41.3863 3.35872 49.639 3.35872C57.8917 3.35872 64.6057 10.1385 64.6057 18.4713Z" fill="#EC681D"/>
<path d="M19.2376 85.5034C19.8822 86.1595 20.9316 86.1668 21.5846 85.5172L29.6469 77.4967C31.0166 76.1136 31.4331 74.0658 30.8308 72.2857L32.565 70.5968C33.4987 69.6861 34.7281 69.1842 36.0276 69.1842H58.1347C62.0567 69.1842 65.7636 67.6633 68.5739 64.9016C68.6895 64.7881 67.696 65.9698 83.6556 46.7085C86.0227 43.8806 85.6686 39.6341 82.8655 37.2412C80.0799 34.8707 75.9071 35.2112 73.5335 37.9905L63.7207 48.175C62.4816 46.635 60.5921 45.6751 58.5505 45.6751H40.0068C37.3681 44.5604 34.5683 43.9961 31.6794 43.9961C23.6717 43.9961 16.6795 47.7308 12.9271 54.733C11.3462 54.4305 9.67892 54.9134 8.47945 56.1246L0.568528 64.1366C-0.077341 64.7908 -0.0786404 65.8491 0.565929 66.5052L19.2376 85.5034ZM31.6787 47.3542C34.2258 47.3542 36.6885 47.8718 38.9997 48.8928C39.2102 48.9859 39.437 49.0338 39.6663 49.0338H58.5505C60.3536 49.0338 61.8767 50.5187 61.8767 52.3919C61.8767 54.2442 60.3848 55.7506 58.5505 55.7506H44.9827C44.0646 55.7506 43.32 56.5025 43.32 57.4297C43.32 58.3574 44.0646 59.1087 44.9827 59.1087H58.5505C62.2185 59.1087 65.2022 56.0958 65.2022 52.3919C65.2022 52.0966 65.1814 51.804 65.1437 51.514C74.6362 41.6609 75.9747 40.2765 76.0319 40.2076C77.2171 38.795 79.321 38.6158 80.7206 39.8074C82.1215 41.0035 82.2989 43.1267 81.1105 44.5472L66.1951 62.5527C64.017 64.6641 61.1574 65.8261 58.1347 65.8261H36.0276C33.8613 65.8261 31.8107 66.6627 30.2551 68.1803L28.8419 69.5575L15.814 56.4028C18.8588 50.6348 24.5722 47.3542 31.6787 47.3542ZM10.8329 58.4978C11.3813 57.9441 12.2234 57.8443 12.892 58.2616C13.1799 58.4388 12.3534 57.679 27.2954 72.7463C27.9601 73.4175 27.9244 74.487 27.3045 75.113L20.4313 81.9505L4.09157 65.3248L10.8329 58.4978Z" fill="#EC681D"/>
<path d="M47.6436 8.39649V10.3642C45.7079 11.0571 44.3174 12.9238 44.3174 15.1133C44.3174 17.8907 46.5552 20.151 49.3063 20.151C50.2232 20.151 50.9691 20.9043 50.9691 21.8301C50.9691 22.7559 50.2232 23.5091 49.3063 23.5091C48.5961 23.5091 47.8288 23.0583 47.1472 22.2388C46.5559 21.5289 45.5071 21.4377 44.8041 22.0341C44.101 22.6312 44.0101 23.6902 44.6014 24.4001C45.4903 25.4676 46.5357 26.2117 47.6436 26.587V28.5468C47.6436 29.4746 48.3882 30.2259 49.3063 30.2259C50.2245 30.2259 50.9691 29.4746 50.9691 28.5468V26.5791C52.9048 25.8856 54.2953 24.0189 54.2953 21.8301C54.2953 19.052 52.0575 16.7923 49.3063 16.7923C48.3895 16.7923 47.6436 16.0391 47.6436 15.1133C47.6436 14.1875 48.3895 13.4336 49.3063 13.4336C49.8957 13.4336 50.5175 13.7374 51.1049 14.3115C51.7651 14.9565 52.8177 14.9387 53.4564 14.2728C54.0951 13.6061 54.0776 12.5432 53.4181 11.8982C52.574 11.0735 51.7293 10.607 50.9691 10.3524V8.39649C50.9691 7.46872 50.2245 6.7168 49.3063 6.7168C48.3882 6.7168 47.6436 7.46872 47.6436 8.39649Z" fill="#EC681D"/>
</g>
<defs>
<clipPath id="clip0">
<rect width="85" height="86" fill="white"/>
</clipPath>
</defs>
</svg>
