<svg width="92" height="92" viewBox="0 0 92 92" fill="none" xmlns="http://www.w3.org/2000/svg">
<g clip-path="url(#clip0)">
<path d="M75.8792 35.1365C75.1774 34.435 74.0396 34.435 73.3379 35.1365C72.6362 35.8383 72.6362 36.9761 73.3379 37.6778C73.3656 37.7055 73.3943 37.7337 73.4222 37.7595C73.769 38.0842 74.2101 38.2449 74.6503 38.2449C75.1297 38.2449 75.6084 38.0539 75.962 37.6763C76.6405 36.9524 76.6033 35.815 75.8792 35.1365Z" fill="#EC681D"/>
<path d="M72.2285 32.1852C71.2 31.4867 70.144 30.8638 69.0899 30.3331C63.1268 27.3326 56.8078 26.7302 50.8156 28.5911C49.8679 28.8856 49.338 29.8924 49.6325 30.84C49.9269 31.7879 50.9333 32.3172 51.8815 32.0231C56.9674 30.4435 62.3592 30.9692 67.4742 33.5431C68.3764 33.9975 69.3224 34.5563 70.2101 35.1585C70.5193 35.3683 70.8703 35.4691 71.2176 35.4691C71.793 35.4691 72.3584 35.1933 72.706 34.6812C73.2633 33.8602 73.0495 32.7426 72.2285 32.1852Z" fill="#EC681D"/>
<path d="M88.5759 55.4386C87.8392 53.8933 86.6193 51.3342 86.5974 50.4877C88.6986 45.3084 87.9321 39.5769 84.4321 34.3342C79.05 26.2711 68.019 20.4187 58.2033 20.4187C53.0146 20.4187 47.948 21.6561 43.3897 24.018C42.0819 16.8527 35.7979 11.4026 28.2608 11.4026C19.7785 11.4026 12.8778 18.3033 12.8778 26.7854C12.8778 32.1819 15.6281 37.0886 20.2342 39.9106C21.5621 40.7242 21.8625 41.4275 21.9692 42.5799V48.7149V53.0944C21.9692 55.1008 23.6012 56.7331 25.607 56.7331H26.2179C27.205 64.599 31.0118 71.7407 37.0547 76.996C37.1116 77.1735 37.2778 78.0057 36.5638 80.4884C36.0076 82.4225 35.1541 84.571 34.4014 86.4667C33.8976 87.7352 33.4624 88.8307 33.1993 89.6591C33.0259 90.2051 33.1233 90.8013 33.4616 91.264C33.8002 91.7265 34.3389 92 34.9119 92H60.5613C61.404 92 62.5616 91.6227 63.2902 89.8249C63.6073 89.0425 63.8143 88.1013 64.0337 87.1046C64.2472 86.1336 64.7478 83.8593 65.2455 83.5846C65.2459 83.5846 65.275 83.5797 65.3453 83.5905C65.4374 83.6052 65.5307 83.6122 65.6241 83.6122C68.3103 83.6122 70.5052 83.7341 72.4416 83.8413C78.1214 84.1565 81.5498 84.3468 84.5572 80.0149C86.0867 77.8116 85.9133 74.5982 85.7298 71.1962C85.6353 69.4429 85.5378 67.633 85.711 66.1285C86.0245 65.8196 86.8098 65.2806 87.3021 64.9426C88.996 63.7791 90.5958 62.6807 90.5958 61.0105C90.5963 59.741 89.8285 58.0662 88.5759 55.4386ZM22.1119 36.8459C18.5802 34.6824 16.4717 30.9216 16.4717 26.7852C16.4717 20.2845 21.7604 14.9961 28.261 14.9961C34.7617 14.9961 40.0502 20.2847 40.0502 26.7852C40.0502 30.9216 37.942 34.6826 34.41 36.8462C32.7316 37.8749 31.734 39.0747 31.2605 40.6958L28.2604 40.6948L25.2618 40.6958C24.788 39.0749 23.7905 37.8749 22.1119 36.8459ZM30.959 44.2899V46.9179H25.5633V44.2899H30.959ZM25.6074 53.1392C25.5874 53.1392 25.5633 53.1144 25.5633 53.0942V50.5116H30.959V53.0942C30.959 53.1145 30.9347 53.1392 30.9144 53.1392H25.6074ZM85.2682 61.9797C83.7217 63.0421 82.3859 63.9592 82.1889 65.3471C81.9183 67.251 82.0319 69.355 82.1415 71.3894C82.2777 73.9135 82.4319 76.7744 81.6053 77.9652C79.8174 80.5408 78.271 80.5658 72.6409 80.253C70.7833 80.1499 68.4783 80.0221 65.7454 80.0181C64.6959 79.8945 62.92 80.0915 61.735 82.3952C61.1331 83.565 60.8096 85.035 60.5243 86.3318C60.3809 86.9835 60.1795 87.8992 59.9908 88.4059H37.4987C37.5774 88.2074 37.6586 88.0027 37.742 87.7928C40.3305 81.2751 41.97 76.4947 39.4745 74.3373C34.1852 69.7627 30.8122 63.5682 29.8449 56.7329H30.9146C32.9208 56.7329 34.5529 55.1006 34.5529 53.0942V48.7147V42.5833C34.6594 41.4288 34.959 40.725 36.2879 39.9104C40.5413 37.3046 43.21 32.9208 43.5942 28.0155C48.0044 25.3948 53.0349 24.0123 58.2034 24.0123C66.7652 24.0123 76.7563 29.3075 81.4434 36.3293C83.4523 39.3387 85.3927 44.0204 83.2279 49.2331C82.5228 50.9306 83.5682 53.2849 85.332 56.985C85.9031 58.1828 86.7296 59.9168 86.9485 60.7268C86.5772 61.081 85.7791 61.629 85.2682 61.9797Z" fill="#EC681D"/>
<path d="M37.075 24.2466C36.5443 22.2799 35.2253 20.7048 33.26 19.6908C32.3781 19.2364 31.2944 19.5821 30.8393 20.4643C30.3845 21.3464 30.7306 22.4301 31.6127 22.8849C32.6856 23.4383 33.3375 24.1901 33.6052 25.1826C34.0291 26.7537 33.388 28.4538 33.1066 28.8953C32.5731 29.7322 32.8191 30.8431 33.6559 31.3765C33.9552 31.5676 34.2896 31.6583 34.6201 31.6583C35.2136 31.6583 35.7943 31.3649 36.1368 30.8272C36.9034 29.6253 37.7856 26.8804 37.075 24.2466Z" fill="#EC681D"/>
<path d="M28.2609 0C27.2685 0 26.4641 0.804817 26.4641 1.79687V6.91938C26.4641 7.91143 27.2685 8.71625 28.2609 8.71625C29.2532 8.71625 30.0578 7.91143 30.0578 6.91938V1.79687C30.0578 0.804817 29.2532 0 28.2609 0Z" fill="#EC681D"/>
<path d="M8.32362 25.0601H3.2011C2.20869 25.0601 1.40424 25.8649 1.40424 26.8569C1.40424 27.8493 2.20869 28.6538 3.2011 28.6538H8.3238C9.31603 28.6538 10.1205 27.8493 10.1205 26.8569C10.1205 25.8649 9.31585 25.0601 8.32362 25.0601Z" fill="#EC681D"/>
<path d="M19.8477 8.69032L17.2871 4.25601C16.7908 3.39657 15.6917 3.10242 14.8324 3.59836C13.9732 4.09465 13.6786 5.19344 14.1749 6.05288L16.7355 10.4872C17.0684 11.0638 17.6722 11.386 18.2932 11.386C18.5981 11.386 18.9072 11.3084 19.19 11.1448C20.0494 10.6485 20.3439 9.54976 19.8477 8.69032Z" fill="#EC681D"/>
<path d="M11.8913 15.3317L7.45645 12.7711C6.59719 12.2752 5.49804 12.5697 5.00193 13.4288C4.50563 14.2882 4.80014 15.387 5.65958 15.8833L10.0944 18.4438C10.3773 18.6074 10.6863 18.685 10.9911 18.685C11.6121 18.685 12.216 18.3628 12.549 17.7862C13.0452 16.9271 12.7507 15.828 11.8913 15.3317Z" fill="#EC681D"/>
<path d="M51.5207 13.4288C51.0242 12.5693 49.9254 12.2748 49.0662 12.7711L44.6313 15.3317C43.7719 15.828 43.4774 16.9271 43.9737 17.7862C44.3065 18.3628 44.9104 18.685 45.5314 18.685C45.8361 18.685 46.1452 18.6074 46.4282 18.4438L50.863 15.8833C51.7225 15.387 52.017 14.2882 51.5207 13.4288Z" fill="#EC681D"/>
<path d="M12.5499 35.9278C12.0539 35.0683 10.9553 34.7742 10.0957 35.2697L5.65977 37.8303C4.80033 38.3262 4.50564 39.4254 5.00176 40.2848C5.33454 40.8614 5.93864 41.1836 6.55964 41.1836C6.86439 41.1836 7.17327 41.106 7.45628 40.9428L11.892 38.3823C12.7515 37.8863 13.0462 36.7872 12.5499 35.9278Z" fill="#EC681D"/>
<path d="M18.8204 43.2089C17.9613 42.7129 16.8622 43.0074 16.3659 43.8665L14.1748 47.6621C13.6787 48.5215 13.9732 49.6207 14.8326 50.1166C15.1156 50.2801 15.4245 50.3577 15.7292 50.3577C16.3502 50.3577 16.9544 50.0355 17.2871 49.4589L19.4782 45.6634C19.9745 44.804 19.68 43.7052 18.8204 43.2089Z" fill="#EC681D"/>
<path d="M41.69 3.59827C40.8304 3.10198 39.7318 3.39648 39.2355 4.25593L36.675 8.69024C36.1787 9.54968 36.473 10.6486 37.3325 11.1448C37.6155 11.3083 37.9245 11.3859 38.2293 11.3859C38.8503 11.3859 39.4542 11.0637 39.7872 10.4871L42.3477 6.05279C42.844 5.19335 42.5495 4.09457 41.69 3.59827Z" fill="#EC681D"/>
</g>
<defs>
<clipPath id="clip0">
<rect width="92" height="92" fill="white"/>
</clipPath>
</defs>
</svg>
