<svg width="82" height="82" viewBox="0 0 82 82" fill="none" xmlns="http://www.w3.org/2000/svg">
<g clip-path="url(#clip0)">
<path d="M82 29.3719C82 26.2495 79.8708 23.5933 76.8208 22.9166L70.0968 21.4235V19.4906C72.492 17.8154 74.0645 15.0418 74.0645 11.9045V9.25807C74.0645 4.15308 69.9114 0 64.8065 0C59.7015 0 55.5484 4.15308 55.5484 9.25807V11.9032C55.5484 15.0418 57.1209 17.8154 59.5161 19.4893V21.4215L57.1222 21.955C51.1325 13.9853 41.7523 9.25807 31.7419 9.25807C14.2403 9.25807 0 23.4984 0 41C0 58.5016 14.2403 72.7419 31.7419 72.7419C41.6309 72.7419 50.9064 68.1381 56.9039 60.3466C57.5749 61.447 58.4635 62.3996 59.5161 63.1358V65.0686L52.7922 66.563C49.7421 67.2398 47.6129 69.8946 47.6129 73.017V82H82V73.017C82 69.8946 79.8708 67.2385 76.8208 66.5617L70.0968 65.0686V63.1358C72.492 61.4606 74.0645 58.6869 74.0645 55.5497V52.9045C74.0645 47.7995 69.9114 43.6465 64.8065 43.6465C64.3092 43.6465 63.8249 43.6968 63.3489 43.7724C63.4283 42.8502 63.4839 41.9248 63.4839 41C63.4839 40.1179 63.4335 39.2344 63.3625 38.3548H82V29.3719ZM58.1936 11.9032V9.25807C58.1936 5.61193 61.1603 2.64516 64.8065 2.64516C68.4526 2.64516 71.4194 5.61193 71.4194 9.25807V11.9032C71.4194 15.5494 68.4526 18.5161 64.8065 18.5161C61.1603 18.5161 58.1936 15.5494 58.1936 11.9032ZM64.8065 21.1613C65.7254 21.1613 66.6134 21.0224 67.4516 20.7712V22.119C67.1236 22.6266 66.2123 23.8065 64.8065 23.8065C63.4006 23.8065 62.4894 22.6253 62.1613 22.1203V20.7725C62.9995 21.0224 63.8875 21.1613 64.8065 21.1613ZM54.2587 22.5911L52.7909 22.9178C51.0117 23.3131 49.5638 24.3922 48.6513 25.8329C47.507 26.4833 46.3246 27.0561 45.1227 27.5759C42.4085 20.3702 38.0836 15.0469 35.2796 12.1202C42.7023 13.0288 49.5018 16.777 54.2587 22.5911ZM31.7406 69.6447C28.7183 66.8155 18.5161 56.1451 18.5161 41C18.5161 25.8872 28.7235 15.1897 31.7432 12.3553C34.7655 15.1845 44.9677 25.8549 44.9677 41C44.9677 56.1128 34.7604 66.8103 31.7406 69.6447ZM28.1959 12.1267C25.3893 15.0592 21.0618 20.3889 18.3508 27.6011C13.9401 25.6896 10.8758 23.3027 9.57386 22.1823C14.1926 16.7505 20.7648 13.0353 28.1959 12.1267ZM7.95034 24.2798C9.46988 25.5798 12.7615 28.0958 17.499 30.1139C16.5032 33.4165 15.871 37.0562 15.871 41C15.871 44.9438 16.5032 48.5835 17.5003 51.8861C12.7615 53.9029 9.46988 56.4202 7.95034 57.7189C4.61289 52.9852 2.64516 47.2203 2.64516 41C2.64516 34.7797 4.61289 29.0148 7.95034 24.2798ZM9.57257 59.8151C10.8687 58.6973 13.9213 56.3156 18.3508 54.3976C21.0618 61.6098 25.3893 66.9408 28.1959 69.872C20.7648 68.9647 14.1913 65.2482 9.57257 59.8151ZM35.2809 69.8798C38.0875 66.9492 42.4207 61.6162 45.1331 54.3976C49.5529 56.3117 52.6191 58.7057 53.9165 59.8216C49.1777 65.4019 42.5273 68.9938 35.2809 69.8798ZM76.2479 69.1442C78.0775 69.5504 79.3548 71.1442 79.3548 73.017V79.3548H50.2581V73.017C50.2581 71.143 51.5354 69.5504 53.365 69.1429L60.233 67.6169C60.9892 68.6192 62.4932 70.0968 64.8065 70.0968C67.1197 70.0968 68.6237 68.6192 69.38 67.6182L76.2479 69.1442ZM67.4516 65.7655C67.1236 66.2718 66.2123 67.4516 64.8065 67.4516C63.4006 67.4516 62.4894 66.2705 62.1613 65.7655V64.4177C62.9995 64.6676 63.8875 64.8065 64.8065 64.8065C65.7254 64.8065 66.6134 64.6676 67.4516 64.4164V65.7655ZM71.4194 52.9032V55.5484C71.4194 59.1945 68.4526 62.1613 64.8065 62.1613C61.1603 62.1613 58.1936 59.1945 58.1936 55.5484V52.9032C58.1936 49.2571 61.1603 46.2903 64.8065 46.2903C68.4526 46.2903 71.4194 49.2571 71.4194 52.9032ZM60.8387 41C60.8387 42.2257 60.758 43.4559 60.6062 44.6636C57.6091 46.198 55.5484 49.3113 55.5484 52.9032V55.5484C55.5484 56.1993 55.6168 56.8342 55.7454 57.4464C55.6795 57.5413 55.6078 57.6317 55.5419 57.7254C54.0263 56.428 50.7301 53.9055 45.9836 51.8848C46.9807 48.5835 47.6129 44.9438 47.6129 41C47.6129 37.0452 46.9781 33.3965 45.9758 30.0874C46.5228 29.8549 47.0743 29.6367 47.6129 29.377V38.3548H60.705C60.7845 39.2331 60.8387 40.1166 60.8387 41ZM79.3548 35.7097H50.2581V29.3719C50.2581 27.4978 51.5354 25.9053 53.365 25.4978L60.233 23.9718C60.9892 24.974 62.4932 26.4516 64.8065 26.4516C67.1197 26.4516 68.6237 24.974 69.38 23.9731L76.2479 25.4991C78.0775 25.9053 79.3548 27.4991 79.3548 29.3719V35.7097Z" fill="#EC681D"/>
<path d="M30.4194 29.0967V31.7418H29.0968C26.1791 31.7418 23.8064 34.1145 23.8064 37.0322C23.8064 39.9498 26.1791 42.3225 29.0968 42.3225H34.3871C35.8459 42.3225 37.0323 43.5088 37.0323 44.9676C37.0323 46.4265 35.8459 47.6128 34.3871 47.6128H29.0968C27.6379 47.6128 26.4516 46.4265 26.4516 44.9676H23.8064C23.8064 47.8853 26.1791 50.258 29.0968 50.258H30.4194V52.9031H33.0645V50.258H34.3871C37.3048 50.258 39.6774 47.8853 39.6774 44.9676C39.6774 42.05 37.3048 39.6773 34.3871 39.6773H29.0968C27.6379 39.6773 26.4516 38.491 26.4516 37.0322C26.4516 35.5733 27.6379 34.387 29.0968 34.387H34.3871C35.8459 34.387 37.0323 35.5733 37.0323 37.0322H39.6774C39.6774 34.1145 37.3048 31.7418 34.3871 31.7418H33.0645V29.0967H30.4194Z" fill="#EC681D"/>
</g>
<defs>
<clipPath id="clip0">
<rect width="82" height="82" fill="white"/>
</clipPath>
</defs>
</svg>
