<svg width="116" height="117" viewBox="0 0 116 117" fill="none" xmlns="http://www.w3.org/2000/svg">
<ellipse opacity="0.7" cx="58" cy="58.5" rx="58" ry="58.5" fill="#EC681D"/>
<g clip-path="url(#clip0)">
<path d="M80.9707 76.3359C80.9707 75.7836 80.523 75.3359 79.9707 75.3359H78.0576C77.7572 75.3359 77.5137 75.5794 77.5137 75.8798C77.5137 76.434 76.7818 76.6333 76.5009 76.1555L60.7429 49.3577C60.5724 49.0677 60.5591 48.7115 60.7075 48.4096L63.0675 43.6089C63.3089 43.118 63.1109 42.5242 62.6233 42.2763L61.3143 41.6108C60.8173 41.3581 60.2096 41.5607 59.9637 42.061L59.3974 43.2129C59.0311 43.958 57.9689 43.958 57.6026 43.2129L57.0363 42.061C56.7904 41.5607 56.1827 41.3581 55.6857 41.6108L54.3767 42.2763C53.8891 42.5242 53.6911 43.118 53.9325 43.6089L56.2925 48.4097C56.4409 48.7115 56.4276 49.0677 56.2572 49.3576L56.0742 49.6689C55.7008 50.304 54.7813 50.3342 54.2668 49.8069C52.6865 48.187 50.5021 47.2109 48.1289 47.2109C45.5439 47.2109 43.126 48.404 41.5073 50.3759C41.2431 50.6977 40.8234 50.8522 40.4114 50.7928C40.1051 50.7487 39.7965 50.7265 39.4863 50.7265C35.6737 50.7265 32.5723 53.8805 32.5723 57.7578C32.5723 58.9066 32.8085 59.6668 33.1372 60.6027C33.2783 61.0044 33.6588 61.2734 34.0845 61.2734H47.5021C48.2754 61.2734 48.7561 62.1137 48.3641 62.7803L40.4991 76.1555C40.2182 76.6333 39.4863 76.434 39.4863 75.8798C39.4863 75.5794 39.2428 75.3359 38.9424 75.3359H37.0293C36.477 75.3359 36.0293 75.7836 36.0293 76.3359V81.4843C36.0293 82.0366 35.5816 82.4843 35.0293 82.4843H30C29.4477 82.4843 29 82.9321 29 83.4843V85C29 85.5523 29.4477 86 30 86H87C87.5523 86 88 85.5523 88 85V83.4843C88 82.9321 87.5523 82.4843 87 82.4843H81.9707C81.4184 82.4843 80.9707 82.0366 80.9707 81.4843V76.3359ZM56.7715 65.8353C56.7715 66.003 56.7293 66.168 56.6488 66.3152L48.0884 81.9643C47.913 82.2849 47.5766 82.4843 47.2111 82.4843H42.5534C41.78 82.4843 41.2993 81.6441 41.6913 80.9774L54.9095 58.4994C55.4259 57.6212 56.7715 57.9874 56.7715 59.0063V65.8353ZM57.6227 71.7665C58.002 71.0731 58.998 71.073 59.3773 71.7665L64.4307 81.0044C64.7953 81.6708 64.313 82.4843 63.5534 82.4843H53.4466C52.687 82.4843 52.2047 81.6708 52.5693 81.0044L57.6227 71.7665ZM60.3512 66.3152C60.2707 66.168 60.2285 66.003 60.2285 65.8353V59.0064C60.2285 57.9875 61.5741 57.6212 62.0905 58.4995L75.3082 80.9775C75.7002 81.6441 75.2196 82.4843 74.4462 82.4843H69.7889C69.4234 82.4843 69.087 82.2849 68.9116 81.9643L60.3512 66.3152ZM37.0293 57.7578C36.477 57.7578 36.0151 57.3012 36.168 56.7705C36.5885 55.311 37.9169 54.2422 39.4863 54.2422C40.2496 54.2422 40.7272 54.4655 41.7297 54.9987C42.2387 55.2694 42.8688 55.054 43.1051 54.5281L43.4232 53.8201C44.2672 51.941 46.1146 50.7265 48.1289 50.7265C50.3664 50.7265 52.3248 52.1708 53.0353 54.2887C53.1127 54.5195 53.0741 54.7711 52.9507 54.9809L51.2928 57.8003C51.2782 57.8251 51.2402 57.8147 51.2402 57.786C51.2402 57.7704 51.2276 57.7578 51.212 57.7578H37.0293Z" fill="white"/>
<path d="M64.602 40.0625H86.3435C86.9282 39.0339 88 37.412 88 34.7891C88 29.9427 84.123 26 79.3574 26C76.5396 26 73.9202 27.4177 72.3182 29.7166C71.7911 29.5829 71.2555 29.5156 70.7148 29.5156C66.9022 29.5156 63.8008 32.6696 63.8008 36.5469C63.8008 37.955 64.1559 38.7789 64.602 40.0625ZM70.7148 33.0312C71.6822 33.0312 72.1877 33.3888 73.8977 34.2874L74.6513 32.6092C75.4957 30.7301 77.3431 29.5156 79.3574 29.5156C82.2167 29.5156 84.543 31.8813 84.543 34.7891C84.543 35.3906 84.4421 35.9857 84.2477 36.5469H67.2578C67.2578 34.6082 68.8085 33.0312 70.7148 33.0312Z" fill="white"/>
</g>
<defs>
<clipPath id="clip0">
<rect width="59" height="60" fill="white" transform="translate(29 26)"/>
</clipPath>
</defs>
</svg>
