<svg width="747" height="527" viewBox="0 0 747 527" fill="none" xmlns="http://www.w3.org/2000/svg">
<path d="M770.566 473.856C769.278 473.155 767.99 472.454 766.845 471.753C761.837 468.949 756.542 466.146 751.534 463.202C749.531 461.94 747.527 460.538 745.953 458.856C743.807 456.753 741.947 454.23 740.087 451.847C737.654 448.763 735.364 445.538 733.075 442.454C732.789 442.174 732.503 441.753 732.216 441.473C726.922 438.108 721.913 434.183 716.333 431.66C711.324 429.417 706.459 427.034 701.594 424.791C693.867 421.286 686.426 417.361 679.701 412.174C669.827 404.604 659.524 397.735 647.933 392.828C643.211 390.866 639.777 387.782 637.058 383.576C636.2 382.314 635.341 380.913 634.053 379.931C629.188 376.006 624.037 372.081 619.028 368.156C618.027 367.315 617.168 367.315 616.023 367.735C612.589 368.997 609.298 370.539 605.864 371.24C602.286 371.941 600.14 373.763 598.566 376.427C597.135 378.95 595.131 380.071 592.126 380.772C584.685 382.455 577.245 384.838 569.947 387.081C567.8 387.782 565.654 388.903 563.794 390.305C557.927 395.071 551.344 398.015 544.047 399.417C538.18 400.679 532.313 401.8 526.446 402.782L525.158 389.884L526.589 388.483L526.16 386.24C526.16 386.099 526.16 386.099 526.16 385.959L525.015 380.492C525.015 379.09 525.158 378.109 524.872 377.128C524.729 376.847 524.729 376.567 524.586 376.286L524.299 372.782C524.299 372.642 524.299 372.501 524.299 372.221C524.299 372.081 524.299 371.941 524.299 371.8L523.584 363.95C523.727 361.987 522.869 359.324 522.01 356.801L520.579 350.352C520.579 350.072 520.579 349.651 520.579 349.231V347.408L516.429 333.39C516.429 332.969 516.429 332.689 516.429 332.408C516.429 331.427 516 330.586 515.714 329.885L514.712 324.838C514.712 324.277 514.855 323.296 514.712 320.773V303.951L512.566 292.595C512.566 290.072 511.564 284.745 511.421 282.923C511.278 280.82 507.844 266.521 507.844 266.1C507.844 265.68 506.699 253.063 506.126 250.54C505.554 248.016 504.839 245.914 504.839 245.914C505.125 245.493 506.126 243.11 504.695 241.428C503.408 239.745 504.123 235.4 504.123 234.138C503.98 232.876 501.834 226.848 501.834 226.848C501.977 224.185 501.691 221.521 500.975 217.876C500.546 215.914 499.258 212.549 499.687 210.306C499.973 208.063 498.399 204.278 498.829 202.316C499.115 200.353 499.115 187.036 498.972 184.933C498.829 182.69 500.403 179.185 500.403 179.185C501.118 183.671 506.556 187.456 506.985 192.082C507.414 196.568 508.702 196.148 508.845 200.493C508.988 204.839 510.276 209.605 513.424 215.633C516.572 221.521 521.294 245.493 522.582 250.4L520.722 258.39L519.864 263.717L532.456 266.941L536.033 256.568L534.173 251.1C534.03 250.68 533.887 250.259 533.887 249.979C533.887 249.699 533.887 249.558 533.887 249.418C533.887 248.297 534.888 247.876 534.173 245.633C533.171 242.409 534.03 245.213 533.028 241.147C532.17 237.783 532.313 229.091 531.597 221.661C530.739 212.129 530.023 206.241 526.732 196.989C523.584 188.157 522.869 185.914 521.151 182.83L518.146 167.97C518.146 167.83 518.146 167.83 518.146 167.69L516.859 153.531C516.429 148.625 513.424 143.998 512.995 142.597C512.423 140.774 506.126 135.167 504.982 132.924C504.409 131.942 503.121 130.541 501.404 129.419V129.279L491.102 123.531C490.529 122.971 489.957 122.41 489.527 122.27C488.955 122.129 488.24 121.849 487.381 121.569L482.802 119.045C482.659 118.905 482.659 118.765 482.659 118.765C482.516 118.765 482.373 118.765 482.23 118.765L480.369 117.784C480.369 116.382 481.085 114.7 481.228 113.158C481.514 110.634 482.23 107.27 482.23 107.27C484.09 106.709 486.666 105.167 486.522 102.924C486.379 100.821 487.667 97.0362 486.809 95.6343C485.807 93.8119 487.238 90.4475 486.379 87.083C485.378 83.7185 483.804 79.7933 482.659 77.8307C481.371 76.0083 475.218 72.6439 471.354 72.3635C467.634 72.0831 461.91 73.3448 459.478 74.4663C457.045 75.5878 454.755 81.6157 453.897 83.9989C452.609 87.2232 453.181 90.5876 451.75 92.8306C449.032 97.0362 452.037 101.803 452.466 103.625C453.038 105.447 456.043 105.728 456.043 105.728C456.043 105.728 457.045 110.354 457.331 111.195C457.617 112.176 457.045 115.12 455.471 115.12C453.897 115.12 452.609 114.84 450.463 115.12H448.602C447.028 113.158 445.454 111.055 443.451 109.513C438.872 106.008 435.867 101.522 434.579 96.1951C433.005 89.8867 431.288 83.7185 427.71 78.2513C426.852 76.9896 426.136 75.5878 425.707 74.0457C423.131 65.3542 419.983 57.0832 414.832 49.5132C411.111 44.0459 408.106 37.8778 404.815 32.1301C403.814 30.4479 402.812 28.7657 402.096 26.9433C401.524 25.6816 401.381 24.2797 401.238 22.8779C401.238 21.3358 401.667 19.7938 401.667 18.3919C401.524 14.0462 401.095 9.70039 400.952 5.35463C400.952 3.6724 401.524 2.13036 401.81 0.448126C397.947 0.307941 396.802 1.7098 396.086 6.33593C395.8 8.15835 395.657 10.6817 394.369 11.5228C392.366 12.9247 390.935 10.4013 389.361 9.27984C387.787 8.01816 384.496 8.43872 384.067 10.121C383.351 13.205 380.918 15.1676 379.344 17.691C378.2 19.6536 377.484 21.7564 376.912 23.9994C376.769 24.7003 377.198 25.8218 377.77 26.5227C380.203 29.747 383.351 32.1301 387.215 33.532C388.359 33.9525 389.504 34.7937 390.077 35.775C393.94 42.2235 395.8 49.373 397.517 56.5225C399.235 63.8121 401.81 70.8214 406.819 76.7092C407.963 78.1111 409.394 80.0737 409.108 81.6157C408.536 86.2419 410.253 90.1671 411.97 94.2325C412.972 96.3353 413.687 98.7184 414.26 100.961C415.834 108.111 416.692 115.401 418.695 122.27C420.27 127.877 422.559 133.344 424.276 138.952C425.421 146.802 427.854 153.111 428.426 154.232C428.712 155.774 429.285 160.821 430 166.428C430.859 172.036 431.86 181.708 433.005 184.793C434.15 187.877 434.436 196.849 435.295 200.493C436.01 204.138 436.296 211.428 435.724 214.512C435.151 217.596 436.296 218.017 436.01 219.418C435.867 220.82 435.438 220.82 435.438 221.521C435.438 222.222 435.724 223.063 434.865 224.045C433.864 225.166 434.293 227.409 435.295 229.091C436.296 230.914 436.01 231.755 434.722 232.596C433.291 233.437 433.72 236.942 433.72 236.942C433.72 236.942 433.72 237.222 433.434 238.484C433.148 239.886 433.434 239.465 433.005 241.708C432.862 242.549 432.862 243.25 432.862 243.671C432.719 244.372 432.433 245.773 432.003 247.456C431.86 247.596 431.86 247.876 431.86 248.016C431.288 250.54 430.572 253.063 430.715 253.624C430.859 254.605 432.719 260.633 431.002 263.016C429.285 265.259 428.855 286.427 427.71 291.334C425.278 301.708 427.567 313.483 425.421 317.128C423.131 320.773 422.845 323.577 423.275 324.978C423.704 326.38 423.99 328.623 423.275 330.305C422.416 331.988 422.559 333.53 423.131 334.651C423.704 335.773 423.561 338.156 423.275 341.24C422.988 344.464 421.271 357.081 422.416 361.847C423.561 366.614 421.557 366.333 421.128 368.156C420.699 369.978 419.983 371.38 421.414 374.885C422.845 378.249 422.13 379.371 421.128 382.174C419.983 385.258 423.275 388.342 422.13 389.464C421.128 390.445 419.411 391.847 419.554 393.249C419.697 394.651 420.842 399.838 418.552 401.8L418.409 401.94C417.98 401.94 417.694 401.8 417.408 401.8C416.12 401.52 415.118 400.959 414.26 399.697C412.972 397.174 411.541 397.034 409.108 398.436C408.106 398.997 407.105 399.417 406.103 399.697C402.669 400.959 399.092 401.94 395.8 403.342C388.359 406.707 381.062 410.352 373.764 413.856C373.048 414.277 372.047 414.557 371.188 414.417C367.897 414.277 364.749 413.996 361.458 413.856C358.023 413.716 354.589 413.015 351.298 414.697C346.576 417.081 341.71 419.183 337.131 421.987C325.541 429.137 297.351 445.959 270.592 461.239L239.398 471.192L180.586 476.8L99.1647 477.921L21.7504 491.239L17.7438 493.201V496.706L15.5973 494.743L0 526.425H769.993L774.143 498.388L770.566 473.856ZM442.735 396.613C443.594 395.632 445.168 394.791 445.025 393.669C444.882 392.127 444.023 390.866 445.025 389.744C446.027 388.623 445.454 387.221 445.884 384.698C446.313 382.174 445.025 378.95 445.454 376.427C445.74 374.604 448.745 365.632 448.889 361.427C448.889 348.53 449.318 346.707 448.745 344.044C448.316 341.941 448.03 340.539 448.889 339.277C449.747 337.876 450.319 336.614 449.747 335.492C449.175 334.371 450.463 332.548 450.463 332.548C452.752 330.165 451.035 326.38 450.892 324.558C450.749 322.735 450.319 326.1 451.035 319.932C451.321 316.707 456.902 306.614 461.052 296.1C465.201 285.586 467.062 280.399 469.208 275.913C469.78 276.474 470.21 277.175 470.21 277.175C470.21 277.175 475.361 293.296 479.511 301.287C483.517 309.137 484.805 319.511 489.527 326.801C490.529 328.343 490.386 328.904 490.529 330.025C490.672 331.147 492.389 333.109 492.103 333.81C491.674 334.511 492.103 335.633 492.819 336.894C493.82 338.436 493.391 345.446 493.534 347.969C493.677 351.193 496.11 363.249 496.396 365.913C496.682 368.436 500.403 371.38 499.687 373.623C498.972 375.726 500.546 380.772 500.403 382.174C500.26 383.576 501.834 385.118 502.692 387.221C503.551 389.324 502.692 390.585 502.12 392.408C501.547 394.37 501.404 396.333 503.551 398.155C505.554 399.978 504.552 398.997 504.695 400.959C504.695 402.501 504.695 402.922 505.697 403.062C505.983 403.623 506.556 404.744 506.556 404.744C506.699 406.286 506.27 407.127 505.554 408.669C501.69 410.352 497.827 412.034 494.106 413.576C493.105 414.978 492.676 415.959 491.96 416.66C487.524 420.725 482.802 424.51 478.366 428.576C477.221 429.697 476.363 429.697 475.075 429.137C466.06 424.931 457.188 420.305 449.318 414.277C448.316 413.436 447.171 412.735 446.17 412.174C446.027 410.211 445.454 408.109 444.166 406.146C445.168 405.445 442.163 402.361 442.449 401.66C443.594 399.697 441.877 397.595 442.735 396.613ZM747.814 481.286C739.085 481.706 730.499 480.304 721.913 479.603C718.479 479.323 715.045 479.183 711.754 478.902C711.324 478.902 710.895 478.762 710.609 478.622C709.464 478.202 708.463 477.781 707.461 477.22C704.17 475.398 700.735 474.697 696.586 474.977C692.436 475.258 688.143 474.417 683.85 474.136C677.125 473.716 670.399 472.594 663.531 473.295C663.245 473.295 662.815 473.435 662.529 473.295C661.814 473.015 661.098 472.874 660.812 472.454C660.669 472.174 661.241 471.332 661.671 471.052C663.674 470.211 665.677 469.23 667.824 468.669C678.126 465.865 688.572 464.043 699.448 463.622C701.451 463.482 703.454 463.202 705.744 462.781C702.023 458.295 698.732 454.09 691.864 452.828C677.84 450.164 664.532 445.538 651.511 440.492C647.218 438.809 642.782 437.828 638.06 437.267C635.484 436.987 632.765 436.707 630.19 436.146C628.902 435.865 627.471 435.305 626.326 434.604C621.89 431.66 617.884 428.436 612.732 426.473C611.015 425.912 609.298 425.351 607.294 424.651C607.581 427.314 607.724 429.697 608.01 431.94C608.01 432.221 608.725 432.641 609.155 432.781C612.017 433.622 614.878 434.464 617.883 435.024C622.033 435.865 625.754 437.407 629.76 438.669C633.195 439.791 636.057 441.333 638.775 443.155C639.491 443.576 640.492 443.716 641.351 443.996C645.787 445.398 650.08 446.66 654.516 448.062C656.09 448.482 657.091 449.323 657.091 450.865C654.659 450.725 652.369 450.725 649.937 450.585C636.343 449.744 622.749 448.903 609.155 447.781C605.577 447.501 602 446.52 598.566 445.819C598.566 445.538 598.423 445.398 598.423 445.118C600.712 443.716 603.145 442.174 605.434 440.772C600.569 439.51 595.418 438.389 590.409 436.987C589.551 436.707 588.406 436.146 587.977 435.585C585.83 432.922 583.684 430.258 581.824 427.454C581.251 426.613 580.393 426.193 579.391 426.613C577.817 427.314 576.1 428.015 574.812 428.996C571.807 431.379 568.802 433.763 565.94 436.286C557.211 444.417 546.479 449.884 533.887 453.389C526.732 455.491 519.72 458.015 512.566 460.398C508.416 461.8 504.839 463.903 501.977 466.846C500.116 468.809 498.256 470.772 495.537 472.174C493.105 473.575 491.531 475.818 489.527 477.781C488.955 478.342 488.24 478.902 487.524 479.744C486.809 477.08 486.522 474.697 488.096 472.314C488.669 471.613 489.098 470.772 489.814 470.071C491.674 467.828 493.534 465.585 495.394 463.202C499.544 458.015 505.125 454.23 512.136 451.706C517.717 449.744 523.298 447.641 528.879 445.819C533.744 444.277 537.464 441.613 539.897 437.968C540.898 436.286 542.186 434.744 543.474 433.062C537.607 432.08 532.17 432.501 527.305 435.164C522.439 437.828 517.717 440.632 513.567 443.996C494.679 458.576 472.785 468.949 448.889 476.8C431.86 482.407 414.116 485.912 395.943 487.173C383.923 488.015 371.903 488.575 359.884 489.416C350.582 489.977 341.424 490.538 332.123 491.099C331.694 491.099 331.265 491.099 330.549 491.099C334.413 488.295 338.419 486.473 343.285 485.912C350.869 485.071 358.309 484.089 365.893 483.388C374.622 482.407 383.208 481.706 391.937 480.585C406.532 478.762 421.128 477.22 434.865 472.594C437.441 471.753 440.017 470.632 442.449 469.51C451.035 465.445 459.621 461.379 468.206 457.174C470.496 456.052 472.785 454.79 474.216 452.828C468.349 450.445 462.626 448.062 456.902 445.538C447.887 441.753 438.443 441.052 428.426 442.314C416.263 443.856 406.962 449.043 400.093 457.174C398.09 459.417 395.943 461.8 393.082 463.342C390.22 464.884 388.503 467.127 386.642 469.23C385.211 470.772 383.637 471.893 381.348 472.594C379.344 473.155 377.627 474.136 375.767 474.837C374.908 475.117 374.193 475.538 373.048 476.099C373.764 473.575 374.336 471.192 375.052 468.809C369.185 470.491 363.461 471.893 358.023 473.716C350.296 476.379 342.283 476.099 333.84 476.379C336.416 474.417 338.562 472.594 341.71 471.753C345.002 470.772 348.293 469.51 351.298 468.108C360.599 463.762 369.9 459.276 379.058 454.65C380.203 454.09 381.062 453.108 381.777 452.127C382.063 451.706 381.777 450.865 381.348 450.445C381.205 450.305 380.203 450.305 379.631 450.585C371.474 453.949 363.461 457.174 355.448 460.678C341.138 466.987 327.115 473.575 312.805 479.744C306.509 482.407 300.07 484.93 293.201 486.473C283.185 488.575 272.882 489.837 262.579 491.379C261.291 491.519 260.719 491.239 260.719 489.977C262.293 489.416 264.01 488.575 265.727 488.015C284.186 482.547 301.358 474.977 317.957 466.566C336.416 457.174 354.875 447.641 373.478 438.389C377.341 436.426 381.491 435.024 385.354 433.342C388.073 432.221 391.078 432.641 393.94 432.781C396.659 432.922 399.378 433.062 402.096 433.202C402.812 433.202 403.527 433.062 404.243 432.781C410.396 430.398 416.549 427.735 422.845 425.492C425.707 424.37 428.712 423.809 431.574 422.968C432.433 422.688 433.291 422.408 434.15 421.987C436.296 421.006 437.298 421.006 438.443 422.828C439.015 423.809 439.874 424.09 441.018 424.37C441.877 424.51 442.879 424.51 443.308 424.931C445.74 426.613 448.602 426.473 451.464 426.613C452.466 426.613 453.468 427.174 454.469 427.594C455.614 428.015 456.616 428.436 457.76 428.716C461.624 429.417 464.915 430.679 468.063 432.641C474.789 436.847 482.23 440.071 489.814 443.015C490.958 443.435 491.674 443.435 492.532 442.594C496.253 439.791 500.26 436.987 503.98 434.183C504.552 433.763 504.982 432.922 505.84 432.08C513.138 429.557 520.722 426.193 529.451 425.071C535.747 424.23 541.9 423.249 548.196 422.267C554.349 421.146 559.93 419.183 564.938 415.819C566.369 414.838 568.23 413.996 570.09 413.576C576.243 412.034 582.539 410.352 588.835 409.23C591.411 408.81 592.985 407.968 594.273 406.286C595.561 404.324 597.421 403.062 600.426 402.641C603.431 402.221 606.15 401.099 609.012 400.258C610.013 399.978 610.729 399.978 611.587 400.539C615.737 403.342 620.03 406.006 624.18 408.81C625.181 409.51 626.04 410.352 626.612 411.333C628.759 414.277 631.764 416.52 635.77 417.781C645.501 421.146 654.23 425.912 662.529 431.239C668.253 434.884 674.406 437.688 680.988 440.071C685.138 441.613 689.288 443.295 693.438 444.837C698.16 446.66 702.453 449.323 706.888 451.706C707.175 451.847 707.461 452.127 707.604 452.407C709.607 454.65 711.468 456.893 713.471 458.996C715.045 460.678 716.619 462.361 718.336 463.903C719.767 465.024 721.341 466.146 723.058 466.987C727.351 469.089 731.644 470.912 735.937 473.015C740.23 474.977 744.522 476.94 747.957 480.024V481.286H747.814Z" fill="white"/>
</svg>
