<?xml version="1.0" encoding="utf-8"?>
<!-- Generator: Adobe Illustrator 16.2.0, SVG Export Plug-In . SVG Version: 6.00 Build 0)  -->
<!DOCTYPE svg PUBLIC "-//W3C//DTD SVG 1.1//EN" "http://www.w3.org/Graphics/SVG/1.1/DTD/svg11.dtd">
<svg version="1.1" id="Слой_1" xmlns="http://www.w3.org/2000/svg" xmlns:xlink="http://www.w3.org/1999/xlink" x="0px" y="0px"
	 width="143.5px" height="49.471px" viewBox="0 0 143.5 49.471" enable-background="new 0 0 143.5 49.471" xml:space="preserve">
<g>
	<g>
		<defs>
			<path id="SVGID_1_" d="M17.181,22.497c5.404,0,9.793,4.387,9.793,9.793c0,5.41-4.389,9.797-9.793,9.797
				c-5.411,0-9.795-4.387-9.795-9.797C7.386,26.884,11.77,22.497,17.181,22.497 M20.204,13.497c8.703,0,15.771,7.066,15.771,15.771
				c0,8.707-7.067,15.775-15.771,15.775c-8.708,0-15.776-7.068-15.776-15.775C4.427,20.564,11.496,13.497,20.204,13.497z
				 M21.713,8.999c10.358,0,18.761,8.4,18.761,18.758c0,10.36-8.402,18.764-18.761,18.764c-10.357,0-18.761-8.403-18.761-18.764
				C2.952,17.4,11.355,8.999,21.713,8.999z M23.225,4.501c12.007,0,21.744,9.738,21.744,21.746s-9.736,21.75-21.744,21.75
				c-12.008,0-21.751-9.742-21.751-21.75S11.217,4.501,23.225,4.501z M24.736,0c13.66,0,24.735,11.076,24.735,24.737
				c0,13.658-11.075,24.734-24.735,24.734C11.075,49.472,0,38.396,0,24.738C0,11.076,11.075,0,24.736,0z M18.691,17.997
				c7.058,0,12.783,5.725,12.783,12.785s-5.725,12.784-12.783,12.784c-7.061,0-12.785-5.724-12.785-12.784
				S11.63,17.997,18.691,17.997z"/>
		</defs>
		<linearGradient id="SVGID_2_" gradientUnits="userSpaceOnUse" x1="49.5649" y1="50.1536" x2="-2.0983" y2="-2.7324">
			<stop  offset="0" style="stop-color:#E10613"/>
			<stop  offset="1" style="stop-color:#FFCA00"/>
		</linearGradient>
		<use xlink:href="#SVGID_1_"  overflow="visible" fill-rule="evenodd" clip-rule="evenodd" fill="url(#SVGID_2_)"/>
		<clipPath id="SVGID_3_">
			<use xlink:href="#SVGID_1_"  overflow="visible"/>
		</clipPath>
	</g>
	<g>
		<path fill="#1D1D1B" d="M140.035,10.298c1.26,0,2.263,1.023,2.263,2.303c0,1.301-1.003,2.314-2.272,2.314
			c-1.261,0-2.283-1.014-2.283-2.314c0-1.279,1.022-2.303,2.283-2.303H140.035z M140.025,10.656c-1.014,0-1.842,0.871-1.842,1.945
			c0,1.096,0.828,1.955,1.852,1.955c1.024,0.011,1.844-0.859,1.844-1.944s-0.819-1.956-1.844-1.956H140.025z M139.594,13.943h-0.408
			v-2.57c0.215-0.029,0.418-0.061,0.727-0.061c0.389,0,0.646,0.082,0.799,0.195c0.152,0.111,0.235,0.285,0.235,0.531
			c0,0.338-0.228,0.542-0.502,0.624v0.021c0.226,0.04,0.38,0.245,0.431,0.624c0.063,0.4,0.123,0.553,0.163,0.635h-0.43
			c-0.062-0.082-0.122-0.317-0.175-0.656c-0.061-0.326-0.225-0.449-0.555-0.449h-0.285V13.943z M139.594,12.521h0.299
			c0.336,0,0.623-0.124,0.623-0.442c0-0.224-0.162-0.448-0.623-0.448c-0.134,0-0.227,0.01-0.299,0.019V12.521z"/>
		<polygon fill="#1D1D1B" points="64.007,37.259 61.744,30.584 62.619,30.584 64.542,36.512 66.452,30.584 67.296,30.584 
			65.035,37.259 		"/>
		<polygon fill="#1D1D1B" points="68.852,31.322 68.852,33.542 71.296,33.542 71.296,34.241 68.852,34.241 68.852,36.56 
			71.646,36.56 71.646,37.259 68.054,37.259 68.054,30.62 71.607,30.62 71.607,31.322 		"/>
		<path fill="#1D1D1B" d="M76.811,37.259l-2.379-3.861c-0.367-0.582-0.648-1.048-1.018-1.787c0.029,0.777,0.029,1.205,0.029,1.787
			v3.861h-0.758v-6.675h0.941l2.338,3.783c0.352,0.583,0.777,1.271,1.061,1.932c-0.031-0.728-0.031-1.349-0.031-1.932v-3.783h0.758
			v6.675H76.811z"/>
		<polygon fill="#1D1D1B" points="81.238,31.322 81.238,37.259 80.442,37.259 80.442,31.322 78.424,31.322 78.424,30.62 
			83.258,30.62 83.258,31.322 		"/>
		<path fill="#1D1D1B" d="M88.811,34.941c0,1.533-1.011,2.455-2.506,2.455c-1.474,0-2.396-0.979-2.396-2.357v-4.454h0.796v4.337
			c0,1.105,0.708,1.756,1.679,1.756c0.95,0,1.632-0.631,1.632-1.658v-4.435h0.796V34.941z"/>
		<path fill="#1D1D1B" d="M90.159,30.603c0.563-0.078,1.029-0.117,1.457-0.117c1.602,0,2.396,0.757,2.396,1.883
			c0,0.874-0.698,1.475-1.494,1.641c0.711,0.145,0.962,0.66,1.117,1.416c0.126,0.593,0.357,1.398,0.516,1.834h-0.922
			c-0.146-0.523-0.313-1.271-0.408-1.756c-0.137-0.709-0.555-1.029-1.406-1.029h-0.459v2.785h-0.796V30.603z M91.295,33.825
			c1.047,0,1.854-0.507,1.854-1.377c0-0.798-0.524-1.265-1.515-1.265c-0.215,0-0.37,0.009-0.68,0.049v2.593H91.295z"/>
		<polygon fill="#1D1D1B" points="96.032,31.322 96.032,33.542 98.478,33.542 98.478,34.241 96.032,34.241 96.032,36.56 
			98.828,36.56 98.828,37.259 95.238,37.259 95.238,30.62 98.789,30.62 98.789,31.322 		"/>
		<path fill="#1D1D1B" d="M107.109,36.98c-0.583,0.279-1.215,0.377-1.934,0.377c-1.891,0-3.307-1.252-3.307-3.387
			c0-2.396,1.764-3.484,3.492-3.484c0.775,0,1.417,0.156,1.825,0.406l-0.06,0.729c-0.514-0.299-1.068-0.437-1.815-0.437
			c-1.241,0-2.552,0.903-2.552,2.718c0,1.893,1.225,2.758,2.525,2.758c0.668,0,1.191-0.117,1.754-0.398L107.109,36.98z"/>
		<path fill="#1D1D1B" d="M109.147,35.058l-0.708,2.201h-0.844l2.261-6.675h1.029l2.259,6.675h-0.872l-0.708-2.201H109.147z
			 M110.352,31.292l-0.98,3.066h1.97L110.352,31.292z"/>
		<path fill="#1D1D1B" d="M113.992,30.633c0.563-0.108,1.029-0.147,1.455-0.147c1.603,0,2.428,0.854,2.428,1.951
			c0,1.437-1.234,2.135-2.65,2.135c-0.155,0-0.272-0.01-0.438-0.029v2.717h-0.795V30.633z M114.787,33.864
			c0.146,0.02,0.35,0.029,0.467,0.029c1,0,1.756-0.467,1.756-1.359c0-0.815-0.553-1.35-1.542-1.35c-0.214,0-0.368,0.009-0.681,0.05
			V33.864z"/>
		<rect x="118.769" y="30.584" fill="#1D1D1B" width="0.796" height="6.675"/>
		<polygon fill="#1D1D1B" points="123.067,31.322 123.067,37.259 122.271,37.259 122.271,31.322 120.254,31.322 120.254,30.62 
			125.088,30.62 125.088,31.322 		"/>
		<path fill="#1D1D1B" d="M126.406,35.058l-0.707,2.201h-0.846l2.262-6.675h1.03l2.261,6.675h-0.874l-0.708-2.201H126.406z
			 M127.611,31.292l-0.98,3.066h1.97L127.611,31.292z"/>
		<polygon fill="#1D1D1B" points="134.873,36.562 134.873,37.259 131.252,37.259 131.252,30.584 132.049,30.584 132.049,36.562 		
			"/>
		<path fill="#2E2D2C" d="M69.443,14.981c0,1.747-1.322,2.83-3.769,2.83c-0.564,0-1.192-0.042-1.558-0.104v-5.285
			c0.433-0.166,1.19-0.313,1.948-0.313C68.254,12.109,69.443,13.087,69.443,14.981 M84.688,21.202V10.527H82.24v10.697
			c0,1.602-1.234,2.56-2.771,2.56c-1.538,0-2.773-0.958-2.773-2.56V10.527h-2.447v10.676c0,2.914,2.277,4.602,5.221,4.602
			S84.688,24.116,84.688,21.202 M106.537,21.273c0-2.559-2.164-3.59-3.942-4.372c-1.321-0.577-2.642-1.259-2.642-2.518
			c0-1.299,1.063-2.083,2.599-2.083c1.019,0,2.079,0.371,2.665,0.68l0.779-1.897c-0.758-0.433-2.037-0.784-3.529-0.784
			c-2.988,0-4.961,1.629-4.961,4.209c0,2.537,2.166,3.61,4.029,4.414c1.32,0.557,2.512,1.176,2.512,2.455
			c0,1.384-1.17,2.229-2.901,2.229c-0.117,0-0.239,0.009-0.355,0.023v-0.012H90.319v-13.09H87.87v15.066h12.92v-0.006
			c0.143,0.004,0.288,0.006,0.433,0.006C104.469,25.593,106.537,23.956,106.537,21.273 M117.149,19.87h-4.81l1.927-5.618
			c0.282-0.833,0.454-1.79,0.454-1.79h0.047c0,0,0.173,0.957,0.452,1.79L117.149,19.87z M121.588,25.593l-5.414-15.066h-2.859
			L107.9,25.593h2.557l1.387-3.975h5.803l1.385,3.975H121.588z M131.266,14.793c0,1.935-1.297,2.704-3.529,2.704h-1.842v-5.076
			c0.5-0.188,1.324-0.313,2.102-0.313C130.228,12.109,131.266,13.128,131.266,14.793 M134.494,25.593l-2.34-4.932
			c-0.454-0.957-1.041-1.728-1.84-2.123v-0.041c1.859-0.396,3.354-1.52,3.354-3.807c0-2.665-1.948-4.393-5.717-4.393
			c-1.623,0-3.291,0.313-4.46,0.812v14.483h2.402v-6.389h1.389c1.191,0,1.927,0.604,2.403,1.623l2.209,4.766H134.494z
			 M71.846,15.001c0-2.872-2.056-4.703-5.803-4.703c-1.688,0-3.206,0.291-4.332,0.791v14.504h2.406v-6.076
			c0.388,0.063,1.06,0.125,1.644,0.125C69.723,19.642,71.846,17.685,71.846,15.001"/>
	</g>
	<path opacity="0.26" fill="#FFFFFF" d="M5.91,30.96c0,1.75,0.353,3.416,0.988,4.935c0.271-0.311,0.549-0.612,0.826-0.917
		c-0.211-0.802-0.336-1.64-0.336-2.509c0-5.406,4.384-9.792,9.796-9.792c1.681,0,3.265,0.425,4.649,1.174
		c1.694-0.933,3.443-1.777,5.239-2.529c-2.245-1.953-5.17-3.145-8.378-3.145C11.633,18.177,5.91,23.902,5.91,30.96z"/>
	<path opacity="0.26" fill="#FFFFFF" d="M21.717,9.178c-10.359,0-18.761,8.4-18.761,18.759c0,3.484,0.966,6.734,2.625,9.532
		C5.788,37.212,6,36.96,6.212,36.708c-1.131-2.176-1.781-4.641-1.781-7.261c0-8.704,7.068-15.771,15.775-15.771
		c4.895,0,9.273,2.235,12.167,5.74c1.731-0.523,3.5-0.956,5.3-1.307C34.369,12.757,28.468,9.178,21.717,9.178z"/>
	<path opacity="0.26" fill="#FFFFFF" d="M24.739,0.181c-13.657,0-24.734,11.076-24.734,24.735c0,5.226,1.631,10.065,4.399,14.06
		c0.188-0.25,0.382-0.497,0.575-0.743c-2.208-3.403-3.501-7.45-3.501-11.807c0-12.008,9.743-21.747,21.75-21.747
		c8.764,0,16.297,5.199,19.739,12.668c1.719-0.163,3.459-0.256,5.221-0.257C44.911,7.271,35.659,0.181,24.739,0.181z"/>
</g>
</svg>
