<svg width="92" height="104" viewBox="0 0 92 104" fill="none" xmlns="http://www.w3.org/2000/svg">
<path d="M25.3867 6.31982C18.7205 6.31982 13.2845 11.6972 13.2845 18.2914C13.2845 21.7063 14.7129 24.7679 17.0143 26.9267L22.9265 32.7751C22.8869 30.0276 23.3233 27.28 24.236 24.6894L21.9346 22.3736C20.7442 21.3923 19.9506 19.94 19.9506 18.2914C19.9506 15.3476 22.371 12.9925 25.3073 12.9925C27.0532 12.9925 28.6404 13.8561 29.5927 15.1513L30.2275 15.7794C31.9734 14.1701 33.9177 12.8748 35.981 11.9327L34.4335 10.4019C32.2115 7.88987 28.9975 6.31982 25.3867 6.31982Z" fill="#E2195B"/>
<path d="M62.4074 15.1904C63.3994 13.8951 64.9469 13.0316 66.6928 13.0316C69.6687 13.0316 72.0495 15.4259 72.0495 18.3305C72.0495 19.9791 71.2559 21.4706 70.0655 22.4126L67.7641 24.6892C68.7164 27.319 69.1925 30.0666 69.1529 32.8142L75.0651 26.9658C77.3665 24.7677 78.7949 21.7454 78.7949 18.3305C78.7949 11.7363 73.3589 6.35889 66.6928 6.35889C63.0819 6.35889 59.8679 7.92893 57.6459 10.4018L56.0984 11.9326C58.122 12.9138 60.0266 14.2091 61.7725 15.7792L62.4074 15.1904Z" fill="#E2195B"/>
<path d="M52.3686 48.9462L53.8764 40.1932L46.0595 36.0718L38.2427 40.1932L39.7505 48.9462L33.3225 42.7837L26.9738 46.0808L30.0688 49.1424C36.3778 56.2076 45.9802 64.9999 45.9802 64.9999L62.3677 48.7892L62.4074 48.7499L65.1056 46.0808L58.7966 42.7837L52.3686 48.9462Z" fill="white"/>
<path d="M85.3023 18.4873C85.3023 8.32125 76.9697 0.0785024 66.6928 0.0785024C61.0583 0.0785024 55.9794 2.59058 52.5669 6.5157L49.1545 9.8913C47.0912 9.61655 44.9882 9.61655 42.9249 9.8913L39.4728 6.47645C36.0207 2.51208 30.9814 0 25.3073 0C15.0303 0 6.69769 8.24275 6.69769 18.4088C6.69769 23.747 8.99909 28.5356 12.6893 31.9112L26.1802 45.2566L29.3149 38.9372L22.8868 32.7355H22.9265L17.0143 26.9263C14.7129 24.7283 13.2845 21.7059 13.2845 18.2911C13.2845 11.6969 18.7205 6.31944 25.3866 6.31944C28.9974 6.31944 32.2115 7.88949 34.4335 10.3623L35.981 11.8931C33.9177 12.8744 31.9734 14.1697 30.2275 15.7397C29.9894 15.936 29.791 16.1322 29.553 16.3285C27.0928 18.8013 25.347 21.6274 24.2756 24.689C23.363 27.2796 22.9265 30.0272 22.9662 32.7748L31.775 34.0308L35.7429 26.0628L37.2507 34.7766L46.0199 36.0326L54.789 34.7766L56.3365 26.0236L60.3044 33.9915L69.1132 32.7355C69.1529 26.8086 66.9308 20.8424 62.328 16.3285C60.4631 14.4837 58.3204 12.9921 56.0587 11.9324L57.6062 10.4016C59.8282 7.92874 63.0423 6.3587 66.6531 6.3587C73.3192 6.3587 78.7553 11.7361 78.7553 18.3303C78.7553 21.7452 77.3268 24.8068 75.0254 26.9656L69.1132 32.814C69.1132 32.814 69.1132 32.814 69.1132 32.7748L62.7645 38.8979L65.8992 45.2174L79.3108 31.9505C83.0009 28.6141 85.3023 23.8255 85.3023 18.4873Z" fill="white"/>
<path d="M25.3867 6.31982C18.7205 6.31982 13.2845 11.6972 13.2845 18.2914C13.2845 21.7063 14.7129 24.7679 17.0143 26.9267L22.9265 32.7751C22.8869 30.0276 23.3233 27.28 24.236 24.6894L21.9346 22.3736C20.7442 21.3923 19.9506 19.94 19.9506 18.2914C19.9506 15.3476 22.371 12.9925 25.3073 12.9925C27.0532 12.9925 28.6404 13.8561 29.5927 15.1513L30.2275 15.7794C31.9734 14.1701 33.9177 12.8748 35.981 11.9327L34.4335 10.4019C32.2115 7.88987 28.9975 6.31982 25.3867 6.31982Z" fill="#E2195B"/>
<path d="M62.4074 15.1904C63.3994 13.8951 64.9469 13.0316 66.6928 13.0316C69.6687 13.0316 72.0495 15.4259 72.0495 18.3305C72.0495 19.9791 71.2559 21.4706 70.0655 22.4126L67.7641 24.6892C68.7164 27.319 69.1925 30.0666 69.1529 32.8142L75.0651 26.9658C77.3665 24.7677 78.7949 21.7454 78.7949 18.3305C78.7949 11.7363 73.3589 6.35889 66.6928 6.35889C63.0819 6.35889 59.8679 7.92893 57.6459 10.4018L56.0984 11.9326C58.122 12.9138 60.0266 14.2091 61.7725 15.7792L62.4074 15.1904Z" fill="#E2195B"/>
<path d="M52.3686 48.9462L53.8764 40.1932L46.0595 36.0718L38.2427 40.1932L39.7505 48.9462L33.3225 42.7837L26.9738 46.0808L30.0688 49.1424C36.3778 56.2076 45.9802 64.9999 45.9802 64.9999L62.3677 48.7892L62.4074 48.7499L65.1056 46.0808L58.7966 42.7837L52.3686 48.9462Z" fill="black"/>
<path d="M85.3023 18.4873C85.3023 8.32125 76.9697 0.0785024 66.6928 0.0785024C61.0583 0.0785024 55.9794 2.59058 52.5669 6.5157L49.1545 9.8913C47.0912 9.61655 44.9882 9.61655 42.9249 9.8913L39.4728 6.47645C36.0207 2.51208 30.9814 0 25.3073 0C15.0303 0 6.69769 8.24275 6.69769 18.4088C6.69769 23.747 8.99909 28.5356 12.6893 31.9112L26.1802 45.2566L29.3149 38.9372L22.8868 32.7355H22.9265L17.0143 26.9263C14.7129 24.7283 13.2845 21.7059 13.2845 18.2911C13.2845 11.6969 18.7205 6.31944 25.3866 6.31944C28.9974 6.31944 32.2115 7.88949 34.4335 10.3623L35.981 11.8931C33.9177 12.8744 31.9734 14.1697 30.2275 15.7397C29.9894 15.936 29.791 16.1322 29.553 16.3285C27.0928 18.8013 25.347 21.6274 24.2756 24.689C23.363 27.2796 22.9265 30.0272 22.9662 32.7748L31.775 34.0308L35.7429 26.0628L37.2507 34.7766L46.0199 36.0326L54.789 34.7766L56.3365 26.0236L60.3044 33.9915L69.1132 32.7355C69.1529 26.8086 66.9308 20.8424 62.328 16.3285C60.4631 14.4837 58.3204 12.9921 56.0587 11.9324L57.6062 10.4016C59.8282 7.92874 63.0423 6.3587 66.6531 6.3587C73.3192 6.3587 78.7553 11.7361 78.7553 18.3303C78.7553 21.7452 77.3268 24.8068 75.0254 26.9656L69.1132 32.814C69.1132 32.814 69.1132 32.814 69.1132 32.7748L62.7645 38.8979L65.8992 45.2174L79.3108 31.9505C83.0009 28.6141 85.3023 23.8255 85.3023 18.4873Z" fill="black"/>
<path d="M19.2983 103.452H14.8479V94.389L9.66935 102.431L4.40987 94.3482L4.45033 103.452H0V85.4082H3.27706L9.6289 95.0422L15.9807 85.4082H19.2983V103.452Z" fill="#E2195B"/>
<path d="M40.4576 94.4301C40.4576 99.6961 36.3713 103.819 30.95 103.819C25.5692 103.819 21.483 99.6961 21.483 94.4301C21.483 89.164 25.5692 85.041 30.95 85.041C36.3713 85.041 40.4576 89.164 40.4576 94.4301ZM35.9263 94.4301C35.9263 91.5725 33.863 89.2049 30.95 89.2049C28.0371 89.2049 25.9738 91.5725 25.9738 94.4301C25.9738 97.2876 28.0371 99.6553 30.95 99.6553C33.863 99.6553 35.9263 97.2468 35.9263 94.4301Z" fill="#E2195B"/>
<path d="M58.9055 95.0422C58.9055 100.635 55.7094 103.86 50.5713 103.86C45.4736 103.86 42.2775 100.635 42.2775 95.0422V85.4082H46.7278V95.1238C46.7278 97.8997 48.2247 99.6551 50.5713 99.6551C52.9178 99.6551 54.4552 97.8589 54.4552 95.1238V85.4082H58.9055V95.0422Z" fill="#E2195B"/>
<path d="M76.101 91.0008H71.6507C71.4079 89.6537 70.5583 88.7148 68.7377 88.7148C67.2004 88.7148 66.1889 89.368 66.1889 90.511C66.1889 91.4907 66.9172 91.8989 68.2523 92.2255L70.7606 92.797C74.0377 93.5318 76.1415 94.8381 76.1415 97.9406C76.1415 101.533 73.1881 103.819 68.7377 103.819C64.7325 103.819 61.0913 101.9 60.6462 97.4507H65.0966C65.3798 99.0428 66.7553 99.9817 68.8591 99.9817C70.5179 99.9817 71.3675 99.3693 71.3675 98.3896C71.3675 97.7773 71.0034 97.1241 69.466 96.8384L66.5126 96.1852C62.9928 95.4096 61.334 93.7359 61.334 90.8784C61.334 87.286 64.247 85 68.4545 85C71.327 85 75.6155 86.143 76.101 91.0008Z" fill="#E2195B"/>
<path d="M82.9375 92.5929H90.8672V96.4301H82.9375V99.5734H92V103.492H78.4872V85.4082H92V89.3271H82.9375V92.5929Z" fill="#E2195B"/>
</svg>
