
<svg width="954px" height="231px" viewBox="0 0 954 231" version="1.1" xmlns="http://www.w3.org/2000/svg" xmlns:xlink="http://www.w3.org/1999/xlink">

    <desc>Created with Sketch.</desc>
    <defs></defs>
    <g id="Page-1" stroke="none" stroke-width="1" fill="none" fill-rule="evenodd">
        <g id="Desktop" transform="translate(-425.000000, -358.000000)">
            <g id="Group-3" opacity="0.577275815" transform="translate(426.000000, 359.000000)" stroke="#F3364A" stroke-width="2">
                <circle id="Combined-Shape" cx="105" cy="105" r="100"></circle>
                <circle id="Oval-2" cx="105" cy="105" r="105"></circle>
            </g>
            <path d="M519.2,410 L531.35,484.55 L542.6,410 L565.55,410 L565.55,515 L549.95,515 L549.95,439.7 L538.55,515 L522.95,515 L510.65,440.75 L510.65,515 L496.25,515 L496.25,410 L519.2,410 Z M581.5,499.1 L581.5,499.1 C585.890664,499.1 589.45,502.659336 589.45,507.05 L589.45,507.05 C589.45,511.440664 585.890664,515 581.5,515 L581.5,515 C577.109336,515 573.55,511.440664 573.55,507.05 L573.55,507.05 C573.55,502.659336 577.109336,499.1 581.5,499.1 Z M613.95,425 L613.95,454.25 L636.6,454.25 L636.6,469.25 L613.95,469.25 L613.95,500 L642.45,500 L642.45,515 L597.45,515 L597.45,410 L642.45,410 L642.45,425 L613.95,425 Z M656.6,499.1 L656.6,499.1 C660.990664,499.1 664.55,502.659336 664.55,507.05 L664.55,507.05 C664.55,511.440664 660.990664,515 656.6,515 L656.6,515 C652.209336,515 648.65,511.440664 648.65,507.05 L648.65,507.05 C648.65,502.659336 652.209336,499.1 656.6,499.1 Z M669.7,435.2 C669.7,418.4 677.95,408.8 694,408.8 C710.05,408.8 718.3,418.4 718.3,435.2 L718.3,438.5 L702.7,438.5 L702.7,434.15 C702.7,426.65 699.7,423.8 694.45,423.8 C689.2,423.8 686.2,426.65 686.2,434.15 C686.2,455.75 718.45,459.8 718.45,489.8 C718.45,506.6 710.05,516.2 693.85,516.2 C677.65,516.2 669.25,506.6 669.25,489.8 L669.25,483.35 L684.85,483.35 L684.85,490.85 C684.85,498.35 688.15,501.05 693.4,501.05 C698.65,501.05 701.95,498.35 701.95,490.85 C701.95,469.25 669.7,465.2 669.7,435.2 Z M731.1,499.1 L731.1,499.1 C735.490664,499.1 739.05,502.659336 739.05,507.05 L739.05,507.05 C739.05,511.440664 735.490664,515 731.1,515 L731.1,515 C726.709336,515 723.15,511.440664 723.15,507.05 L723.15,507.05 C723.15,502.659336 726.709336,499.1 731.1,499.1 Z M733.25,425 L733.25,410 L784.25,410 L784.25,425 L767,425 L767,515 L750.5,515 L750.5,425 L733.25,425 Z M803.95,425 L803.95,454.25 L826.6,454.25 L826.6,469.25 L803.95,469.25 L803.95,500 L832.45,500 L832.45,515 L787.45,515 L787.45,410 L832.45,410 L832.45,425 L803.95,425 Z M870.9,475.85 L886.5,475.85 L886.5,489.8 C886.5,506.6 878.1,516.2 861.9,516.2 C845.7,516.2 837.3,506.6 837.3,489.8 L837.3,435.2 C837.3,418.4 845.7,408.8 861.9,408.8 C878.1,408.8 886.5,418.4 886.5,435.2 L886.5,445.4 L870.9,445.4 L870.9,434.15 C870.9,426.65 867.6,423.8 862.35,423.8 C857.1,423.8 853.8,426.65 853.8,434.15 L853.8,490.85 C853.8,498.35 857.1,501.05 862.35,501.05 C867.6,501.05 870.9,498.35 870.9,490.85 L870.9,475.85 Z M909.05,470 L909.05,515 L892.55,515 L892.55,410 L909.05,410 L909.05,455 L927.8,455 L927.8,410 L944.6,410 L944.6,515 L927.8,515 L927.8,470 L909.05,470 Z" id="M.E.S.TECH" fill="#FFFFFF"></path>
            <text id="Acceleration-2018" font-family="BebasNeueBold, Bebas Neue" font-size="60" font-weight="bold" fill="#FFFFFF">
                <tspan x="495" y="572">Acceleration 2018</tspan>
            </text>
            <path d="M492.5,587.5 L1378,587.5" id="Line" stroke="#FFFFFF" stroke-width="2" stroke-linecap="square"></path>
            <g id="Group" transform="translate(621.000000, 355.000000)" fill="#FFFFFF">
<path d="M5.36842105,29.3684211 C5.36842105,25.4210526 8.52631579,22.2631579 12.4736842,22.2631579 C16.4210526,22.2631579 19.5789474,25.4210526 19.5789474,29.3684211 C19.5789474,33.3157895 16.4210526,36.4736842 12.4736842,36.4736842 C8.52631579,36.6315789 5.36842105,33.3157895 5.36842105,29.3684211 M4.26315789,28.4210526 C4.26315789,33.6315789 8.36842105,37.7368421 13.5789474,37.7368421 C18.7894737,37.7368421 22.8947368,33.6315789 22.8947368,28.4210526 C22.8947368,23.2105263 18.7894737,19.1052632 13.5789474,19.1052632 C8.52631579,18.9473684 4.26315789,23.2105263 4.26315789,28.4210526 M3.15789474,27.1578947 C3.15789474,20.8421053 8.36842105,15.6315789 14.6842105,15.6315789 C21,15.6315789 26.2105263,20.8421053 26.2105263,27.1578947 C26.2105263,33.4736842 21,38.6842105 14.6842105,38.6842105 C8.36842105,38.6842105 3.15789474,33.6315789 3.15789474,27.1578947 M2.21052632,26.0526316 C2.21052632,33.6315789 8.36842105,39.6315789 15.7894737,39.6315789 C23.3684211,39.6315789 29.3684211,33.4736842 29.3684211,26.0526316 C29.3684211,18.4736842 23.2105263,12.4736842 15.7894737,12.4736842 C8.21052632,12.4736842 2.21052632,18.6315789 2.21052632,26.0526316 M1.10526316,25.1052632 C1.10526316,16.4210526 8.21052632,9.31578947 16.8947368,9.31578947 C25.5789474,9.31578947 32.6842105,16.4210526 32.6842105,25.1052632 C32.6842105,33.7894737 25.5789474,40.8947368 16.8947368,40.8947368 C8.21052632,40.8947368 1.10526316,33.7894737 1.10526316,25.1052632 M0,24 C0,33.9473684 8.05263158,42 18,42 C27.9473684,42 36,33.9473684 36,24 C36,14.0526316 27.9473684,6 18,6 C8.05263158,6 0,14.0526316 0,24" id="Shape" fill-rule="nonzero"></path>
                <text id="pulsar-venture-capit" font-family="BebasNeueBold, Bebas Neue" font-size="38" font-weight="bold" letter-spacing="-0.699999988">
                    <tspan x="45" y="37">pulsar venture capita</tspan>
                    <tspan x="311.994" y="37">l</tspan>
                </text>
            </g>
        </g>
    </g>
</svg>