<svg width="116" height="117" viewBox="0 0 116 117" fill="none" xmlns="http://www.w3.org/2000/svg">
<ellipse opacity="0.7" cx="58" cy="58.5" rx="58" ry="58.5" fill="#EC681D"/>
<path d="M32.1936 67.3462H36.3226V69.3635H32.1936V67.3462Z" fill="white"/>
<path d="M86.9032 43.1385C88.6104 43.1385 90 41.7806 90 40.1125V30.026C90 28.3578 88.6104 27 86.9032 27H72.4516C70.7445 27 69.3548 28.3578 69.3548 30.026V40.1125C69.3548 41.7806 70.7445 43.1385 72.4516 43.1385H75.5484V45.1558H73.4839V47.1731H78.6452V57.2597H74.3851C73.5615 56.4741 72.5474 55.8728 71.4123 55.5418C71.4173 55.4398 71.4194 55.3413 71.4194 55.2423C71.4194 50.793 67.7147 47.1731 63.1613 47.1731C60.3362 47.1731 57.7102 48.6093 56.2061 50.9063C55.1467 50.4414 54.001 50.1991 52.8387 50.1991C49.4128 50.1991 46.3281 52.309 45.1215 55.4039C44.3372 55.5684 43.6063 55.8629 42.9425 56.251H35.2903V53.225H39.4194C41.1265 53.225 42.5161 51.8672 42.5161 50.1991V30.026C42.5161 28.3578 41.1265 27 39.4194 27H29.0968C27.3896 27 26 28.3578 26 30.026V50.1991C26 51.8672 27.3896 53.225 29.0968 53.225H33.2258V58.2683H40.747C40.308 58.8805 39.9672 59.5562 39.7434 60.2856H35.2903V71.3808H31.1613C29.4541 71.3808 28.0645 72.7387 28.0645 74.4068V83.4847H26V86.5107C26 88.1788 27.3896 89.5366 29.0968 89.5366H45.6129C47.3201 89.5366 48.7097 88.1788 48.7097 86.5107V83.4847H46.6452V74.4068C46.6452 72.7387 45.2555 71.3808 43.5484 71.3808H37.3548V62.3029H39.4194C39.4194 66.1952 42.6618 69.3635 46.6452 69.3635H69.3548C72.9874 69.3635 75.9945 66.7271 76.498 63.3116H80.7097V71.3808H73.4839V89.5366H90V71.3808H82.7742V61.2943H76.4939C76.3866 60.5841 76.1638 59.9084 75.8518 59.277H80.7097V47.1731H85.871V45.1558H83.8064V43.1385H86.9032ZM40.4516 43.1385H28.0645V33.0519H40.4516V43.1385ZM29.0968 29.0173H39.4194C39.9889 29.0173 40.4516 29.4694 40.4516 30.026V31.0346H28.0645V30.026C28.0645 29.4694 28.5272 29.0173 29.0968 29.0173ZM28.0645 50.1991V45.1558H40.4516V50.1991C40.4516 50.7556 39.9889 51.2077 39.4194 51.2077H29.0968C28.5272 51.2077 28.0645 50.7556 28.0645 50.1991ZM46.6452 86.5107C46.6452 87.0672 46.1825 87.5193 45.6129 87.5193H29.0968C28.5272 87.5193 28.0645 87.0672 28.0645 86.5107V85.502H46.6452V86.5107ZM44.5806 74.4068V83.4847H30.129V74.4068C30.129 73.8503 30.5917 73.3981 31.1613 73.3981H43.5484C44.1179 73.3981 44.5806 73.8503 44.5806 74.4068ZM75.5484 87.5193V81.4674H87.9355V87.5193H75.5484ZM87.9355 79.4501H75.5484V73.3981H87.9355V79.4501ZM69.3548 67.3462H46.6452C43.7994 67.3462 41.4839 65.0836 41.4839 62.3029C41.4839 59.7532 43.437 57.6024 46.0257 57.3L46.7031 57.2203L46.8942 56.58C47.6578 54.0106 50.1033 52.2164 52.8387 52.2164C53.9783 52.2164 55.0973 52.5291 56.0781 53.1191L57.0635 53.7131L57.5549 52.6872C58.5711 50.562 60.7717 49.1904 63.1613 49.1904C66.5771 49.1904 69.3548 51.9046 69.3548 55.2423C69.3548 55.5206 69.3291 55.8171 69.2732 56.1752L69.1174 57.173L70.1381 57.3242C72.6341 57.6965 74.5161 59.8369 74.5161 62.3029C74.5161 65.0836 72.2006 67.3462 69.3548 67.3462ZM72.4516 29.0173H86.9032C87.4728 29.0173 87.9355 29.4694 87.9355 30.026V37.0866H71.4194V30.026C71.4194 29.4694 71.8821 29.0173 72.4516 29.0173ZM71.4194 40.1125V39.1039H87.9355V40.1125C87.9355 40.6691 87.4728 41.1212 86.9032 41.1212H72.4516C71.8821 41.1212 71.4194 40.6691 71.4194 40.1125ZM81.7419 45.1558H77.6129V43.1385H81.7419V45.1558Z" fill="white"/>
<path d="M77.6128 39.104H79.6772V41.1213H77.6128V39.104Z" fill="white"/>
<path d="M83.8064 31.0349H85.871V33.052H83.8064V31.0349Z" fill="white"/>
<path d="M81.7419 39.104H85.871V41.1213H81.7419V39.104Z" fill="white"/>
<path d="M77.6128 31.0349H81.7418V33.052H77.6128V31.0349Z" fill="white"/>
</svg>
