<svg width="942" height="133" viewBox="0 0 942 133" fill="none" xmlns="http://www.w3.org/2000/svg">
<g opacity="0.4">
<g opacity="0.4">
<path opacity="0.4" d="M906.771 0H886.533L921.762 66.5L886.533 133H906.771L942 66.5L906.771 0Z" fill="#FF7200"/>
</g>
</g>
<g opacity="0.7">
<g opacity="0.7">
<path opacity="0.7" d="M865.546 0H843.246L878.475 66.5L843.246 133H865.546L900.775 66.5L865.546 0Z" fill="#FF7200"/>
</g>
</g>
<path d="M820.01 0H334.113L369.342 66.5L334.113 133H820.01L855.239 66.5L820.01 0Z" fill="#FF7200"/>
<path d="M173.709 47.393C173.709 51.1394 170.898 53.5746 165.651 53.5746C164.527 53.5746 163.028 53.5746 162.278 53.3873V41.9606C163.215 41.5859 164.902 41.2113 166.401 41.2113C171.273 41.2113 173.709 43.2718 173.709 47.393ZM206.689 60.8803V37.8394H201.442V60.8803C201.442 64.2521 198.819 66.3127 195.446 66.3127C192.073 66.3127 189.449 64.2521 189.449 60.8803V37.8394H184.203V60.8803C184.203 67.2493 189.075 70.8084 195.446 70.8084C201.63 70.8084 206.689 67.062 206.689 60.8803ZM253.723 60.8803C253.723 55.4479 249.039 53.2 245.291 51.5141C242.48 50.2028 239.669 48.8916 239.669 46.0817C239.669 43.2718 241.918 41.5859 245.291 41.5859C247.54 41.5859 249.788 42.3352 251.1 43.0845L252.787 38.9634C251.1 38.0268 248.477 37.2775 245.104 37.2775C238.732 37.2775 234.423 40.8366 234.423 46.269C234.423 51.7014 239.107 54.1366 243.042 55.8225C245.853 56.9465 248.477 58.4451 248.477 61.0676C248.477 64.0648 246.041 65.938 242.293 65.938C242.105 65.938 241.731 65.938 241.543 65.938H219.057V37.8394H213.81V70.2465H241.731C242.105 70.2465 242.293 70.2465 242.668 70.2465C249.226 70.2465 253.723 66.6873 253.723 60.8803ZM276.585 57.8831H266.279L270.401 45.707C270.963 43.8338 271.338 41.7732 271.338 41.7732H271.525C271.525 41.7732 271.9 43.8338 272.462 45.707L276.585 57.8831ZM286.142 70.2465L274.524 37.8394H268.34L256.722 70.2465H262.156L265.154 61.6296H277.709L280.707 70.2465H286.142ZM306.942 47.0183C306.942 51.1394 304.131 52.8254 299.259 52.8254H295.324V41.9606C296.448 41.5859 298.134 41.2113 299.821 41.2113C304.693 41.2113 306.942 43.4592 306.942 47.0183ZM313.875 70.2465L308.816 59.569C307.879 57.5084 306.567 55.8225 304.88 55.0732C308.816 54.1366 312.189 51.8887 312.189 46.831C312.189 41.0239 308.066 37.2775 299.821 37.2775C296.261 37.2775 292.7 38.0268 290.264 38.9634V70.2465H295.511V56.5718H298.509C301.133 56.5718 302.632 57.8831 303.756 60.131L308.441 70.4338H313.875V70.2465ZM178.956 47.393C178.956 41.2113 174.458 37.2775 166.401 37.2775C162.84 37.2775 159.467 37.8394 157.031 38.9634V70.2465H162.278V57.1338C163.028 57.3211 164.527 57.3211 165.838 57.3211C174.458 57.5085 178.956 53.2 178.956 47.393Z" fill="white"/>
<path d="M156.282 80.7366C157.593 84.1085 159.28 88.6042 160.592 92.538C162.091 88.7916 163.59 84.4831 164.714 80.7366H166.775C165.464 85.0451 163.59 90.1028 161.716 94.4113H159.28C157.968 89.9155 155.907 84.4831 154.22 80.7366H156.282Z" fill="white"/>
<path d="M177.644 80.7366V82.4226H169.961V86.169H175.395V87.8549H169.961V92.538H177.644V94.4113H167.9V80.7366H177.644Z" fill="white"/>
<path d="M190.574 94.4113H188.138C186.076 90.6648 183.828 86.9183 181.579 83.1718V94.4113H179.705V80.7366H182.329C184.577 84.1085 186.639 87.8549 188.7 91.4141V80.7366H190.761V94.4113H190.574Z" fill="white"/>
<path d="M196.945 94.4113V82.4226H192.26V80.7366H203.503V82.4226H198.819V94.4113H196.945Z" fill="white"/>
<path d="M216.058 80.7366V89.9155C216.058 93.8493 213.997 94.5986 210.437 94.5986C206.876 94.5986 204.815 93.662 204.815 89.9155V80.7366H206.876V89.7282C206.876 92.1634 208.001 92.9127 210.437 92.9127C212.873 92.9127 213.997 92.3507 213.997 89.7282V80.7366H216.058Z" fill="white"/>
<path d="M229.738 94.4113H227.302C225.053 90.6648 223.554 88.7916 222.617 88.7916H220.368V94.4113H218.307V80.7366H224.866C227.864 80.7366 228.613 82.6099 228.613 84.6704C228.613 86.5437 227.677 88.2296 224.866 88.4169C225.99 88.6042 227.489 90.6648 229.738 94.4113ZM220.368 87.1056H224.678C225.99 87.1056 226.74 86.3564 226.74 84.8578C226.74 83.3592 225.99 82.4226 224.866 82.4226H220.556V87.1056H220.368Z" fill="white"/>
<path d="M240.794 80.7366V82.4226H233.111V86.169H238.545V87.8549H233.111V92.538H240.794V94.4113H231.237V80.7366H240.794Z" fill="white"/>
<path d="M252.787 80.362C254.098 80.362 255.597 80.5493 256.722 80.9239L256.16 82.6098C255.41 82.2352 254.098 82.2352 252.974 82.2352C249.788 82.2352 248.477 82.7972 248.477 87.4803C248.477 91.976 249.601 92.9127 252.974 92.9127C253.911 92.9127 255.41 92.7253 256.16 92.538L256.722 94.4113C255.597 94.7859 254.098 94.9732 252.787 94.9732C248.477 94.9732 246.415 93.2873 246.415 87.6676C246.415 81.8606 248.477 80.362 252.787 80.362Z" fill="white"/>
<path d="M265.342 90.4775H258.97C258.596 91.7887 258.033 93.1 257.659 94.2239H255.597C257.097 89.9155 258.783 84.8577 260.657 80.5493H263.843C265.342 85.0451 267.215 90.4775 268.902 94.2239H266.653C266.466 93.1 265.904 91.976 265.342 90.4775ZM262.156 82.2352C261.219 84.2958 260.47 86.5437 259.72 88.7915H264.967C264.217 86.5437 263.468 84.2958 262.718 82.2352H262.156Z" fill="white"/>
<path d="M270.026 94.4113V80.7366H276.585C279.583 80.7366 280.52 82.7972 280.52 85.2324C280.52 87.4803 279.396 89.5409 276.772 89.5409H272.087V94.224H270.026V94.4113ZM276.397 87.8549C277.709 87.8549 278.459 86.9183 278.459 85.2324C278.459 83.3592 277.709 82.4226 276.585 82.4226H272.275V87.8549H276.397Z" fill="white"/>
<path d="M284.643 80.7366H282.581V94.4113H284.643V80.7366Z" fill="white"/>
<path d="M290.826 94.4113V82.4226H286.142V80.7366H297.572V82.4226H292.888V94.4113H290.826Z" fill="white"/>
<path d="M305.068 90.4775H298.697C298.322 91.7887 297.76 93.1 297.385 94.2239H295.324C296.823 89.9155 298.509 84.8577 300.383 80.5493H303.569C305.068 85.0451 306.942 90.4775 308.628 94.2239H306.379C306.192 93.1 305.63 91.976 305.068 90.4775ZM301.695 82.2352C300.945 84.2958 300.008 86.5437 299.259 88.7915H304.506C303.756 86.5437 303.007 84.2958 302.257 82.2352H301.695Z" fill="white"/>
<path d="M311.814 80.7366V92.538H318.56V94.4113H309.753V80.7366H311.814Z" fill="white"/>
<path d="M19.8631 86.731C19.8631 72.1197 31.6686 60.3183 46.2849 60.3183C60.9011 60.3183 72.7066 72.1197 72.7066 86.731C72.7066 101.342 60.9011 113.144 46.2849 113.144C31.6686 113.144 19.8631 101.342 19.8631 86.731ZM15.928 82.7972C15.928 101.717 31.2938 117.077 50.22 117.077C69.1462 117.077 84.512 101.717 84.512 82.7972C84.512 63.8775 69.1462 48.3296 50.22 48.3296C31.2938 48.3296 15.928 63.6901 15.928 82.7972ZM11.9928 78.6761C11.9928 55.2606 30.919 36.3408 54.3425 36.3408C77.7661 36.3408 96.6923 55.2606 96.6923 78.6761C96.6923 102.092 77.7661 121.011 54.3425 121.011C30.919 121.011 11.9928 102.092 11.9928 78.6761ZM7.8703 74.5549C7.8703 102.466 30.5443 124.945 58.2777 124.945C86.1985 124.945 108.685 102.279 108.685 74.5549C108.872 46.831 86.1985 24.1648 58.4651 24.1648C30.5443 24.1648 7.8703 46.831 7.8703 74.5549ZM3.93515 70.6211C3.93515 38.4014 30.1695 12.1761 62.4002 12.1761C94.631 12.1761 120.865 38.4014 120.865 70.6211C120.865 102.841 94.631 129.066 62.4002 129.066C30.1695 129.066 3.93515 102.841 3.93515 70.6211ZM0 66.5C0 103.215 29.7947 133 66.5228 133C103.251 133 133.046 103.215 133.046 66.5C133.046 29.7845 103.251 0 66.5228 0C29.7947 0 0 29.7845 0 66.5Z" fill="#FF7200"/>
<path d="M438.863 64.2521L436.427 56.5718H424.621L422.185 64.2521H414.877L426.308 31.6577H434.74L446.171 64.2521H438.863ZM434.74 50.7648C432.492 43.8338 431.367 39.9 430.993 38.9633C430.805 38.0267 430.618 37.2774 430.43 36.7155C429.868 38.5887 428.557 43.2718 426.308 50.7648H434.74Z" fill="white"/>
<path d="M463.973 37.0901C461.35 37.0901 459.476 38.0267 457.977 40.0873C456.477 41.9605 455.915 44.7704 455.915 48.1422C455.915 55.4479 458.539 59.007 463.973 59.007C466.222 59.007 469.032 58.445 472.218 57.3211V63.1281C469.595 64.2521 466.596 64.8141 463.223 64.8141C458.539 64.8141 454.978 63.3155 452.355 60.5056C449.919 57.6957 448.607 53.5746 448.607 48.1422C448.607 44.7704 449.169 41.7732 450.481 39.338C451.793 36.7155 453.479 34.8422 455.728 33.531C457.977 32.2197 460.787 31.4704 463.786 31.4704C466.971 31.4704 470.157 32.2197 473.342 33.7183L471.094 39.338C469.969 38.776 468.658 38.2141 467.346 37.8394C466.409 37.2774 465.285 37.0901 463.973 37.0901Z" fill="white"/>
<path d="M493.018 37.0901C490.395 37.0901 488.521 38.0267 487.022 40.0873C485.523 41.9605 484.96 44.7704 484.96 48.1422C484.96 55.4479 487.584 59.007 493.018 59.007C495.267 59.007 498.078 58.445 501.263 57.3211V63.1281C498.64 64.2521 495.642 64.8141 492.269 64.8141C487.584 64.8141 484.023 63.3155 481.4 60.5056C478.964 57.6957 477.652 53.5746 477.652 48.1422C477.652 44.7704 478.214 41.7732 479.526 39.338C480.838 36.7155 482.524 34.8422 484.773 33.531C487.022 32.2197 489.833 31.4704 492.831 31.4704C496.016 31.4704 499.202 32.2197 502.388 33.7183L500.139 39.338C499.015 38.776 497.703 38.2141 496.391 37.8394C495.267 37.2774 494.142 37.0901 493.018 37.0901Z" fill="white"/>
<path d="M526.748 64.2521H508.009V31.8451H526.748V37.4648H514.942V44.5831H525.998V50.2028H514.942V58.6324H526.748V64.2521Z" fill="white"/>
<path d="M533.494 64.2521V31.8451H540.427V58.6324H553.544V64.2521H533.494Z" fill="white"/>
<path d="M577.718 64.2521H559.166V31.8451H577.718V37.4648H565.912V44.5831H576.968V50.2028H565.912V58.6324H577.718V64.2521Z" fill="white"/>
<path d="M591.397 51.7014V64.0648H584.464V31.8451H593.833C598.143 31.8451 601.516 32.5944 603.577 34.2803C605.638 35.9662 606.763 38.4014 606.763 41.5859C606.763 43.4592 606.201 45.1451 605.264 46.6437C604.139 48.1423 602.64 49.2662 600.766 50.2028C605.638 57.5085 608.824 62.1916 610.323 64.2521H602.64L594.957 51.8888H591.397V51.7014ZM591.397 46.269H593.646C595.894 46.269 597.393 45.8944 598.518 45.1451C599.642 44.3958 600.017 43.2719 600.017 41.7733C600.017 40.2747 599.455 39.1507 598.518 38.5888C597.393 38.0268 595.894 37.6521 593.646 37.6521H591.584V46.269H591.397Z" fill="white"/>
<path d="M634.309 64.2521L631.873 56.5718H620.067L617.631 64.2521H610.323L621.754 31.6577H630.186L641.617 64.2521H634.309ZM630.374 50.7648C628.125 43.8338 627.001 39.9 626.626 38.9633C626.438 38.0267 626.251 37.2774 626.064 36.7155C625.501 38.5887 624.19 43.2718 621.941 50.7648H630.374Z" fill="white"/>
<path d="M658.294 64.2521H651.361V37.4648H642.554V31.8451H667.102V37.4648H658.294V64.2521Z" fill="white"/>
<path d="M678.907 31.8451H671.974V64.2521H678.907V31.8451Z" fill="white"/>
<path d="M716.385 47.9549C716.385 53.3873 715.073 57.5084 712.45 60.3183C709.826 63.1281 705.891 64.6267 701.019 64.6267C696.147 64.6267 692.212 63.1281 689.588 60.3183C686.965 57.5084 685.653 53.3873 685.653 47.9549C685.653 42.5225 686.965 38.4014 689.588 35.5915C692.212 32.7817 696.147 31.2831 701.019 31.2831C706.078 31.2831 709.826 32.7817 712.45 35.5915C715.073 38.4014 716.385 42.5225 716.385 47.9549ZM692.774 47.9549C692.774 51.5141 693.523 54.3239 694.835 56.1972C696.147 58.0704 698.208 59.007 701.019 59.007C706.453 59.007 709.264 55.4479 709.264 48.1422C709.264 40.8366 706.453 37.2774 701.019 37.2774C698.208 37.2774 696.147 38.2141 694.835 40.0873C693.523 41.5859 692.774 44.3958 692.774 47.9549Z" fill="white"/>
<path d="M751.988 64.2521H743.181L729.127 39.7127H728.94C729.127 44.0211 729.315 47.2057 729.315 48.8916V64.0648H723.131V31.8451H731.751L745.805 56.0099H745.992C745.805 51.8888 745.617 48.8916 745.617 47.0183V31.8451H751.801V64.2521H751.988Z" fill="white"/>
<path d="M441.299 83.3591C441.299 86.9183 440.175 89.5408 438.113 91.4141C435.865 93.2873 432.867 94.2239 428.744 94.2239H425.746V105.651H418.812V73.2437H429.119C433.054 73.2437 436.052 74.1803 438.113 75.8662C440.362 77.5521 441.299 79.9873 441.299 83.3591ZM425.933 88.6042H428.182C430.243 88.6042 431.93 88.2296 432.867 87.2929C433.991 86.5437 434.366 85.2324 434.366 83.7338C434.366 82.0479 433.991 80.9239 433.054 80.1746C432.117 79.4253 430.805 79.0507 428.931 79.0507H425.746V88.6042H425.933Z" fill="white"/>
<path d="M454.416 93.2873V105.651H447.483V73.2437H456.852C461.162 73.2437 464.535 73.993 466.596 75.6789C468.658 77.3648 469.782 79.8 469.782 82.9845C469.782 84.8577 469.22 86.5437 468.283 88.0422C467.159 89.5408 465.659 90.6648 463.786 91.6014C468.658 98.907 471.843 103.59 473.342 105.651H465.659L457.977 93.2873H454.416ZM454.416 87.6676H456.665C458.913 87.6676 460.413 87.293 461.537 86.5437C462.661 85.7944 463.036 84.6704 463.036 83.1718C463.036 81.6732 462.474 80.5493 461.537 79.9873C460.413 79.4253 458.913 79.0507 456.665 79.0507H454.604V87.6676H454.416Z" fill="white"/>
<path d="M506.885 89.3535C506.885 94.7859 505.573 98.907 502.95 101.717C500.326 104.527 496.391 106.025 491.519 106.025C486.647 106.025 482.712 104.527 480.088 101.717C477.465 98.907 476.153 94.7859 476.153 89.3535C476.153 83.9211 477.465 79.8 480.088 76.9901C482.712 74.1803 486.647 72.6817 491.519 72.6817C496.578 72.6817 500.326 74.1803 502.95 76.9901C505.573 79.9873 506.885 84.1084 506.885 89.3535ZM483.086 89.3535C483.086 92.9127 483.836 95.7225 485.148 97.5958C486.459 99.469 488.521 100.406 491.332 100.406C496.766 100.406 499.577 96.8465 499.577 89.5408C499.577 82.2352 496.766 78.676 491.332 78.676C488.521 78.676 486.459 79.6127 485.148 81.4859C483.836 83.1718 483.086 85.7944 483.086 89.3535Z" fill="white"/>
<path d="M525.811 87.4803H538.741V104.339C536.68 105.089 534.618 105.463 532.932 105.838C531.058 106.025 529.184 106.213 527.31 106.213C522.438 106.213 518.69 104.714 516.067 101.904C513.443 99.0944 512.132 94.9732 512.132 89.5408C512.132 84.2958 513.631 80.1746 516.629 77.3648C519.627 74.3676 523.75 73.0563 528.997 73.0563C532.37 73.0563 535.555 73.8056 538.553 75.1169L536.305 80.5493C533.869 79.4253 531.433 78.8634 528.997 78.8634C525.998 78.8634 523.562 79.8 521.876 81.8606C520.002 83.9211 519.252 86.5437 519.252 89.9155C519.252 93.4746 520.002 96.0972 521.501 97.9704C523 99.8437 525.062 100.78 527.872 100.78C529.371 100.78 530.683 100.593 532.182 100.406V93.662H525.998V87.4803H525.811Z" fill="white"/>
<path d="M553.17 93.2873V105.651H546.236V73.2437H555.606C559.916 73.2437 563.289 73.993 565.35 75.6789C567.411 77.3648 568.535 79.8 568.535 82.9845C568.535 84.8577 567.973 86.5437 567.036 88.0422C565.912 89.5408 564.413 90.6648 562.539 91.6014C567.411 98.907 570.597 103.59 572.096 105.651H564.413L556.73 93.2873H553.17ZM553.17 87.6676H555.418C557.667 87.6676 559.166 87.293 560.29 86.5437C561.415 85.7944 561.789 84.6704 561.789 83.1718C561.789 81.6732 561.227 80.5493 560.29 79.9873C559.166 79.4253 557.667 79.0507 555.418 79.0507H553.357V87.6676H553.17Z" fill="white"/>
<path d="M596.082 105.651L593.645 97.9704H581.84L579.404 105.651H572.096L583.527 73.0563H591.959L603.39 105.651H596.082ZM592.146 92.1634C589.898 85.2324 588.773 81.2986 588.399 80.362C588.211 79.4254 588.024 78.6761 587.836 78.1141C587.274 79.9873 585.963 84.6704 583.714 92.1634H592.146Z" fill="white"/>
<path d="M621.379 105.651L613.509 80.1746H613.321C613.509 85.4197 613.696 88.7915 613.696 90.4775V105.463H607.512V73.2437H616.882L624.564 97.9704H624.752L632.81 73.2437H642.179V105.651H635.808V90.2901C635.808 89.5408 635.808 88.7915 635.808 87.8549C635.808 86.9183 635.995 84.4831 636.183 80.362H635.995L627.563 105.651H621.379Z" fill="white"/>
</svg>
