<svg width="189" height="77" viewBox="0 0 189 77" fill="none" xmlns="http://www.w3.org/2000/svg">
<g clip-path="url(#clip0)">
<path d="M11.5443 50.2722C11.5443 41.8635 18.4346 35.0164 26.8964 35.0164C35.3582 35.0164 42.2485 41.8635 42.2485 50.2722C42.2485 58.681 35.3582 65.5281 26.8964 65.5281C18.4346 65.5281 11.5443 58.681 11.5443 50.2722ZM9.24752 47.9298C9.24752 58.9212 18.1928 67.8105 29.2536 67.8105C40.3144 67.8105 49.2597 58.9212 49.2597 47.9298C49.2597 36.9384 40.3144 28.0491 29.2536 28.0491C18.1928 27.9891 9.24752 36.9384 9.24752 47.9298ZM6.95075 45.5874C6.95075 32.0133 18.0115 21.0218 31.6712 21.0218C45.331 21.0218 56.3918 32.0133 56.3918 45.5874C56.3918 59.1615 45.331 70.1529 31.6712 70.1529C18.0115 70.0928 6.95075 59.1014 6.95075 45.5874ZM4.65398 43.1849C4.65398 59.3417 17.8302 72.3752 34.0285 72.3752C50.2267 72.3752 63.4029 59.2816 63.4029 43.1849C63.4029 27.0881 50.2267 13.9945 34.0285 13.9945C17.7697 13.9945 4.65398 27.0881 4.65398 43.1849ZM2.29677 40.8424C2.29677 22.163 17.528 6.96724 36.3857 6.96724C55.1829 6.96724 70.4746 22.103 70.4746 40.8424C70.4746 59.5218 55.2434 74.7176 36.3857 74.7176C17.5884 74.7176 2.29677 59.5218 2.29677 40.8424ZM0 38.5C0 59.7621 17.3467 77 38.7429 77C60.1391 77 77.4858 59.7621 77.4858 38.5C77.4858 17.2379 60.1391 0 38.7429 0C17.3467 0 0 17.2379 0 38.5Z" fill="#EC681D"/>
<path d="M101.239 27.4485C101.239 29.6107 99.6073 30.9922 96.5248 30.9922C95.7995 30.9922 95.0138 30.9321 94.5907 30.8721V24.2652C95.1347 24.085 96.1017 23.9048 97.0084 23.9048C99.7282 23.8447 101.239 25.1061 101.239 27.4485ZM120.339 35.1965V21.8627H117.256V35.1965C117.256 37.1786 115.685 38.3799 113.751 38.3799C111.816 38.3799 110.245 37.1786 110.245 35.1965V21.8627H107.162V35.1965C107.162 38.8603 110.003 40.9625 113.69 40.9625C117.498 40.9625 120.339 38.8603 120.339 35.1965ZM147.779 35.3167C147.779 32.1334 145.059 30.812 142.823 29.851C141.191 29.1302 139.499 28.2894 139.499 26.7277C139.499 25.1061 140.828 24.1451 142.762 24.1451C144.032 24.1451 145.361 24.6256 146.087 24.9859L147.054 22.6435C146.087 22.1029 144.515 21.6825 142.642 21.6825C138.894 21.6825 136.416 23.7246 136.416 26.9079C136.416 30.0912 139.136 31.4126 141.493 32.4337C143.125 33.1544 144.636 33.8752 144.636 35.4969C144.636 37.2387 143.186 38.2597 141.01 38.2597C140.889 38.2597 140.707 38.2597 140.587 38.2597H127.471V21.8627H124.388V40.6622H140.587C140.768 40.6622 140.949 40.6622 141.131 40.6622C145.18 40.6622 147.779 38.6201 147.779 35.3167ZM161.076 33.5749H155.032L157.45 26.5476C157.812 25.5265 157.994 24.3252 157.994 24.3252H158.054C158.054 24.3252 158.296 25.5265 158.598 26.5476L161.076 33.5749ZM166.637 40.6622L159.867 21.8627H156.301L149.532 40.6622H152.735L154.488 35.677H161.801L163.554 40.6622H166.637ZM178.785 27.2082C178.785 29.6107 177.154 30.5717 174.373 30.5717H172.076V24.2652C172.681 24.0249 173.708 23.9048 174.736 23.9048C177.516 23.8447 178.785 25.1061 178.785 27.2082ZM182.835 40.6622L179.873 34.5359C179.329 33.3346 178.544 32.3736 177.577 31.8931V31.833C179.934 31.3525 181.808 29.911 181.808 27.0881C181.808 23.7847 179.39 21.6224 174.615 21.6224C172.56 21.6224 170.505 21.9828 168.994 22.6435V40.7223H172.016V32.734H173.769C175.28 32.734 176.186 33.5148 176.791 34.7761L179.571 40.7223H182.835V40.6622ZM104.201 27.4485C104.201 23.8447 101.602 21.5624 96.8875 21.5624C94.772 21.5624 92.8379 21.9228 91.4478 22.5234V40.6022H94.4698V33.0944C94.9534 33.1544 95.7995 33.2745 96.5248 33.2745C101.541 33.2745 104.201 30.812 104.201 27.4485Z" fill="white"/>
<path d="M91.0851 46.7285C91.8708 48.6505 92.8983 51.2933 93.5632 53.5756C94.4698 51.3533 95.316 48.9508 95.9808 46.7285H97.1896C96.4039 49.2511 95.316 52.1341 94.228 54.6568H92.717C91.9313 52.0741 90.7224 48.8908 89.7554 46.7285H91.0851Z" fill="white"/>
<path d="M103.415 46.7285V47.6895H99.0029V49.9118H102.146V50.9329H99.0029V53.6357H103.415V54.5967H97.8545V46.7285H103.415Z" fill="white"/>
<path d="M111.031 54.5967H109.641C108.492 52.4344 107.162 50.2121 105.772 48.0499V54.5967H104.624V46.7285H106.195C107.465 48.6505 108.734 50.8128 109.882 52.9149V46.7285H111.031V54.5967Z" fill="white"/>
<path d="M114.657 54.5967V47.6895H111.937V46.7285H118.586V47.6895H115.866V54.5967H114.657Z" fill="white"/>
<path d="M125.899 46.7285V52.0741C125.899 54.2964 124.69 54.7769 122.635 54.7769C120.58 54.7769 119.372 54.2964 119.372 52.0741V46.7285H120.52V51.9539C120.52 53.3954 121.124 53.7558 122.635 53.7558C124.086 53.7558 124.751 53.4555 124.751 51.9539V46.7285H125.899Z" fill="white"/>
<path d="M133.878 54.5967H132.427C131.158 52.4344 130.251 51.3533 129.707 51.3533H128.377V54.5967H127.229V46.7285H131.097C132.85 46.7285 133.334 47.8096 133.334 49.0109C133.334 50.1521 132.79 51.1131 131.158 51.1131C131.702 51.2933 132.548 52.4344 133.878 54.5967ZM128.377 50.3923H130.855C131.581 50.3923 132.004 49.9118 132.004 49.0709C132.004 48.17 131.581 47.6895 130.855 47.6895H128.317V50.3923H128.377Z" fill="white"/>
<path d="M140.284 46.7285V47.6895H135.812V49.9118H139.015V50.9329H135.812V53.6357H140.284V54.5967H134.663V46.7285H140.284Z" fill="white"/>
<path d="M147.175 46.4883C147.9 46.4883 148.807 46.6084 149.411 46.7886L149.109 47.8097C148.625 47.6295 147.839 47.5093 147.295 47.5093C145.422 47.5093 144.696 47.8697 144.696 50.5125C144.696 53.1552 145.422 53.6357 147.295 53.6357C147.9 53.6357 148.686 53.5156 149.109 53.3955L149.411 54.4165C148.807 54.5967 147.9 54.7168 147.175 54.7168C144.697 54.7168 143.488 53.7558 143.488 50.5125C143.488 47.3292 144.697 46.4883 147.175 46.4883Z" fill="white"/>
<path d="M154.609 52.4344H150.922C150.68 53.1552 150.438 53.936 150.197 54.6568H148.988C149.834 52.1341 150.922 49.2511 151.949 46.7285H153.823C154.669 49.3112 155.818 52.4945 156.785 54.6568H155.455C155.213 53.936 154.851 53.2153 154.609 52.4344ZM152.675 47.6295C152.191 48.8307 151.708 50.092 151.224 51.4134H154.246C153.763 50.1521 153.34 48.8307 152.977 47.6295H152.675Z" fill="white"/>
<path d="M157.329 54.5967V46.7285H161.197C162.95 46.7285 163.433 47.9298 163.433 49.3713C163.433 50.6926 162.829 51.8939 161.257 51.8939H158.538V54.6568H157.329V54.5967ZM160.955 50.8728C161.741 50.8728 162.104 50.2722 162.104 49.3713C162.104 48.2901 161.741 47.6895 160.955 47.6895H158.417V50.8728H160.955Z" fill="white"/>
<path d="M165.791 46.7285H164.642V54.6568H165.791V46.7285Z" fill="white"/>
<path d="M169.417 54.5967V47.6895H166.697V46.7285H173.285V47.6895H170.565V54.5967H169.417Z" fill="white"/>
<path d="M177.697 52.4344H174.011C173.769 53.1552 173.527 53.936 173.285 54.6568H172.076C172.923 52.1341 174.011 49.2511 175.038 46.7285H176.912C177.758 49.3112 178.906 52.4945 179.873 54.6568H178.544C178.302 53.936 178 53.2153 177.697 52.4344ZM175.763 47.6295C175.28 48.8307 174.796 50.092 174.313 51.4134H177.335C176.851 50.1521 176.428 48.8307 176.066 47.6295H175.763Z" fill="white"/>
<path d="M181.566 46.7285V53.5756H185.494V54.5967H180.417V46.7285H181.566Z" fill="white"/>
<path d="M185.313 23.6646C185.313 22.7036 186.038 21.9828 186.945 21.9828C187.852 21.9828 188.577 22.7036 188.577 23.6646C188.577 24.6256 187.852 25.3463 186.945 25.3463C186.038 25.2862 185.313 24.6256 185.313 23.6646ZM186.945 25.6466C188.033 25.6466 189 24.8057 189 23.6646C189 22.5234 188.093 21.6825 186.945 21.6825C185.857 21.6825 184.89 22.5234 184.89 23.6646C184.95 24.8057 185.857 25.6466 186.945 25.6466ZM186.522 23.7847H186.945L187.549 24.8057H187.973L187.308 23.7847C187.67 23.7246 187.912 23.5444 187.912 23.124C187.912 22.6435 187.67 22.4633 187.066 22.4633H186.159V24.7457H186.522V23.7847ZM186.522 23.4844V22.8237H187.005C187.247 22.8237 187.489 22.8837 187.489 23.1841C187.489 23.5444 187.247 23.5444 186.945 23.5444H186.522V23.4844Z" fill="white"/>
</g>
<defs>
<clipPath id="clip0">
<rect width="189" height="77" fill="white"/>
</clipPath>
</defs>
</svg>
