<svg width="121" height="49" viewBox="0 0 121 49" fill="none" xmlns="http://www.w3.org/2000/svg">
<g clip-path="url(#clip0)">
<path d="M7.39079 31.9914C7.39079 26.6404 11.802 22.2832 17.2194 22.2832C22.6367 22.2832 27.048 26.6404 27.048 31.9914C27.048 37.3424 22.6367 41.6997 17.2194 41.6997C11.802 41.6997 7.39079 37.3424 7.39079 31.9914ZM5.92037 30.5008C5.92037 37.4953 11.6473 43.1521 18.7285 43.1521C25.8097 43.1521 31.5366 37.4953 31.5366 30.5008C31.5366 23.5062 25.8097 17.8495 18.7285 17.8495C11.6473 17.8112 5.92037 23.5062 5.92037 30.5008ZM4.44995 29.0101C4.44995 20.3721 11.5312 13.3775 20.2763 13.3775C29.0214 13.3775 36.1027 20.3721 36.1027 29.0101C36.1027 37.6482 29.0214 44.6427 20.2763 44.6427C11.5312 44.6045 4.44995 37.61 4.44995 29.0101ZM2.97953 27.4813C2.97953 37.7629 11.4151 46.0569 21.7854 46.0569C32.1557 46.0569 40.5913 37.7247 40.5913 27.4813C40.5913 17.2379 32.1557 8.90562 21.7854 8.90562C11.3764 8.90562 2.97953 17.2379 2.97953 27.4813ZM1.47042 25.9906C1.47042 14.1037 11.2216 4.4337 23.2945 4.4337C35.3288 4.4337 45.1186 14.0655 45.1186 25.9906C45.1186 37.8775 35.3674 47.5476 23.2945 47.5476C11.2603 47.5476 1.47042 37.8775 1.47042 25.9906ZM0 24.5C0 38.0304 11.1055 49 24.8036 49C38.5018 49 49.6073 38.0304 49.6073 24.5C49.6073 10.9696 38.5018 0 24.8036 0C11.1055 0 0 10.9696 0 24.5Z" fill="#EC681D"/>
<path d="M64.8145 17.4672C64.8145 18.8432 63.7697 19.7223 61.7962 19.7223C61.3319 19.7223 60.8289 19.6841 60.558 19.6459V15.4415C60.9062 15.3268 61.5254 15.2122 62.1058 15.2122C63.8471 15.1739 64.8145 15.9766 64.8145 17.4672ZM77.0422 22.3978V13.9126H75.0687V22.3978C75.0687 23.6591 74.0626 24.4236 72.8244 24.4236C71.5861 24.4236 70.5801 23.6591 70.5801 22.3978V13.9126H68.6066V22.3978C68.6066 24.7293 70.4253 26.0671 72.7857 26.0671C75.2235 26.0671 77.0422 24.7293 77.0422 22.3978ZM94.6098 22.4743C94.6098 20.4485 92.8685 19.6076 91.4368 18.9961C90.392 18.5374 89.3086 18.0023 89.3086 17.0086C89.3086 15.9766 90.1598 15.3651 91.3981 15.3651C92.2107 15.3651 93.062 15.6708 93.5263 15.9002L94.1455 14.4095C93.5263 14.0655 92.5203 13.798 91.3207 13.798C88.9216 13.798 87.3351 15.0975 87.3351 17.1232C87.3351 19.149 89.0764 19.9899 90.5855 20.6396C91.6303 21.0983 92.5977 21.5569 92.5977 22.5889C92.5977 23.6973 91.669 24.3471 90.2759 24.3471C90.1985 24.3471 90.0825 24.3471 90.0051 24.3471H81.6082V13.9126H79.6347V25.876H90.0051C90.1212 25.876 90.2372 25.876 90.3533 25.876C92.9459 25.876 94.6098 24.5764 94.6098 22.4743ZM103.123 21.3658H99.2532L100.801 16.8939C101.033 16.2441 101.149 15.4797 101.149 15.4797H101.188C101.188 15.4797 101.343 16.2441 101.536 16.8939L103.123 21.3658ZM106.683 25.876L102.349 13.9126H100.066L95.732 25.876H97.7828L98.905 22.7036H103.587L104.709 25.876H106.683ZM114.46 17.3143C114.46 18.8432 113.416 19.4548 111.636 19.4548H110.165V15.4415C110.552 15.2886 111.21 15.2122 111.868 15.2122C113.648 15.1739 114.46 15.9766 114.46 17.3143ZM117.053 25.876L115.157 21.9774C114.809 21.2129 114.306 20.6014 113.687 20.2956V20.2574C115.196 19.9516 116.395 19.0343 116.395 17.2379C116.395 15.1357 114.847 13.7597 111.79 13.7597C110.475 13.7597 109.159 13.9891 108.192 14.4095V25.9142H110.127V20.8307H111.249C112.216 20.8307 112.797 21.3276 113.184 22.1303L114.964 25.9142H117.053V25.876ZM66.7105 17.4672C66.7105 15.1739 65.0466 13.7215 62.0284 13.7215C60.6741 13.7215 59.4358 13.9509 58.5458 14.3331V25.8377H60.4806V21.0601C60.7902 21.0983 61.3319 21.1747 61.7962 21.1747C65.0079 21.1747 66.7105 19.6076 66.7105 17.4672Z" fill="black"/>
<path d="M58.3137 29.7364C58.8167 30.9594 59.4746 32.6412 59.9002 34.0936C60.4806 32.6794 61.0224 31.1506 61.448 29.7364H62.2219C61.7189 31.3417 61.0224 33.1763 60.3258 34.7816H59.3585C58.8554 33.1381 58.0815 31.1123 57.4624 29.7364H58.3137Z" fill="black"/>
<path d="M66.2076 29.7364V30.3479H63.3828V31.7621H65.395V32.4119H63.3828V34.1318H66.2076V34.7434H62.6476V29.7364H66.2076Z" fill="black"/>
<path d="M71.0831 34.7434H70.1931C69.4579 33.3674 68.6066 31.9532 67.7167 30.5772V34.7434H66.9814V29.7364H67.9875C68.8001 30.9594 69.6127 32.3354 70.3479 33.6732V29.7364H71.0831V34.7434Z" fill="black"/>
<path d="M73.4049 34.7434V30.3479H71.6636V29.7364H75.9201V30.3479H74.1788V34.7434H73.4049Z" fill="black"/>
<path d="M80.6022 29.7364V33.1381C80.6022 34.5523 79.8283 34.858 78.5126 34.858C77.197 34.858 76.4231 34.5523 76.4231 33.1381V29.7364H77.1583V33.0616C77.1583 33.9789 77.5453 34.2083 78.5126 34.2083C79.4413 34.2083 79.867 34.0172 79.867 33.0616V29.7364H80.6022Z" fill="black"/>
<path d="M85.71 34.7434H84.7813C83.9687 33.3674 83.3883 32.6794 83.04 32.6794H82.1887V34.7434H81.4535V29.7364H83.93C85.0521 29.7364 85.3617 30.4243 85.3617 31.1888C85.3617 31.915 85.0134 32.5265 83.9687 32.5265C84.3169 32.6412 84.8587 33.3674 85.71 34.7434ZM82.1887 32.0679H83.7752C84.2395 32.0679 84.5104 31.7621 84.5104 31.227C84.5104 30.6537 84.2395 30.3479 83.7752 30.3479H82.15V32.0679H82.1887Z" fill="black"/>
<path d="M89.8116 29.7364V30.3479H86.9482V31.7621H88.999V32.4119H86.9482V34.1318H89.8116V34.7434H86.213V29.7364H89.8116Z" fill="black"/>
<path d="M94.2228 29.5835C94.6872 29.5835 95.2676 29.6599 95.6546 29.7746L95.4611 30.4243C95.1515 30.3097 94.6485 30.2332 94.3002 30.2332C93.1007 30.2332 92.6363 30.4625 92.6363 32.1443C92.6363 33.826 93.1007 34.1318 94.3002 34.1318C94.6872 34.1318 95.1902 34.0554 95.4611 33.9789L95.6546 34.6287C95.2676 34.7434 94.6872 34.8198 94.2228 34.8198C92.6363 34.8198 91.8624 34.2083 91.8624 32.1443C91.8624 30.1186 92.6363 29.5835 94.2228 29.5835Z" fill="black"/>
<path d="M98.9824 33.3674H96.622C96.4672 33.8261 96.3124 34.3229 96.1576 34.7816H95.3837C95.9255 33.1763 96.622 31.3417 97.2798 29.7364H98.4793C99.0211 31.3799 99.7563 33.4056 100.375 34.7816H99.5241C99.3693 34.3229 99.1372 33.8643 98.9824 33.3674ZM97.7441 30.3097C97.4346 31.0741 97.125 31.8768 96.8155 32.7176H98.7502C98.4407 31.915 98.1698 31.0741 97.9376 30.3097H97.7441Z" fill="black"/>
<path d="M100.724 34.7434V29.7364H103.2C104.322 29.7364 104.632 30.5008 104.632 31.4181C104.632 32.259 104.245 33.0234 103.239 33.0234H101.498V34.7816H100.724V34.7434ZM103.045 32.3736C103.548 32.3736 103.781 31.9914 103.781 31.4181C103.781 30.7301 103.548 30.3479 103.045 30.3479H101.42V32.3736H103.045Z" fill="black"/>
<path d="M106.141 29.7364H105.406V34.7816H106.141V29.7364Z" fill="black"/>
<path d="M108.463 34.7434V30.3479H106.721V29.7364H110.939V30.3479H109.198V34.7434H108.463Z" fill="black"/>
<path d="M113.764 33.3674H111.404C111.249 33.8261 111.094 34.3229 110.939 34.7816H110.165C110.707 33.1763 111.404 31.3417 112.061 29.7364H113.261C113.803 31.3799 114.538 33.4056 115.157 34.7816H114.306C114.151 34.3229 113.957 33.8643 113.764 33.3674ZM112.526 30.3097C112.216 31.0741 111.907 31.8768 111.597 32.7176H113.532C113.222 31.915 112.951 31.0741 112.719 30.3097H112.526Z" fill="black"/>
<path d="M116.24 29.7364V34.0936H118.756V34.7434H115.505V29.7364H116.24Z" fill="black"/>
<path d="M118.64 15.0593C118.64 14.4477 119.104 13.9891 119.684 13.9891C120.265 13.9891 120.729 14.4477 120.729 15.0593C120.729 15.6708 120.265 16.1295 119.684 16.1295C119.104 16.0913 118.64 15.6708 118.64 15.0593ZM119.684 16.3206C120.381 16.3206 121 15.7855 121 15.0593C121 14.3331 120.42 13.798 119.684 13.798C118.988 13.798 118.369 14.3331 118.369 15.0593C118.407 15.7855 118.988 16.3206 119.684 16.3206ZM119.413 15.1357H119.684L120.071 15.7855H120.342L119.917 15.1357C120.149 15.0975 120.303 14.9828 120.303 14.7153C120.303 14.4095 120.149 14.2949 119.762 14.2949H119.181V15.7473H119.413V15.1357ZM119.413 14.9446V14.5242H119.723C119.878 14.5242 120.033 14.5624 120.033 14.7535C120.033 14.9828 119.878 14.9828 119.684 14.9828H119.413V14.9446Z" fill="black"/>
</g>
<defs>
<clipPath id="clip0">
<rect width="121" height="49" fill="white"/>
</clipPath>
</defs>
</svg>
