<svg width="84" height="84" viewBox="0 0 84 84" fill="none" xmlns="http://www.w3.org/2000/svg">
<g clip-path="url(#clip0)">
<path d="M83.9901 54.1934C83.8855 52.3162 82.9597 50.597 81.4496 49.4768C79.0066 47.6639 75.6164 47.8529 73.3895 49.9266L59.8447 62.5409C59.9272 59.7656 58.103 57.3162 55.3709 56.623L38.8287 52.4245C35.9278 51.688 32.8903 51.7874 30.0435 52.7118L18.6078 56.4245V53.1339C18.6078 52.2279 17.8732 51.4934 16.9674 51.4934H1.64046C0.734509 51.4934 0 52.2281 0 53.1339V82.3563C0 83.2622 0.734673 83.9967 1.64046 83.9967H16.9675C17.8735 83.9967 18.608 83.2621 18.608 82.3563V59.8743L31.0568 55.8326C33.3138 55.0995 35.7222 55.0211 38.0217 55.6045L54.564 59.8031C55.8488 60.1292 56.6858 61.3233 56.5541 62.6427C56.4179 64.0067 55.2813 65.0355 53.9104 65.0355H42.3797C41.4738 65.0355 40.7393 65.7702 40.7393 66.676C40.7393 67.5819 41.4739 68.3164 42.3797 68.3164H45.914C45.9756 68.3235 46.0382 68.3279 46.1018 68.3279H54.2375C56.9511 68.3279 59.5392 67.3093 61.5253 65.4599L75.6261 52.3277C76.6949 51.3322 78.3223 51.2416 79.4953 52.1118C80.2201 52.6494 80.6644 53.4747 80.7146 54.3759C80.765 55.2771 80.4147 56.1464 79.7542 56.7615L60.3292 74.8445C58.9893 76.0917 57.243 76.7786 55.4125 76.7786H29.99C29.0841 76.7786 28.3496 77.5133 28.3496 78.4191C28.3496 79.3251 29.0842 80.0596 29.99 80.0596H55.4129C58.0756 80.0596 60.6156 79.0603 62.565 77.2459L81.9896 59.1629C83.3655 57.8819 84.0948 56.0706 83.9901 54.1934ZM15.3271 80.7158H3.28093V54.7745H15.3269V80.7158H15.3271Z" fill="#EC681D"/>
<path d="M24.5303 77.2593C24.2235 76.9539 23.8019 76.7786 23.3706 76.7786C22.9373 76.7786 22.5158 76.9539 22.2092 77.2593C21.904 77.5644 21.7285 77.9877 21.7285 78.419C21.7285 78.8503 21.9038 79.2738 22.2092 79.5786C22.516 79.8838 22.9374 80.0595 23.3706 80.0595C23.802 80.0595 24.2237 79.8839 24.5303 79.5786C24.8353 79.2736 25.011 78.8503 25.011 78.419C25.011 77.9877 24.8355 77.5644 24.5303 77.2593Z" fill="#EC681D"/>
<path d="M10.4633 75.5647C10.1596 75.2595 9.73634 75.084 9.30501 75.084C8.87189 75.084 8.44861 75.2579 8.14361 75.5647C7.83862 75.8698 7.66455 76.2917 7.66455 76.7245C7.66455 77.1559 7.83862 77.5792 8.14361 77.8842C8.45041 78.1892 8.87205 78.3649 9.30501 78.3649C9.7365 78.3649 10.1581 78.1894 10.4633 77.8842C10.7699 77.579 10.9455 77.1558 10.9455 76.7245C10.9455 76.2913 10.7699 75.8698 10.4633 75.5647Z" fill="#EC681D"/>
<path d="M41.9968 0.00317383C33.8557 0.00317383 27.2323 6.62655 27.2323 14.7677C27.2323 17.4814 29.4401 19.6892 32.1539 19.6892C34.8676 19.6892 37.0754 17.4814 37.0754 14.7677C37.0754 12.0539 39.2832 9.84612 41.997 9.84612C44.7107 9.84612 46.9185 12.0539 46.9185 14.7677C46.9185 17.4814 44.7107 19.6892 41.997 19.6892C39.2832 19.6892 37.0754 21.897 37.0754 24.6108V31.665C37.0754 34.3788 39.2832 36.5866 41.997 36.5866C44.7107 36.5866 46.9185 34.3788 46.9185 31.665V28.6896C52.7739 26.6227 56.7615 21.0695 56.7615 14.7677C56.7613 6.62639 50.1379 0.00317383 41.9968 0.00317383ZM44.8676 25.888C44.1432 26.0751 43.6374 26.7285 43.6374 27.4763V31.6647C43.6374 32.5693 42.9014 33.3051 41.997 33.3051C41.0923 33.3051 40.3565 32.5691 40.3565 31.6647V24.6105C40.3565 23.7058 41.0925 22.97 41.997 22.97C46.5199 22.97 50.1995 19.2904 50.1995 14.7675C50.1995 10.2446 46.5199 6.56503 41.997 6.56503C37.4741 6.56503 33.7945 10.2446 33.7945 14.7675C33.7945 15.6722 33.0585 16.408 32.154 16.408C31.2494 16.408 30.5136 15.672 30.5136 14.7675C30.5136 8.43551 35.665 3.28394 41.9971 3.28394C48.3293 3.28394 53.4807 8.43551 53.4807 14.7675C53.4804 20.0052 49.9386 24.5781 44.8676 25.888Z" fill="#EC681D"/>
<path d="M45.478 41.8238C44.5632 40.9064 43.2943 40.3804 41.9968 40.3804C40.6994 40.3804 39.4303 40.9065 38.5186 41.8207C37.6014 42.7355 37.0754 44.0044 37.0754 45.3018C37.0754 46.5992 37.6015 47.8682 38.517 48.7814C39.4335 49.6978 40.7017 50.2232 41.9968 50.2232C43.292 50.2232 44.5604 49.6975 45.4764 48.7814C46.3928 47.8649 46.9182 46.5967 46.9182 45.3018C46.9183 44.0068 46.3928 42.7384 45.478 41.8238ZM43.156 46.4615C42.8551 46.7626 42.4215 46.9424 41.9968 46.9424C41.5718 46.9424 41.1381 46.7626 40.8355 46.46C40.5355 46.1608 40.3563 45.7277 40.3563 45.3019C40.3563 44.8696 40.5309 44.4475 40.8385 44.1409C41.1379 43.8408 41.571 43.6615 41.9968 43.6615C42.4227 43.6615 42.8555 43.8406 43.1562 44.1425C43.4574 44.4434 43.6372 44.877 43.6372 45.3019C43.6372 45.7269 43.4574 46.1603 43.156 46.4615Z" fill="#EC681D"/>
<path d="M9.30416 58.1587C8.3982 58.1587 7.6637 58.8934 7.6637 59.7992V70.2167C7.6637 71.1226 8.3982 71.8571 9.30416 71.8571C10.2101 71.8571 10.9446 71.1224 10.9446 70.2167V59.7992C10.9446 58.8934 10.2099 58.1587 9.30416 58.1587Z" fill="#EC681D"/>
</g>
<defs>
<clipPath id="clip0">
<rect width="84" height="84" fill="white"/>
</clipPath>
</defs>
</svg>
