<svg width="249" height="273" viewBox="0 0 249 273" fill="none" xmlns="http://www.w3.org/2000/svg">
<path d="M6.61617 229.564H50.0488V266.796C50.0488 268.608 50.6283 270.091 51.7944 271.25C52.9574 272.417 54.444 273 56.255 273H88.6333C90.3137 273 91.7678 272.417 92.996 271.25C94.2242 270.091 94.8364 268.607 94.8364 266.796V229.564H192.752C194.559 229.564 196.046 228.988 197.212 227.822C198.378 226.656 198.957 225.172 198.957 223.361V198.541C198.957 196.741 198.378 195.247 197.212 194.088C196.049 192.921 194.559 192.338 192.752 192.338H94.8332V169.458H160.756C186.607 169.458 207.706 161.581 224.062 145.804C240.412 130.044 248.591 109.686 248.591 84.7288C248.591 59.7882 240.412 39.4296 224.062 23.6536C207.709 7.89309 186.607 0 160.756 0H56.2518C54.4403 0 52.9568 0.58279 51.7912 1.74248C50.6283 2.9086 50.0455 4.4017 50.0455 6.20305V128.164H6.61617C4.80519 128.164 3.32119 128.777 2.15561 130.004C0.993238 131.233 0.409912 132.687 0.409912 134.367V163.253C0.409912 165.065 0.989492 166.549 2.15561 167.715C3.32172 168.881 4.80198 169.457 6.61617 169.457H50.0488V192.337H6.61617C4.80519 192.337 3.32119 192.921 2.15561 194.087C0.993238 195.246 0.409912 196.737 0.409912 198.541V223.36C0.409912 225.172 0.989492 226.656 2.15561 227.821C3.32119 228.988 4.80465 229.564 6.61617 229.564ZM94.8332 41.3032H156.879C170.579 41.3032 181.629 45.3089 190.033 53.3229C198.434 61.3375 202.636 71.8111 202.636 84.732C202.636 97.6594 198.434 108.136 190.033 116.141C181.629 124.162 170.578 128.168 156.879 128.168H94.8332V41.3032Z" fill="white"/>
</svg>
