<svg width="273" height="273" viewBox="0 0 273 273" fill="none" xmlns="http://www.w3.org/2000/svg">
<g opacity="0.05">
<path d="M18.6162 229.564H62.0488V266.796C62.0488 268.608 62.6283 270.091 63.7944 271.25C64.9574 272.417 66.444 273 68.255 273H100.633C102.314 273 103.768 272.417 104.996 271.25C106.224 270.091 106.836 268.607 106.836 266.796V229.564H204.752C206.559 229.564 208.046 228.988 209.212 227.822C210.378 226.656 210.957 225.172 210.957 223.361V198.541C210.957 196.741 210.378 195.247 209.212 194.088C208.049 192.921 206.559 192.338 204.752 192.338H106.833V169.458H172.756C198.607 169.458 219.706 161.581 236.062 145.804C252.412 130.044 260.591 109.686 260.591 84.7288C260.591 59.7882 252.412 39.4296 236.062 23.6536C219.709 7.89309 198.607 0 172.756 0H68.2518C66.4403 0 64.9568 0.58279 63.7912 1.74248C62.6283 2.9086 62.0455 4.4017 62.0455 6.20305V128.164H18.6162C16.8052 128.164 15.3212 128.777 14.1556 130.004C12.9932 131.233 12.4099 132.687 12.4099 134.367V163.253C12.4099 165.065 12.9895 166.549 14.1556 167.715C15.3217 168.881 16.802 169.457 18.6162 169.457H62.0488V192.337H18.6162C16.8052 192.337 15.3212 192.921 14.1556 194.087C12.9932 195.246 12.4099 196.737 12.4099 198.541V223.36C12.4099 225.172 12.9895 226.656 14.1556 227.821C15.3212 228.988 16.8047 229.564 18.6162 229.564ZM106.833 41.3032H168.879C182.579 41.3032 193.629 45.3089 202.033 53.3229C210.434 61.3375 214.636 71.8111 214.636 84.732C214.636 97.6594 210.434 108.136 202.033 116.141C193.629 124.162 182.578 128.168 168.879 128.168H106.833V41.3032Z" fill="white"/>
</g>
</svg>
